# Blender 4.3.2
# www.blender.org
mtllib fused_model.mtl
o rod-16mm_mesh
v -0.004719 -0.028097 0.003958
v -0.004464 -0.028046 -0.004605
v -0.001811 -0.028098 -0.006421
v 0.000728 -0.028144 0.005725
v -0.001939 -0.028126 0.005977
v 0.001181 -0.028013 -0.006209
v -0.006310 -0.028064 0.000286
v 0.004982 -0.028069 0.000442
v 0.005133 -0.028017 -0.002902
v 0.004089 -0.028217 -0.004315
v 0.003620 -0.028066 0.004136
v 0.003686 -0.027894 0.002064
v -0.006189 -0.028061 -0.001112
v -0.000387 -0.028948 0.005054
v -0.002659 -0.028504 -0.004971
v -0.003416 -0.028710 0.003526
v 0.000639 -0.028660 0.003679
v 0.001661 -0.028481 -0.004927
v -0.005609 -0.028439 -0.000277
v 0.000653 -0.028551 -0.002121
v 0.003908 -0.028658 -0.003046
v -0.005013 -0.025753 -0.004593
v -0.003458 -0.026241 -0.005997
v 0.003749 -0.026516 0.005049
v -0.001270 -0.026066 -0.006905
v 0.005696 -0.026999 0.001451
v 0.001354 -0.025950 -0.006660
v -0.006127 -0.025595 -0.002882
v -0.003548 -0.024041 0.006159
v -0.001589 -0.024089 0.007167
v -0.006521 -0.023755 0.002656
v 0.005886 -0.025615 -0.002727
v -0.006917 -0.025031 -0.000615
v 0.003998 -0.023885 -0.005704
v -0.005361 -0.023830 0.004511
v -0.002104 -0.025037 -0.006736
v 0.005234 -0.025497 0.003856
v 0.006982 -0.023961 -0.000563
v 0.006172 -0.025813 0.001501
v 0.004581 -0.023972 0.005589
v -0.003431 -0.023799 -0.006339
v 0.006027 -0.023839 0.003682
v 0.000009 -0.023946 -0.007350
v 0.006947 -0.023599 0.001277
v -0.007351 -0.023386 -0.000647
v -0.005852 -0.023465 -0.004290
v 0.000932 -0.024033 0.007321
v 0.005689 -0.023840 -0.004062
v -0.001164 -0.020588 -0.006957
v -0.005291 -0.021597 0.004491
v 0.004949 -0.019083 0.005506
v -0.003009 -0.021016 -0.006271
v 0.000424 -0.020245 -0.007010
v 0.006862 -0.021738 0.000833
v -0.007038 -0.021590 -0.000535
v -0.006421 -0.021016 -0.002766
v -0.006491 -0.021557 0.002314
v -0.005040 -0.020860 -0.004843
v 0.006152 -0.021810 -0.002883
v 0.002525 -0.019698 0.007073
v 0.004683 -0.021408 -0.004857
v 0.002630 -0.020945 -0.006195
v -0.003518 -0.019040 0.006469
v 0.006884 -0.018921 0.001382
v 0.006512 -0.018767 -0.002465
v 0.000998 -0.018015 0.007414
v 0.006249 -0.018685 0.003723
v -0.001867 -0.019471 0.007249
v -0.006523 -0.018434 0.002819
v -0.007256 -0.019032 -0.000606
v 0.004805 -0.019276 -0.004947
v -0.005493 -0.018888 -0.004669
v 0.002687 -0.018925 -0.006383
v -0.005089 -0.017146 0.004685
v -0.001863 -0.016278 -0.006763
v -0.003229 -0.016581 0.006400
v 0.006429 -0.016829 0.001571
v -0.006263 -0.016640 0.002382
v -0.004994 -0.016406 -0.004809
v -0.001601 -0.015345 0.007193
v 0.005966 -0.016625 -0.002624
v -0.006584 -0.016528 -0.001991
v 0.003768 -0.016649 -0.005378
v 0.002032 -0.016670 -0.006486
v 0.003329 -0.016554 0.006425
v -0.005324 -0.015115 0.004609
v 0.002586 -0.014090 -0.006491
v -0.006605 -0.015019 0.002318
v -0.007053 -0.013801 -0.000612
v 0.001395 -0.010716 0.007211
v 0.005584 -0.016675 0.004574
v -0.003241 -0.013454 -0.006395
v 0.000737 -0.011262 -0.007100
v 0.006908 -0.013212 0.000056
v -0.006374 -0.014167 -0.003173
v 0.006288 -0.012792 -0.002655
v 0.005153 -0.014965 -0.004348
v -0.004257 -0.012071 0.005649
v -0.005057 -0.011623 -0.005022
v 0.005151 -0.012399 0.005045
v -0.001264 -0.009979 0.007286
v 0.006206 -0.012855 0.003415
v -0.006994 -0.010394 -0.001781
v 0.004632 -0.012530 -0.005044
v 0.003488 -0.011015 0.006330
v -0.001079 -0.010527 -0.007064
v 0.002729 -0.010400 -0.006526
v -0.004324 -0.010676 -0.005789
v -0.006433 -0.011746 0.002703
v 0.007004 -0.010363 -0.001037
v 0.005059 -0.010707 -0.004893
v 0.006937 -0.010686 0.001427
v -0.005839 -0.010467 0.004190
v 0.005766 -0.010234 0.004520
v -0.003511 -0.009916 0.006233
v -0.007197 -0.010066 0.000713
v -0.006290 -0.009962 -0.003604
v -0.005652 -0.009115 0.004147
v -0.004991 -0.007458 -0.004838
v 0.004764 -0.006537 -0.004772
v 0.000689 -0.007740 -0.006963
v 0.003471 -0.006851 0.006357
v 0.001180 -0.007637 0.007283
v -0.006553 -0.007589 0.001876
v 0.005144 -0.007147 0.005044
v -0.001248 -0.007625 -0.006857
v 0.006019 -0.006949 0.003795
v 0.006837 -0.008253 0.000610
v -0.006759 -0.007363 -0.001850
v 0.006202 -0.010513 -0.003163
v 0.002592 -0.007554 -0.006395
v -0.003047 -0.007787 -0.006223
v -0.006994 -0.005383 -0.001353
v -0.003525 -0.006253 0.006249
v 0.006204 -0.005951 -0.002801
v -0.001323 -0.006527 0.007320
v -0.004893 -0.004045 0.004859
v 0.006848 -0.005484 0.000524
v -0.006296 -0.004091 0.002469
v -0.005042 -0.005388 -0.004882
v 0.005734 -0.002899 0.004493
v -0.001115 -0.002957 0.007311
v 0.001383 -0.002662 0.007207
v 0.002643 -0.003000 -0.006281
v 0.000649 -0.003450 -0.006765
v 0.003483 -0.002315 0.006414
v -0.002127 -0.003086 -0.006588
v 0.005970 -0.003805 0.003600
v -0.002508 -0.002832 0.006897
v 0.006488 -0.004295 -0.000054
v -0.006561 -0.003945 -0.001912
v 0.005901 -0.004282 -0.002759
v -0.004837 -0.003575 -0.004821
v 0.003645 -0.004325 -0.005506
v 0.006928 -0.002165 0.000558
v 0.006261 -0.002442 -0.002853
v -0.007091 -0.001465 -0.000793
v -0.004786 -0.001582 0.005416
v -0.006682 -0.001619 0.002537
v -0.003532 -0.001738 -0.006100
v 0.000787 -0.001535 -0.006965
v 0.004694 -0.002367 -0.004954
v 0.006069 -0.000064 0.003645
v 0.002447 0.000321 -0.006444
v 0.000861 0.002066 0.007156
v -0.005853 -0.001488 -0.004079
v 0.003343 0.001602 0.006303
v -0.002629 0.000291 -0.006493
v -0.004777 -0.000195 0.005076
v 0.006550 -0.000049 -0.001570
v 0.004467 -0.000285 -0.004844
v -0.006492 -0.000182 -0.002228
v -0.004948 -0.000157 -0.004830
v -0.001892 0.000755 0.006989
v -0.006497 -0.000118 0.002165
v -0.004841 0.004794 0.005026
v 0.000556 0.002453 -0.007032
v 0.006316 0.002853 -0.002616
v 0.006857 0.002599 0.000515
v -0.006689 0.001127 -0.002107
v -0.005003 0.001442 -0.004906
v 0.005709 0.001752 0.004380
v -0.006372 0.004507 0.002590
v -0.006875 0.004703 -0.000182
v -0.006692 0.004662 -0.002104
v -0.003083 0.001907 -0.006297
v -0.001873 0.004730 -0.006698
v 0.005045 0.005680 0.005166
v -0.001155 0.005016 0.007185
v 0.004743 0.002637 -0.004895
v -0.006162 0.003025 -0.003301
v 0.002647 0.003559 -0.006469
v -0.004905 0.004428 -0.005035
v -0.003248 0.005262 0.006296
v 0.006027 0.005805 0.003708
v 0.001101 0.003917 0.007207
v 0.006796 0.004584 0.000453
v 0.006180 0.004451 -0.002373
v 0.004571 0.004609 -0.004729
v 0.000583 0.005532 -0.006966
v 0.002536 0.005559 -0.006475
v -0.004932 0.006870 0.005056
v -0.006323 0.006481 0.003000
v 0.003449 0.006187 0.006393
v 0.001511 0.005533 0.007074
v 0.006974 0.006171 0.000254
v -0.002071 0.005950 -0.006694
v -0.006342 0.008508 -0.002763
v -0.005023 0.008372 -0.004873
v 0.006216 0.006268 -0.002846
v 0.004847 0.006018 -0.004867
v 0.005760 0.008135 0.004472
v -0.003023 0.009097 0.006456
v -0.000900 0.010021 0.007139
v -0.006911 0.007724 -0.000933
v 0.006294 0.010858 0.002257
v 0.002298 0.009869 -0.006347
v -0.002809 0.008736 -0.006190
v -0.006392 0.008858 0.002325
v 0.000162 0.008911 -0.006964
v 0.003358 0.010500 0.006323
v -0.004929 0.009516 0.004881
v 0.003939 0.010405 -0.005177
v -0.004786 0.010699 -0.004563
v -0.002743 0.010778 -0.006119
v 0.005330 0.010770 0.004626
v -0.001588 0.011132 0.006955
v 0.006425 0.011303 -0.000627
v -0.006279 0.011028 0.001721
v 0.000705 0.010396 -0.006755
v -0.006329 0.010936 -0.001971
v 0.001119 0.010717 0.007103
v 0.005156 0.010730 -0.003834
v -0.004931 0.012021 0.004932
v -0.000781 0.013634 -0.006954
v -0.003624 0.012298 0.006042
v 0.006444 0.013680 -0.002236
v 0.006374 0.012368 0.002963
v -0.006404 0.012476 0.002468
v -0.006758 0.012119 -0.001049
v 0.003127 0.012214 0.006589
v 0.002590 0.013985 -0.006387
v -0.005236 0.012334 -0.004641
v -0.003061 0.017711 -0.006313
v 0.005154 0.012520 0.005021
v 0.006020 0.014788 0.003656
v 0.000254 0.017601 -0.007143
v -0.006785 0.013766 0.000473
v 0.006926 0.014858 0.000370
v 0.000858 0.017173 0.007167
v -0.003663 0.017738 0.005933
v -0.001289 0.017501 0.007019
v 0.004545 0.013946 -0.005019
v -0.006494 0.012876 -0.002460
v -0.005060 0.015114 -0.004877
v 0.003420 0.017407 0.006325
v 0.006113 0.015659 -0.003039
v -0.006901 0.015972 -0.000295
v -0.006369 0.017039 0.002565
v 0.005879 0.017256 0.004237
v -0.005024 0.017285 0.004852
v 0.007026 0.016548 0.000485
v 0.004669 0.017766 -0.005025
v 0.006591 0.018227 -0.001614
v 0.002490 0.017952 -0.006559
v -0.006796 0.018370 0.001181
v -0.006458 0.018278 -0.002709
v -0.004973 0.018076 -0.005023
v -0.004769 0.019450 0.004729
v 0.005186 0.019824 0.004569
v 0.000611 0.019623 -0.006666
v 0.006561 0.019484 0.001350
v -0.001719 0.019815 0.006717
v -0.004509 0.019933 -0.004565
v -0.002581 0.020152 -0.005783
v 0.006105 0.019902 -0.000780
v 0.005055 0.019373 -0.004042
v -0.006107 0.019415 0.002025
v 0.002111 0.020069 -0.006376
v -0.006338 0.019441 -0.001752
v -0.004726 0.021636 0.005252
v 0.002888 0.021076 0.006627
v 0.006701 0.022124 0.001354
v 0.004670 0.021714 -0.004645
v 0.004782 0.021470 0.005364
v -0.003922 0.021516 -0.005394
v -0.000594 0.021435 -0.006683
v -0.001459 0.021555 0.007022
v 0.000682 0.021129 0.007145
v 0.006053 0.021320 0.003487
v 0.006572 0.022541 -0.000871
v -0.006524 0.021800 -0.002068
v -0.005182 0.021512 -0.004275
v 0.003138 0.023514 0.006642
v -0.004803 0.024818 0.004797
v -0.002866 0.025062 0.006212
v -0.000745 0.023903 -0.006509
v 0.000770 0.024223 -0.006649
v -0.006337 0.022840 0.001993
v 0.006240 0.024621 0.002532
v 0.004948 0.024424 -0.004227
v 0.002193 0.023591 -0.006275
v -0.004951 0.024562 -0.004163
v -0.003839 0.023604 -0.005438
v 0.005136 0.024355 0.004635
v 0.006376 0.025599 -0.000544
v -0.006305 0.024276 -0.001805
v 0.002166 0.023996 0.006949
v -0.000383 0.024295 0.007055
v -0.006164 0.027712 0.001706
v 0.003724 0.027449 0.005888
v 0.005134 0.027434 0.004558
v -0.002923 0.025372 -0.005259
v 0.001143 0.027379 0.007042
v 0.006435 0.027405 0.001726
v 0.005351 0.026209 -0.003936
v 0.001520 0.026400 -0.006401
v 0.003867 0.026320 -0.005359
v -0.003879 0.027928 -0.004491
v -0.004986 0.027504 0.004535
v -0.003012 0.027649 -0.005201
v -0.001739 0.027728 0.006640
v 0.000452 0.027649 -0.006350
v 0.006737 0.027784 -0.000490
v -0.005586 0.027632 -0.002135
v -0.006108 0.027623 -0.000566
v 0.004680 0.027767 -0.004548
v -0.004466 0.027744 -0.002912
v 0.002785 0.028806 -0.001850
v 0.002798 0.028576 0.004989
v -0.001850 0.028776 0.004781
v -0.004485 0.028732 0.003531
v -0.005189 0.028580 0.000680
v -0.001037 0.028841 -0.001227
v 0.001067 0.028419 0.006152
v 0.000225 0.028637 -0.005238
v 0.006002 0.028402 0.000181
v 0.003914 0.028390 -0.004003
v 0.000056 0.029192 0.001324
vn 0.1806 -0.1768 0.9675
vn -0.3032 -0.5562 0.7737
vn 0.3172 -0.7092 0.6297
vn -0.5811 -0.1063 0.8069
vn -0.6708 -0.5395 0.5088
vn -0.2568 -0.1194 0.9591
vn -0.9113 -0.0837 0.4031
vn -0.9781 -0.1997 -0.0591
vn -0.7344 -0.6649 0.1362
vn 0.5846 -0.4139 0.6978
vn -0.7943 0.0075 0.6075
vn -0.5859 0.0341 0.8097
vn -0.9184 0.0955 0.3839
vn -0.9448 0.0038 0.3276
vn -0.9938 0.0794 -0.0782
vn -0.9988 0.0399 -0.0282
vn -0.5549 0.0211 0.8316
vn -0.1949 -0.0055 0.9808
vn -0.6458 0.0071 0.7635
vn -0.2778 0.0356 0.9600
vn 0.1414 0.0141 0.9899
vn -0.7789 -0.0350 0.6262
vn -0.9242 -0.0278 0.3808
vn -0.9564 -0.1227 0.2652
vn -0.9950 -0.0879 -0.0482
vn 0.2349 -0.0130 0.9719
vn 0.5136 0.0337 0.8574
vn 0.5103 0.0220 0.8597
vn -0.5363 -0.0139 0.8439
vn -0.8239 0.0899 0.5596
vn -0.8155 0.0022 0.5787
vn -0.9893 0.0605 0.1327
vn -0.9726 0.0402 -0.2289
vn -0.8610 -0.0637 -0.5046
vn -0.9755 0.0061 -0.2198
vn -0.7216 0.0606 -0.6896
vn -0.5880 -0.0139 0.8087
vn -0.7626 -0.0232 0.6464
vn -0.9810 0.0943 -0.1693
vn -0.9638 0.0451 0.2630
vn -0.9360 -0.0443 0.3493
vn -0.2213 -0.0190 0.9750
vn 0.1876 -0.0133 0.9822
vn 0.2214 0.0183 0.9750
vn 0.5114 -0.0049 0.8593
vn 0.2325 0.0339 0.9720
vn -0.1998 0.0107 0.9798
vn 0.1664 -0.0127 0.9860
vn 0.4887 -0.0018 0.8724
vn 0.7239 0.0013 0.6900
vn -0.5069 0.0998 0.8562
vn -0.1240 0.0609 0.9904
vn -0.5329 -0.0148 0.8461
vn -0.9195 0.0266 0.3922
vn -0.9959 0.0733 -0.0523
vn -0.9991 -0.0154 0.0399
vn -0.2946 0.0525 0.9542
vn -0.7706 0.0656 0.6339
vn -0.9799 -0.0265 0.1979
vn -0.9482 0.0996 0.3016
vn -0.4007 -0.0313 -0.9157
vn -0.7159 -0.1094 -0.6896
vn -0.7184 -0.0079 -0.6956
vn -0.3815 0.1418 -0.9134
vn 0.9318 -0.0741 -0.3553
vn 0.9987 -0.0410 0.0299
vn 0.9899 -0.0537 -0.1313
vn 0.6508 -0.0685 -0.7562
vn 0.8295 -0.0344 -0.5574
vn 0.6687 -0.0108 -0.7435
vn 0.4191 -0.0272 -0.9075
vn 0.0889 0.0005 -0.9960
vn -0.1546 -0.0639 -0.9859
vn 0.0116 0.1098 -0.9939
vn 0.7811 -0.0078 0.6244
vn 0.8305 0.0414 0.5555
vn 0.9947 0.0656 0.0791
vn 0.9993 -0.0016 0.0366
vn 0.9437 0.1730 -0.2819
vn -0.9010 0.2419 -0.3600
vn -0.9999 -0.0082 -0.0076
vn -0.9568 0.2387 0.1661
vn -0.2544 -0.0739 0.9643
vn -0.7256 -0.0448 0.6867
vn -0.3630 -0.0244 0.9315
vn 0.0646 -0.0401 0.9971
vn -0.9482 0.1231 0.2930
vn -0.7599 0.0029 0.6500
vn -0.4868 0.0559 0.8717
vn -0.1339 0.0664 0.9888
vn -0.7617 0.0730 0.6438
vn -0.9726 0.0038 0.2326
vn -0.9591 -0.0369 -0.2806
vn -0.9629 0.1425 -0.2290
vn 0.3032 0.0818 0.9494
vn 0.5024 0.1805 0.8456
vn -0.8575 0.4937 0.1449
vn -0.8552 0.5091 -0.0972
vn 0.1470 0.3628 0.9202
vn 0.5131 0.3597 0.7794
vn -0.2284 0.5123 0.8279
vn -0.7566 0.3422 0.5571
vn 0.9066 0.0024 -0.4221
vn 0.9151 0.1257 -0.3831
vn 0.7029 0.0753 -0.7072
vn 0.6605 -0.0062 -0.7508
vn 0.4323 0.0252 -0.9014
vn 0.4133 0.0047 -0.9106
vn 0.1276 0.0291 -0.9914
vn 0.0682 -0.0350 -0.9971
vn 0.8982 -0.0225 -0.4391
vn 0.9979 -0.0189 0.0625
vn 0.9963 0.0437 -0.0742
vn 0.6509 0.0198 -0.7589
vn -0.3648 0.0353 -0.9304
vn -0.5048 -0.0535 -0.8616
vn -0.7225 0.0070 -0.6913
vn -0.2733 -0.0313 -0.9614
vn -0.9376 -0.0203 0.3472
vn -0.7272 0.0820 0.6815
vn -0.7266 -0.0435 0.6857
vn -0.2985 0.0371 0.9537
vn -0.9639 0.0828 0.2532
vn -0.9616 -0.0759 -0.2638
vn 0.4243 -0.0268 0.9051
vn 0.5023 0.0051 0.8647
vn 0.9010 -0.0272 0.4330
vn 0.9974 0.0020 0.0717
vn 0.9722 0.0626 -0.2257
vn 0.9177 0.0879 0.3874
vn 0.8265 0.0992 0.5541
vn 0.6590 -0.0141 0.7520
vn 0.9931 0.0722 0.0927
vn 0.9930 0.0670 0.0978
vn -0.9680 -0.0178 -0.2505
vn -0.7525 0.0056 -0.6585
vn -0.7103 0.0136 -0.7038
vn -0.4491 0.0236 0.8932
vn -0.1167 0.0111 0.9931
vn -0.9549 -0.0040 -0.2970
vn -0.9924 0.0980 -0.0738
vn 0.8542 0.0277 0.5193
vn 0.5042 0.0004 0.8636
vn 0.8352 -0.0562 0.5470
vn 0.9566 0.0042 0.2915
vn 0.9652 0.0222 -0.2605
vn -0.9498 0.0833 -0.3014
vn -0.8078 0.0264 -0.5888
vn -0.4134 0.0536 -0.9090
vn -0.5473 0.0162 -0.8368
vn 0.7110 -0.0211 -0.7029
vn 0.9076 0.0066 -0.4197
vn -0.8633 0.1380 -0.4855
vn -0.9591 0.0147 -0.2828
vn -0.7121 -0.0584 -0.6996
vn -0.3878 0.1341 -0.9119
vn -0.7025 0.0263 -0.7112
vn 0.0669 -0.0213 -0.9975
vn -0.3001 -0.0097 -0.9539
vn 0.0679 0.0407 -0.9969
vn 0.4341 0.0420 -0.8999
vn 0.7841 -0.0610 -0.6176
vn 0.4678 -0.0049 -0.8838
vn -0.9852 -0.1448 -0.0921
vn -0.9284 -0.1555 0.3374
vn -0.9945 -0.0455 0.0948
vn 0.4476 -0.0499 0.8928
vn 0.1159 0.0365 0.9926
vn 0.1327 -0.0118 0.9911
vn 0.7721 -0.0993 0.6277
vn -0.9344 -0.0405 -0.3540
vn 0.7874 -0.0209 -0.6160
vn 0.1253 0.0722 -0.9895
vn 0.2531 0.1025 -0.9620
vn 0.4736 0.0210 -0.8805
vn -0.2640 0.1205 -0.9570
vn 0.8438 0.0502 -0.5342
vn -0.1588 0.9284 0.3359
vn 0.0488 0.8577 0.5118
vn 0.2716 0.8961 0.3510
vn 0.7665 0.4251 0.4815
vn 0.4906 0.8711 0.0218
vn 0.0972 0.9928 -0.0694
vn 0.9287 0.2575 0.2668
vn 0.9267 0.3245 -0.1896
vn -0.4135 0.9090 -0.0533
vn -0.6534 0.6146 -0.4419
vn -0.1007 0.9892 -0.1064
vn -0.1354 0.9886 -0.0662
vn -0.5055 0.6883 -0.5204
vn -0.0365 0.8953 -0.4440
vn 0.9979 -0.0286 0.0576
vn 0.9255 -0.0010 0.3787
vn 0.9482 -0.0998 0.3017
vn -0.7108 0.1583 -0.6854
vn 0.8829 -0.0065 -0.4695
vn 0.6997 0.1035 -0.7069
vn 0.4241 0.0688 -0.9030
vn -0.7360 0.0241 -0.6765
vn 0.9900 0.1384 0.0260
vn 0.9966 0.0700 0.0429
vn 0.9517 0.0276 0.3057
vn 0.9873 -0.0774 -0.1389
vn -0.7309 0.1799 -0.6584
vn -0.5108 -0.0907 -0.8549
vn -0.1974 0.0464 -0.9792
vn 0.0571 -0.0847 -0.9948
vn 0.1567 0.0437 -0.9867
vn -0.2607 -0.0112 -0.9653
vn 0.9405 0.0732 -0.3317
vn 0.9189 0.0307 -0.3933
vn 0.6922 0.0140 -0.7215
vn 0.4555 -0.0008 -0.8903
vn 0.3172 -0.0018 -0.9484
vn 0.6549 0.0100 -0.7557
vn 0.1359 -0.0249 0.9904
vn 0.1192 -0.0235 -0.9926
vn 0.7029 0.0475 -0.7097
vn 0.4428 -0.0406 -0.8957
vn 0.9049 -0.0437 -0.4235
vn 0.7056 -0.0887 -0.7030
vn 0.8180 0.0056 0.5752
vn 0.4880 -0.0204 0.8726
vn 0.8433 -0.0337 0.5364
vn 0.9840 -0.0167 0.1773
vn 0.9993 -0.0359 -0.0054
vn -0.9601 -0.0222 -0.2788
vn -0.9041 0.1129 -0.4121
vn -0.6954 0.0848 -0.7136
vn -0.7200 -0.0170 -0.6938
vn 0.4310 0.0022 -0.9023
vn 0.7255 -0.0577 0.6858
vn 0.9683 -0.0163 -0.2494
vn -0.9498 0.1881 -0.2501
vn -0.6916 0.0592 -0.7199
vn -0.6960 -0.0499 -0.7163
vn -0.4818 -0.0960 -0.8710
vn -0.1842 -0.0331 -0.9823
vn 0.8113 0.0788 -0.5793
vn 0.7048 -0.0209 -0.7091
vn 0.3677 0.0183 -0.9298
vn 0.3920 0.2125 -0.8951
vn -0.3817 0.4704 -0.7956
vn -0.4555 0.1343 -0.8801
vn 0.0275 0.4832 -0.8751
vn 0.7625 -0.4681 0.4466
vn 0.6228 -0.1527 0.7673
vn 0.8784 -0.1404 0.4569
vn 0.9767 -0.0801 0.1989
vn 0.9154 -0.3846 0.1188
vn 0.9772 -0.1551 -0.1448
vn -0.8799 -0.2170 -0.4227
vn -0.9964 -0.0396 -0.0753
vn -0.8101 -0.0203 -0.5860
vn -0.7298 -0.1371 -0.6698
vn -0.7762 0.0310 0.6297
vn -0.2881 -0.0197 0.9574
vn -0.9594 0.0455 0.2782
vn 0.3763 -0.0236 0.9262
vn 0.6762 0.0106 0.7367
vn 0.9320 -0.0531 0.3587
vn 0.9934 -0.1086 -0.0370
vn -0.8827 -0.0599 -0.4661
vn -0.7540 -0.0339 -0.6560
vn 0.9804 0.0006 0.1972
vn 0.9675 0.1117 -0.2270
vn 0.6922 -0.0539 0.7197
vn 0.9124 0.0012 0.4093
vn 0.9752 -0.0011 0.2213
vn -0.6932 -0.0254 -0.7203
vn 0.9240 -0.0035 0.3824
vn -0.3987 0.0374 -0.9163
vn 0.0289 0.0717 -0.9970
vn 0.7713 0.0397 0.6352
vn 0.5204 0.5118 -0.6835
vn 0.0097 0.9999 0.0030
vn -0.5987 -0.0144 -0.8009
vn -0.5082 -0.7069 -0.4919
vn 0.0513 -0.5417 -0.8390
vn -0.0575 -0.0384 -0.9976
vn 0.3207 -0.6795 -0.6599
vn 0.7333 -0.6572 -0.1742
vn 0.7864 -0.5197 0.3339
vn 0.4439 -0.8725 0.2041
vn 0.5068 -0.6103 -0.6088
vn 0.8271 -0.0391 -0.5607
vn 0.2700 -0.1664 -0.9484
vn 0.5146 -0.7908 0.3315
vn 0.3570 -0.9212 0.1551
vn -0.7103 -0.6529 -0.2631
vn -0.2970 -0.0371 -0.9542
vn 0.9124 -0.2587 -0.3171
vn 0.5909 -0.0752 -0.8032
vn 0.9982 -0.0046 0.0604
vn -0.6971 0.0094 -0.7170
vn -0.9248 0.0182 -0.3801
vn -0.5636 0.1396 -0.8142
vn 0.1027 -0.9380 0.3311
vn 0.1715 -0.9850 0.0191
vn 0.0170 -0.9998 0.0065
vn -0.2579 -0.9658 -0.0271
vn -0.1420 -0.9624 -0.2318
vn 0.0812 -0.9643 -0.2519
vn -0.7789 -0.0591 0.6243
vn -0.3660 0.0599 -0.9287
vn 0.0316 0.1029 -0.9942
vn 0.4778 -0.2093 0.8532
vn -0.4009 0.8703 0.2861
vn -0.4663 0.0747 -0.8814
vn 0.9051 0.0356 -0.4237
vn 0.6717 -0.0008 -0.7408
vn 0.4281 -0.0174 -0.9036
vn -0.4903 -0.0022 -0.8716
vn 0.7848 -0.1201 -0.6080
vn 0.9104 -0.0570 -0.4097
vn 0.4180 -0.0677 -0.9059
vn 0.6781 -0.0599 -0.7326
vn -0.1689 0.0249 -0.9853
vn 0.4327 -0.0073 -0.9015
vn 0.1342 -0.0005 -0.9910
vn -0.7473 -0.0415 0.6632
vn -0.7694 0.0598 0.6360
vn -0.5585 0.0705 0.8265
vn -0.2501 0.0643 0.9661
vn -0.9283 0.0522 0.3682
vn 0.8147 -0.0465 0.5780
vn 0.2402 -0.9664 -0.0915
vn 0.9089 0.0533 -0.4135
vn -0.5398 -0.1592 0.8266
vn -0.7504 0.0146 0.6608
vn -0.2142 -0.9655 0.1483
vn 0.9991 -0.0351 0.0230
vn 0.9190 0.0066 -0.3942
vn 0.7270 -0.0174 -0.6865
vn -0.6853 0.0493 0.7266
vn -0.9454 0.0217 0.3252
vn 0.2689 0.9091 -0.3183
vn -0.3037 -0.0067 -0.9527
vn -0.1930 0.0488 -0.9800
vt 0.275553 0.866630
vt 0.322599 0.935756
vt 0.278942 0.934919
vt 0.350783 0.868948
vt 0.370848 0.936862
vt 0.317263 0.868702
vt 0.036774 0.867704
vt 0.087150 0.889123
vt 0.075039 0.939187
vt 0.230691 0.906764
vt 0.382606 0.829616
vt 0.352195 0.786236
vt 0.012990 0.831881
vt 0.034754 0.779721
vt 0.042609 0.831407
vt 0.086236 0.789938
vt 0.085748 0.832231
vt 0.348640 0.745486
vt 0.318222 0.635366
vt 0.368536 0.671547
vt 0.321430 0.724209
vt 0.277112 0.767135
vt 0.011692 0.724712
vt 0.037752 0.669173
vt 0.042789 0.723312
vt 0.087781 0.703466
vt 0.274150 0.646369
vt 0.240538 0.742116
vt 0.240565 0.650524
vt 0.408053 0.667628
vt 0.385970 0.722498
vt 0.356537 0.635503
vt 0.394671 0.623566
vt 0.397080 0.645980
vt 0.066444 0.641581
vt 0.016695 0.647890
vt 0.018339 0.625555
vt 0.109543 0.597191
vt 0.139255 0.640355
vt 0.107085 0.647278
vt 0.164815 0.599145
vt 0.358420 0.574974
vt 0.383624 0.539335
vt 0.100818 0.564392
vt 0.050900 0.600542
vt 0.042936 0.542651
vt 0.320724 0.578354
vt 0.279011 0.595582
vt 0.278027 0.513293
vt 0.242701 0.581720
vt 0.279813 0.377832
vt 0.323387 0.387545
vt 0.285687 0.404702
vt 0.248751 0.442104
vt 0.223911 0.374146
vt 0.356917 0.321065
vt 0.321534 0.304737
vt 0.359066 0.384561
vt 0.035530 0.367830
vt 0.095938 0.347681
vt 0.083767 0.397543
vt 0.333599 0.286709
vt 0.390397 0.315257
vt 0.011804 0.317519
vt 0.056647 0.292794
vt 0.046274 0.328597
vt 0.814122 0.542552
vt 0.792756 0.503624
vt 0.814122 0.462963
vt 0.167666 0.226004
vt 0.199451 0.183304
vt 0.196950 0.297901
vt 0.454250 0.244077
vt 0.496433 0.223379
vt 0.481762 0.282698
vt 0.409737 0.241516
vt 0.430059 0.293948
vt 0.745346 0.287251
vt 0.718964 0.228625
vt 0.754966 0.228595
vt 0.687922 0.288336
vt 0.662530 0.235088
vt 0.677955 0.169412
vt 0.769221 0.281331
vt 0.565199 0.140239
vt 0.560161 0.182556
vt 0.511100 0.146668
vt 0.497583 0.195356
vt 0.462631 0.168638
vt 0.127428 0.173414
vt 0.086727 0.211254
vt 0.063880 0.171456
vt 0.336158 0.114413
vt 0.392153 0.114820
vt 0.340010 0.143321
vt 0.300525 0.120464
vt 0.053475 0.154129
vt 0.016034 0.153315
vt 0.008113 0.117123
vt 0.361917 0.057213
vt 0.319630 0.068638
vt 0.395408 0.062340
vt 0.053377 0.097498
vt 0.015408 0.064560
vt 0.117302 0.115114
vt 0.114311 0.074174
vt 0.277607 0.072470
vt 0.261736 0.080038
vt 0.059258 0.016996
vt 0.095759 0.018717
vt 0.295907 0.017009
vt 0.254779 0.014880
vt 0.344055 0.012589
vt 0.399965 0.018078
vt 0.019113 0.020176
vt 0.787633 0.529045
vt 0.792756 0.556588
vt 0.763361 0.567053
vt 0.742464 0.530862
vt 0.723238 0.584640
vt 0.723520 0.509331
vt 0.690611 0.588163
vt 0.689736 0.517196
vt 0.450510 0.510780
vt 0.506175 0.504564
vt 0.453078 0.541271
vt 0.497262 0.540158
vt 0.417055 0.510964
vt 0.760823 0.498183
vt 0.202231 0.471310
vt 0.191852 0.504772
vt 0.165694 0.478449
vt 0.645151 0.511536
vt 0.623584 0.489331
vt 0.636613 0.455775
vt 0.041643 0.400500
vt 0.008257 0.478036
vt 0.009338 0.395553
vt 0.383218 0.475626
vt 0.333825 0.458315
vt 0.386611 0.393209
vt 0.047371 0.476999
vt 0.114893 0.456872
vt 0.792756 0.412234
vt 0.833310 0.417815
vt 0.792756 0.462963
vt 0.546056 0.115642
vt 0.510008 0.103002
vt 0.476132 0.140805
vt 0.565413 0.776459
vt 0.579210 0.743152
vt 0.596051 0.782794
vt 0.526357 0.781090
vt 0.529017 0.746619
vt 0.111514 0.748716
vt 0.158681 0.788051
vt 0.163335 0.747052
vt 0.342444 0.517891
vt 0.318938 0.519257
vt 0.111767 0.540690
vt 0.091900 0.499555
vt 0.212096 0.438880
vt 0.244520 0.506742
vt 0.568716 0.438722
vt 0.572381 0.515512
vt 0.557008 0.468897
vt 0.470532 0.470610
vt 0.117526 0.478525
vt 0.149671 0.500340
vt 0.195221 0.604804
vt 0.182485 0.652461
vt 0.452785 0.568743
vt 0.421021 0.648608
vt 0.421634 0.579770
vt 0.448591 0.644267
vt 0.136427 0.425643
vt 0.115242 0.398428
vt 0.166850 0.452027
vt 0.197332 0.444548
vt 0.169655 0.402681
vt 0.686219 0.419715
vt 0.647366 0.382341
vt 0.686254 0.368812
vt 0.719482 0.367930
vt 0.758152 0.382839
vt 0.721699 0.400970
vt 0.098946 0.275036
vt 0.044344 0.268783
vt 0.074720 0.247644
vt 0.256812 0.266791
vt 0.295791 0.185762
vt 0.288614 0.292332
vt 0.225404 0.261089
vt 0.254665 0.180896
vt 0.122682 0.262683
vt 0.761901 0.055124
vt 0.686562 0.059753
vt 0.699077 0.023584
vt 0.740445 0.024268
vt 0.662469 0.065220
vt 0.768993 0.025488
vt 0.895999 0.026680
vt 0.949436 0.026338
vt 0.967322 0.055666
vt 0.987985 0.049063
vt 1.000000 0.078765
vt 0.982342 0.150033
vt 0.919830 0.158205
vt 1.000000 0.130277
vt 0.488769 0.000000
vt 0.514308 0.015683
vt 0.477340 0.010214
vt 0.795742 0.078208
vt 0.817674 0.065383
vt 0.792756 0.105363
vt 0.866724 0.122507
vt 0.804163 0.124701
vt 0.801992 0.152374
vt 0.858103 0.191538
vt 0.503665 0.425885
vt 0.551428 0.223520
vt 0.540647 0.263655
vt 0.162843 0.271927
vt 0.216552 0.182629
vt 0.575537 0.260757
vt 0.170710 0.177058
vt 0.440496 0.211828
vt 0.408053 0.178361
vt 0.756209 0.165443
vt 0.716017 0.163118
vt 0.165530 0.564926
vt 0.506967 0.559438
vt 0.509491 0.605154
vt 0.562090 0.014536
vt 0.528854 0.061426
vt 0.477581 0.046475
vt 0.123042 0.018750
vt 0.157803 0.069746
vt 0.168005 0.014177
vt 0.628858 0.854023
vt 0.663107 0.800782
vt 0.681593 0.856234
vt 0.688653 0.794895
vt 0.651506 0.729605
vt 0.463081 0.780255
vt 0.460061 0.745128
vt 0.766000 0.777646
vt 0.727078 0.772569
vt 0.715671 0.735428
vt 0.747307 0.734508
vt 0.791555 0.733008
vt 0.288851 0.435404
vt 0.690966 0.485578
vt 0.418242 0.476599
vt 0.757075 0.463770
vt 0.719174 0.454512
vt 0.447255 0.366870
vt 0.415094 0.372338
vt 0.761921 0.359551
vt 0.222183 0.289992
vt 0.252548 0.295056
vt 0.214075 0.333373
vt 0.569557 0.289765
vt 0.567707 0.333212
vt 0.529638 0.288919
vt 0.497859 0.366931
vt 0.115374 0.294707
vt 0.127682 0.334932
vt 0.167018 0.337451
vt 0.163340 0.298968
vt 0.715165 0.296685
vt 0.264753 0.120446
vt 0.228759 0.140442
vt 0.235226 0.113303
vt 0.578011 0.112878
vt 0.473233 0.097069
vt 0.112782 0.154088
vt 0.165588 0.146329
vt 0.158261 0.120169
vt 0.181520 0.120266
vt 0.614834 0.104836
vt 0.664872 0.106041
vt 0.423331 0.151258
vt 0.418399 0.067920
vt 0.412773 0.112965
vt 0.756623 0.100072
vt 0.710013 0.128127
vt 0.710957 0.069887
vt 0.183026 0.018890
vt 0.630709 0.040916
vt 0.601361 0.054298
vt 0.628994 0.003272
vt 0.681647 0.003091
vt 0.422174 0.038169
vt 0.592364 0.906224
vt 0.571090 0.889340
vt 0.599619 0.863677
vt 0.566935 0.861718
vt 0.526389 0.858393
vt 0.531582 0.895168
vt 0.496143 0.865116
vt 0.126682 0.898716
vt 0.085992 0.861922
vt 0.150575 0.863673
vt 0.158747 0.901552
vt 0.193626 0.869500
vt 0.381085 0.755939
vt 0.323857 0.792499
vt 0.043054 0.750113
vt 0.251572 0.794311
vt 0.213762 0.783335
vt 0.205516 0.743409
vt 0.214048 0.672858
vt 0.585672 0.672462
vt 0.558089 0.680277
vt 0.502223 0.687294
vt 0.131544 0.709825
vt 0.166995 0.668018
vt 0.523841 0.644980
vt 0.482977 0.640631
vt 0.216565 0.586072
vt 0.209425 0.515706
vt 0.562212 0.582609
vt 0.583607 0.585688
vt 0.557794 0.530771
vt 0.165643 0.534961
vt 0.580693 0.373753
vt 0.555790 0.371909
vt 0.629543 0.429067
vt 0.603394 0.387324
vt 0.633845 0.282350
vt 0.632972 0.316136
vt 0.601202 0.322098
vt 0.678760 0.313012
vt 0.231583 0.065589
vt 0.585169 0.014258
vt 0.564559 0.065377
vt 0.412014 0.012916
vt 0.755889 0.000000
vt 0.900568 0.091557
vt 0.187775 0.909826
vt 0.161037 0.939476
vt 0.201387 0.940640
vt 0.629966 0.894287
vt 0.662637 0.891331
vt 0.655757 0.924864
vt 0.704972 0.922949
vt 0.460597 0.933774
vt 0.531603 0.914965
vt 0.515940 0.933318
vt 0.438179 0.938040
vt 0.439374 0.865027
vt 0.705971 0.888955
vt 0.578013 0.932266
vt 0.543683 0.930245
vt 0.942955 0.412234
vt 0.932221 0.377031
vt 0.966538 0.380622
vt 0.097874 0.939298
vt 0.205516 0.890059
vt 0.649415 0.874401
vt 0.461945 0.893727
vt 0.751454 0.854172
vt 0.518400 0.827855
vt 0.163179 0.820701
vt 0.124081 0.822990
vt 0.599619 0.079177
vt 0.182820 0.085752
vt 0.862774 0.412234
vt 0.850686 0.395336
vt 0.875446 0.381354
vt 0.917136 0.407917
vt 0.915158 0.294098
vt 0.962819 0.361607
vt 0.808263 0.279185
vt 0.793813 0.282541
vt 0.805154 0.262334
vt 0.854929 0.221498
vt 0.884684 0.228687
vt 0.949439 0.258672
vt 0.382709 0.866539
vt 0.023218 0.939415
vt 0.012125 0.868786
vt 0.193331 0.142913
vt 0.635672 0.127297
vt 0.626712 0.167864
vt 0.599619 0.161749
vt 0.684838 0.135809
vt 0.765218 0.138540
vt 0.000000 0.674319
vt 0.248989 0.366265
vt 0.847854 0.009373
vt 0.911015 -0.000000
vt 0.847842 0.027328
vt 0.037419 0.000000
vt 0.810531 0.043656
vt 0.298702 -0.000000
vt 0.194667 0.823498
vt 0.635366 0.807938
vt 0.457657 0.830827
vt 0.426101 0.825535
vt 0.764723 0.812879
vt 0.727142 0.805904
vt 0.784015 0.852708
vt 0.196495 0.698500
vt 0.431607 0.718695
vt 0.457793 0.681682
vt 0.724150 0.692706
vt 0.761551 0.666204
vt 0.772665 0.706168
vt 0.662154 0.634514
vt 0.613478 0.637088
vt 0.632274 0.589278
vt 0.768591 0.635966
vt 0.725626 0.631689
vt 0.691661 0.646396
vt 0.233204 0.932596
vt 0.606781 0.731616
vt 0.629712 0.683025
vt 0.416375 0.747459
vt 0.391515 0.273846
vt 0.011264 0.276094
vt 0.395550 0.186918
vt 0.372030 0.178653
vt 0.392484 0.151048
vt 0.331511 0.181331
vt 0.043451 0.193342
vt 0.012736 0.189082
vt 0.205516 0.636903
vt 0.575665 0.636688
vt 0.184076 0.056546
vt 0.615640 0.070319
vt 0.907263 0.212259
vt 0.950876 0.235682
vt 0.970505 0.302400
vt 0.981808 0.284124
vt 0.987866 0.312285
vt 0.423685 0.790299
vt 0.419590 0.678948
vt 0.452317 0.423175
vt 0.368786 0.268508
vt 0.217500 0.864278
vt 0.389033 0.358949
vt 0.008703 0.361237
vt 0.820891 0.397899
vt 0.792756 0.348612
vt 0.815418 0.351553
vt 0.297740 0.948812
vt 0.599619 0.772676
vt 0.011256 0.758285
vt 0.501920 0.393135
vt 0.455816 0.396717
vt 0.416044 0.428245
vt 0.418151 0.395661
vt 0.760819 0.415453
vt 0.382335 0.498483
vt 0.040476 0.501773
vt 0.010791 0.541701
vt 0.002636 0.500917
vt 0.608213 0.130857
vt 0.810236 0.169138
vt 0.854315 0.210258
vt 0.922126 0.198506
vt 0.930186 0.212259
vt 0.989060 0.165467
vt 0.606747 0.519532
vt 0.643925 0.362215
vt 0.758126 0.925364
vt 0.406342 0.778171
vt 0.659485 0.586518
vt 0.205516 0.527157
vt 0.603594 0.549541
s 1
usemtl FusedMaterial
f 47/1/1 5/2/2 4/3/3
f 5/2/2 29/4/4 1/5/5
f 5/2/2 47/1/1 30/6/6
f 31/7/7 33/8/8 7/9/9
f 4/3/3 24/10/10 47/1/1
f 50/11/11 29/4/4 63/12/12
f 50/13/11 69/14/13 57/15/14
f 70/16/15 57/15/14 69/14/13
f 55/17/16 57/15/14 70/16/15
f 76/18/17 101/19/18 98/20/19
f 80/21/20 66/22/21 101/19/18
f 86/23/22 109/24/23 88/25/24
f 109/24/23 89/26/25 88/25/24
f 66/22/21 90/27/26 101/19/18
f 90/27/26 85/28/27 105/29/28
f 98/20/19 109/30/23 86/31/22
f 115/32/29 118/33/30 113/34/31
f 116/35/32 113/36/31 118/37/30
f 129/38/33 117/39/34 103/40/35
f 129/38/33 119/41/36 117/39/34
f 118/33/30 134/42/37 137/43/38
f 133/44/39 124/45/40 139/46/41
f 136/47/42 123/48/43 143/49/44
f 122/50/45 143/49/44 123/48/43
f 205/51/46 189/52/47 196/53/48
f 196/53/48 167/54/49 205/51/46
f 188/55/50 205/51/46 167/54/49
f 213/56/51 189/52/47 214/57/52
f 194/58/53 189/52/47 213/56/51
f 203/59/54 215/60/55 184/61/56
f 227/62/57 213/56/51 214/57/52
f 222/63/58 213/56/51 227/62/57
f 222/64/58 229/65/59 219/66/60
f 215/60/55 219/66/60 229/65/59
f 225/67/61 243/68/62 255/69/63
f 255/70/63 244/71/64 225/72/61
f 237/73/65 249/74/66 228/75/67
f 253/76/68 237/73/65 233/77/69
f 223/78/70 242/79/71 253/80/68
f 230/81/72 235/82/73 247/83/74
f 233/84/69 223/78/70 253/80/68
f 270/85/75 260/86/76 272/87/77
f 260/86/76 262/88/78 272/87/77
f 264/89/79 272/87/77 262/88/78
f 267/90/80 258/91/81 266/92/82
f 288/93/83 281/94/84 273/95/85
f 288/93/83 273/95/85 289/96/86
f 278/97/87 269/98/88 281/99/84
f 296/100/89 288/93/83 309/101/90
f 288/93/83 289/96/86 309/101/90
f 281/94/84 296/100/89 295/102/91
f 299/103/92 281/99/84 295/104/91
f 292/105/93 299/103/92 307/106/94
f 309/101/90 289/96/86 308/107/95
f 308/107/95 289/96/86 294/108/96
f 295/104/91 310/109/97 299/103/92
f 310/109/97 326/110/98 307/106/94
f 309/101/90 308/107/95 314/111/99
f 314/111/99 308/107/95 311/112/100
f 296/100/89 309/101/90 322/113/101
f 314/111/99 322/113/101 309/101/90
f 320/114/102 295/102/91 296/100/89
f 310/109/97 295/104/91 320/115/102
f 152/116/103 135/117/104 120/118/105
f 154/119/106 131/120/107 144/121/108
f 154/119/106 120/118/105 131/120/107
f 144/121/108 121/122/109 145/123/110
f 131/120/107 121/122/109 144/121/108
f 156/124/111 155/125/112 152/126/103
f 155/125/112 150/127/113 152/126/103
f 156/124/111 152/126/103 162/128/114
f 162/129/114 154/119/106 144/121/108
f 152/116/103 154/119/106 162/129/114
f 168/130/115 160/131/116 173/132/117
f 147/133/118 160/134/116 168/135/115
f 183/136/119 169/137/120 176/138/121
f 169/139/120 174/140/122 176/141/121
f 175/142/123 169/137/120 183/136/119
f 180/143/124 175/142/123 184/61/56
f 270/144/75 282/145/125 256/146/126
f 270/85/75 272/87/77 290/147/127
f 290/147/127 272/87/77 283/148/128
f 283/148/128 272/87/77 276/149/129
f 67/150/130 91/151/131 51/152/132
f 67/150/130 64/153/133 77/154/134
f 82/155/135 72/156/136 70/16/15
f 79/157/137 72/156/136 82/155/135
f 149/158/138 136/47/42 142/159/139
f 151/160/140 139/46/41 157/161/141
f 136/47/42 143/49/44 142/159/139
f 182/162/142 167/54/49 146/163/143
f 182/164/142 141/165/144 163/166/145
f 163/166/145 155/125/112 170/167/146
f 172/168/147 166/169/148 157/161/141
f 172/168/147 173/132/117 166/169/148
f 160/131/116 166/169/148 173/132/117
f 119/41/36 132/170/149 108/171/150
f 135/172/104 111/173/151 120/174/105
f 130/175/152 111/173/151 135/172/104
f 167/54/49 182/162/142 188/55/50
f 191/176/153 180/143/124 185/177/154
f 181/178/155 180/143/124 191/176/153
f 186/179/156 181/178/155 193/180/157
f 177/181/158 187/182/159 200/183/160
f 201/184/161 199/185/162 192/186/163
f 192/186/163 177/181/158 200/183/160
f 200/183/160 201/184/161 192/186/163
f 240/187/164 239/188/165 248/189/166
f 241/190/167 250/191/168 232/192/169
f 245/193/170 256/194/126 241/190/167
f 254/195/171 248/189/166 258/91/81
f 255/70/63 254/195/171 267/90/80
f 301/196/172 298/197/173 317/198/174
f 318/199/175 301/196/172 317/198/174
f 297/200/176 317/198/174 298/197/173
f 316/201/177 301/196/172 318/199/175
f 322/113/101 320/114/102 296/100/89
f 331/202/178 335/203/179 330/204/180
f 335/203/179 311/205/100 330/204/180
f 330/204/180 311/205/100 312/206/181
f 337/207/182 329/208/183 330/204/180
f 330/204/180 312/206/181 337/207/182
f 337/207/182 312/206/181 315/209/184
f 337/210/182 315/211/184 324/212/185
f 326/213/98 333/214/186 325/215/187
f 325/215/187 334/216/188 328/217/189
f 333/214/186 334/216/188 325/215/187
f 328/217/189 334/216/188 319/218/190
f 319/218/190 334/216/188 336/219/191
f 163/166/145 179/220/192 182/164/142
f 185/177/154 180/143/124 184/61/56
f 186/179/156 168/130/115 181/178/155
f 246/221/193 238/222/194 249/74/66
f 254/195/171 255/70/63 243/223/62
f 256/194/126 245/193/170 260/224/76
f 245/225/170 246/221/193 260/86/76
f 260/86/76 249/74/66 262/88/78
f 246/221/193 249/74/66 260/86/76
f 244/71/64 255/70/63 268/226/195
f 262/88/78 257/227/196 264/89/79
f 263/228/197 264/89/79 257/227/196
f 263/229/197 242/79/71 265/230/198
f 247/83/74 265/230/198 242/79/71
f 132/170/149 119/41/36 140/231/199
f 138/232/200 130/175/152 135/172/104
f 128/233/201 130/175/152 138/232/200
f 312/234/181 300/235/202 315/211/184
f 300/235/202 306/236/203 315/211/184
f 315/211/184 306/236/203 324/212/185
f 326/110/98 325/237/187 307/106/94
f 303/238/204 307/106/94 325/237/187
f 319/239/190 303/238/204 325/237/187
f 41/240/205 49/241/206 43/242/207
f 53/243/208 49/241/206 75/244/209
f 77/154/134 65/245/210 81/246/211
f 71/247/212 73/248/213 84/249/214
f 84/249/214 83/250/215 71/247/212
f 84/249/214 53/243/208 75/244/209
f 73/248/213 53/243/208 84/249/214
f 83/250/215 81/251/211 71/247/212
f 174/140/122 189/52/47 194/58/53
f 189/52/47 165/252/216 196/53/48
f 176/141/121 174/140/122 194/58/53
f 161/253/217 147/133/118 168/135/115
f 155/125/112 156/124/111 170/167/146
f 156/124/111 162/128/114 171/254/218
f 171/254/218 170/167/146 156/124/111
f 171/255/218 144/121/108 164/256/219
f 162/129/114 144/121/108 171/255/218
f 144/121/108 161/253/217 164/256/219
f 210/257/220 211/258/221 233/77/69
f 233/84/69 211/259/221 223/78/70
f 226/260/222 221/261/223 212/262/224
f 226/263/222 212/264/224 216/265/225
f 216/265/225 206/266/226 228/75/67
f 231/267/227 215/60/55 229/65/59
f 208/268/228 215/60/55 231/267/227
f 231/267/227 209/269/229 208/268/228
f 231/267/227 224/270/230 209/269/229
f 237/73/65 228/75/67 233/77/69
f 223/78/70 217/271/231 242/79/71
f 217/271/231 230/81/72 242/79/71
f 282/272/125 270/273/75 285/274/232
f 285/275/232 270/85/75 290/147/127
f 283/148/128 276/149/129 291/276/233
f 292/105/93 280/277/234 278/97/87
f 274/278/235 280/277/234 292/105/93
f 292/105/93 293/279/236 274/278/235
f 286/280/237 274/278/235 293/279/236
f 286/281/237 297/200/176 287/282/238
f 297/200/176 298/197/173 287/282/238
f 291/276/233 277/283/239 301/284/172
f 277/283/239 284/285/240 301/284/172
f 284/286/240 279/287/241 302/288/242
f 298/197/173 302/288/242 279/287/241
f 321/289/243 303/238/204 319/239/190
f 313/290/244 303/291/204 321/292/243
f 297/200/176 313/290/244 321/292/243
f 321/292/243 323/293/245 297/200/176
f 306/236/203 301/284/172 316/294/177
f 324/212/185 306/236/203 316/294/177
f 317/198/174 297/200/176 323/293/245
f 24/295/10 37/296/246 40/297/247
f 40/297/247 37/296/246 42/298/248
f 44/299/249 42/298/248 39/300/250
f 39/300/250 38/301/251 44/299/249
f 28/302/252 33/8/8 45/303/253
f 45/303/253 46/304/254 28/302/252
f 46/304/254 22/305/255 28/302/252
f 41/306/205 22/305/255 46/304/254
f 74/307/256 63/12/12 76/18/17
f 76/18/17 63/12/12 68/308/257
f 70/16/15 69/14/13 78/309/258
f 85/28/27 60/310/259 51/311/132
f 85/28/27 91/312/131 100/313/260
f 100/314/260 91/151/131 102/315/261
f 102/315/261 77/154/134 94/316/262
f 89/26/25 103/40/35 95/317/263
f 95/317/263 99/318/264 79/157/137
f 102/315/261 94/316/262 112/319/265
f 112/319/265 94/316/262 110/320/266
f 99/318/264 95/317/263 103/40/35
f 122/50/45 125/321/267 141/322/144
f 127/323/268 141/165/144 125/324/267
f 140/231/199 129/38/33 133/44/39
f 141/322/144 146/163/143 122/50/45
f 141/165/144 127/323/268 148/325/269
f 148/325/269 127/323/268 138/232/200
f 150/127/113 148/325/269 138/232/200
f 140/231/199 133/44/39 151/160/140
f 151/160/140 153/326/270 140/231/199
f 188/327/50 182/164/142 195/328/271
f 186/329/156 193/330/157 187/182/159
f 225/72/61 209/269/229 224/270/230
f 225/331/61 218/332/272 209/333/229
f 220/334/273 218/332/272 225/331/61
f 225/331/61 230/81/72 220/334/273
f 228/75/67 206/266/226 210/257/220
f 233/77/69 228/75/67 210/257/220
f 217/271/231 220/334/273 230/81/72
f 241/190/167 226/260/222 245/193/170
f 241/190/167 221/261/223 226/260/222
f 238/222/194 245/225/170 226/263/222
f 238/222/194 226/263/222 216/265/225
f 216/265/225 228/75/67 238/222/194
f 254/195/171 231/267/227 240/187/164
f 254/195/171 243/223/62 231/267/227
f 243/223/62 224/270/230 231/267/227
f 243/223/62 225/72/61 224/270/230
f 258/91/81 267/90/80 254/195/171
f 267/90/80 268/226/195 255/70/63
f 308/107/95 305/335/274 311/112/100
f 312/234/181 311/336/100 305/337/274
f 300/235/202 312/234/181 305/337/274
f 300/235/202 283/148/128 306/236/203
f 324/212/185 316/294/177 327/338/275
f 327/339/275 317/198/174 323/293/245
f 318/199/175 317/198/174 327/339/275
f 316/201/177 318/199/175 327/339/275
f 334/216/188 339/340/276 329/208/183
f 23/341/277 2/342/278 22/305/255
f 3/343/279 2/342/278 23/341/277
f 23/344/277 25/345/280 3/346/279
f 6/347/281 3/346/279 25/345/280
f 9/348/282 26/349/283 8/350/284
f 10/351/285 48/352/286 9/348/282
f 25/345/280 27/353/287 6/347/281
f 24/295/10 11/354/288 37/296/246
f 37/296/246 11/354/288 12/355/289
f 37/356/246 12/357/289 26/358/283
f 39/300/250 37/296/246 26/349/283
f 7/9/9 33/8/8 13/359/290
f 33/8/8 28/302/252 13/359/290
f 22/305/255 36/360/291 23/341/277
f 25/345/280 23/344/277 36/361/291
f 27/353/287 25/345/280 36/361/291
f 39/300/250 32/362/292 38/301/251
f 41/306/205 36/360/291 22/305/255
f 41/240/205 43/242/207 36/361/291
f 27/353/287 36/361/291 43/242/207
f 38/301/251 32/362/292 48/352/286
f 34/363/293 27/353/287 43/242/207
f 42/298/248 54/364/294 64/153/133
f 58/365/295 46/304/254 56/366/296
f 51/152/132 42/298/248 67/150/130
f 64/153/133 67/150/130 42/298/248
f 56/366/296 55/17/16 70/16/15
f 56/366/296 72/156/136 58/365/295
f 91/151/131 77/154/134 102/315/261
f 82/155/135 89/26/25 95/317/263
f 79/157/137 82/155/135 95/317/263
f 294/367/96 285/275/232 305/337/274
f 285/275/232 290/147/127 305/337/274
f 305/337/274 290/147/127 300/235/202
f 283/148/128 291/276/233 306/236/203
f 303/238/204 292/105/93 307/106/94
f 303/238/204 304/368/297 286/280/237
f 4/369/3 14/370/298 17/371/299
f 11/372/288 4/369/3 17/371/299
f 12/357/289 17/371/299 20/373/300
f 11/372/288 17/371/299 12/357/289
f 20/373/300 8/374/284 12/357/289
f 19/375/301 7/376/9 13/377/290
f 13/377/290 2/378/278 19/375/301
f 15/379/302 19/375/301 2/378/278
f 20/373/300 19/375/301 15/379/302
f 15/379/302 18/380/303 20/373/300
f 35/381/304 1/5/5 29/4/4
f 29/4/4 5/2/2 30/6/6
f 31/7/7 1/382/5 35/383/304
f 7/9/9 1/382/5 31/7/7
f 118/37/30 124/45/40 116/35/32
f 124/45/40 129/38/33 116/35/32
f 101/19/18 90/27/26 123/48/43
f 123/48/43 105/29/28 122/50/45
f 90/27/26 105/29/28 123/48/43
f 274/278/235 275/384/305 268/226/195
f 275/385/305 244/386/64 268/387/195
f 275/385/305 247/83/74 244/386/64
f 271/388/306 247/83/74 275/385/305
f 276/149/129 264/89/79 277/283/239
f 276/149/129 272/87/77 264/89/79
f 264/89/79 263/228/197 277/283/239
f 277/389/239 265/230/198 279/287/241
f 263/229/197 265/230/198 277/389/239
f 265/230/198 247/83/74 271/388/306
f 271/388/306 279/287/241 265/230/198
f 308/107/95 294/108/96 305/335/274
f 113/34/31 98/20/19 115/32/29
f 109/24/23 98/390/19 113/36/31
f 101/19/18 115/32/29 98/20/19
f 116/35/32 109/24/23 113/36/31
f 89/26/25 109/24/23 116/35/32
f 165/252/216 189/52/47 174/140/122
f 184/61/56 175/142/123 183/136/119
f 167/54/49 196/53/48 165/252/216
f 204/391/307 212/262/224 221/261/223
f 216/265/225 212/264/224 195/328/271
f 320/392/102 322/393/101 332/394/308
f 331/202/178 332/394/308 322/393/101
f 331/202/178 322/393/101 335/203/179
f 310/109/97 320/115/102 332/395/308
f 310/396/97 332/394/308 333/214/186
f 333/214/186 326/213/98 310/396/97
f 322/113/101 314/111/99 335/397/179
f 311/112/100 335/397/179 314/111/99
f 58/365/295 52/398/309 41/306/205
f 49/241/206 41/240/205 52/399/309
f 49/241/206 53/243/208 43/242/207
f 44/299/249 38/301/251 54/364/294
f 59/400/310 54/364/294 38/301/251
f 59/400/310 48/352/286 61/401/311
f 38/301/251 48/352/286 59/400/310
f 61/402/311 34/363/293 62/403/312
f 53/243/208 62/403/312 43/242/207
f 34/363/293 43/242/207 62/403/312
f 48/404/286 34/363/293 61/402/311
f 92/405/313 79/157/137 99/318/264
f 81/246/211 97/406/314 96/407/315
f 87/408/316 104/409/317 83/250/215
f 97/410/314 83/250/215 104/409/317
f 106/411/318 108/412/150 132/413/149
f 120/118/105 111/414/151 107/415/319
f 106/411/318 121/122/109 93/416/320
f 107/415/319 93/416/320 121/122/109
f 307/106/94 299/103/92 310/109/97
f 24/10/10 4/3/3 11/417/288
f 8/374/284 26/358/283 12/357/289
f 13/359/290 28/302/252 2/342/278
f 22/305/255 2/342/278 28/302/252
f 75/244/209 79/418/137 92/419/313
f 81/246/211 83/420/215 97/406/314
f 105/29/28 85/28/27 100/313/260
f 222/63/58 227/62/57 234/421/321
f 229/65/59 222/64/58 234/422/321
f 261/423/322 251/424/323 269/425/88
f 273/95/85 252/426/324 250/191/168
f 259/427/325 261/428/322 269/98/88
f 269/98/88 266/92/82 259/427/325
f 258/91/81 259/427/325 266/92/82
f 105/29/28 114/429/326 125/321/267
f 125/321/267 122/50/45 105/29/28
f 125/324/267 114/430/326 127/323/268
f 114/430/326 112/319/265 127/323/268
f 128/233/201 127/323/268 112/319/265
f 112/319/265 110/320/266 128/233/201
f 103/40/35 116/35/32 129/38/33
f 273/95/85 251/424/323 252/426/324
f 273/95/85 250/191/168 289/96/86
f 273/95/85 269/425/88 251/424/323
f 269/98/88 278/97/87 266/92/82
f 313/431/244 304/368/297 303/238/204
f 297/200/176 304/432/297 313/290/244
f 298/197/173 301/196/172 302/288/242
f 54/364/294 59/400/310 65/245/210
f 249/74/66 237/73/65 257/227/196
f 237/73/65 253/76/68 257/227/196
f 242/79/71 230/81/72 247/83/74
f 15/379/302 2/378/278 3/433/279
f 6/434/281 15/379/302 3/433/279
f 18/380/303 15/379/302 6/434/281
f 20/373/300 21/435/327 8/374/284
f 21/435/327 20/373/300 18/380/303
f 18/380/303 10/436/285 21/435/327
f 8/374/284 21/435/327 9/437/282
f 21/435/327 10/436/285 9/437/282
f 6/434/281 10/436/285 18/380/303
f 42/298/248 37/296/246 39/300/250
f 52/398/309 58/365/295 72/156/136
f 65/245/210 64/153/133 54/364/294
f 59/400/310 61/401/311 71/438/212
f 71/438/212 65/245/210 59/400/310
f 71/247/212 62/403/312 73/248/213
f 61/402/311 62/403/312 71/247/212
f 73/248/213 62/403/312 53/243/208
f 70/16/15 72/156/136 56/366/296
f 86/31/22 76/18/17 98/20/19
f 76/18/17 80/21/20 101/19/18
f 92/405/313 99/318/264 108/171/150
f 106/411/318 92/419/313 108/412/150
f 94/316/262 96/407/315 110/320/266
f 96/407/315 104/439/317 111/173/151
f 111/173/151 130/175/152 96/407/315
f 87/408/316 93/416/320 107/415/319
f 110/320/266 96/407/315 130/175/152
f 111/414/151 104/409/317 107/415/319
f 161/253/217 168/135/115 177/181/158
f 171/254/218 178/440/328 170/167/146
f 164/256/219 161/253/217 177/181/158
f 236/441/329 252/426/324 251/424/323
f 234/422/321 259/427/325 239/188/165
f 248/189/166 239/188/165 259/427/325
f 259/427/325 258/91/81 248/189/166
f 31/7/7 45/303/253 33/8/8
f 47/1/1 24/10/10 40/442/247
f 105/29/28 100/313/260 114/429/326
f 100/314/260 102/315/261 114/430/326
f 114/430/326 102/315/261 112/319/265
f 116/35/32 103/40/35 89/26/25
f 99/318/264 103/40/35 117/39/34
f 108/171/150 99/318/264 117/39/34
f 142/159/139 143/49/44 165/252/216
f 222/63/58 202/443/330 213/56/51
f 219/66/60 202/444/330 222/64/58
f 189/52/47 232/192/169 214/57/52
f 232/192/169 204/391/307 221/261/223
f 290/147/127 283/148/128 300/235/202
f 303/238/204 293/279/236 292/105/93
f 303/238/204 286/280/237 293/279/236
f 328/217/189 319/218/190 325/215/187
f 163/166/145 170/167/146 179/220/192
f 181/178/155 172/168/147 180/143/124
f 173/132/117 172/168/147 181/178/155
f 181/178/155 168/130/115 173/132/117
f 202/443/330 176/141/121 194/58/53
f 203/59/54 176/138/121 202/444/330
f 203/59/54 183/136/119 176/138/121
f 184/61/56 183/136/119 203/59/54
f 205/51/46 188/55/50 204/391/307
f 5/445/2 1/446/5 16/447/331
f 14/370/298 5/445/2 16/447/331
f 4/3/3 5/2/2 14/448/298
f 16/447/331 1/446/5 19/375/301
f 7/376/9 19/375/301 1/446/5
f 16/447/331 17/371/299 14/370/298
f 20/373/300 16/447/331 19/375/301
f 17/371/299 16/447/331 20/373/300
f 35/383/304 50/13/11 31/7/7
f 47/1/1 40/442/247 60/310/259
f 29/4/4 50/11/11 35/381/304
f 29/4/4 30/6/6 68/308/257
f 57/15/14 31/7/7 50/13/11
f 45/303/253 31/7/7 57/15/14
f 57/15/14 55/17/16 45/303/253
f 60/310/259 40/442/247 51/311/132
f 68/308/257 63/12/12 29/4/4
f 30/6/6 47/1/1 66/22/21
f 66/22/21 68/308/257 30/6/6
f 47/1/1 60/310/259 66/22/21
f 75/244/209 72/449/136 79/418/137
f 52/399/309 72/449/136 75/244/209
f 49/241/206 52/399/309 75/244/209
f 65/245/210 77/154/134 64/153/133
f 81/246/211 65/245/210 71/438/212
f 74/307/256 76/18/17 86/31/22
f 68/308/257 66/22/21 80/21/20
f 86/23/22 78/309/258 74/450/256
f 86/23/22 88/25/24 78/309/258
f 82/155/135 78/309/258 88/25/24
f 88/25/24 89/26/25 82/155/135
f 66/22/21 85/28/27 90/27/26
f 75/244/209 92/419/313 106/411/318
f 93/416/320 75/244/209 106/411/318
f 96/407/315 97/406/314 104/439/317
f 104/409/317 87/408/316 107/415/319
f 108/171/150 117/39/34 119/41/36
f 127/323/268 128/233/201 138/232/200
f 129/38/33 140/231/199 119/41/36
f 155/125/112 141/165/144 148/325/269
f 166/169/148 151/160/140 157/161/141
f 153/326/270 151/160/140 166/169/148
f 166/169/148 160/131/116 153/326/270
f 179/220/192 178/440/328 197/451/332
f 197/451/332 178/440/328 198/452/333
f 198/452/333 190/453/334 199/454/162
f 198/452/333 178/440/328 190/453/334
f 190/455/334 192/186/163 199/185/162
f 118/33/30 115/32/29 134/42/37
f 134/42/37 101/19/18 136/47/42
f 115/32/29 101/19/18 134/42/37
f 101/19/18 123/48/43 136/47/42
f 124/45/40 118/37/30 139/46/41
f 129/38/33 124/45/40 133/44/39
f 137/43/38 149/158/138 158/456/335
f 159/457/336 137/458/38 158/459/335
f 159/457/336 139/46/41 137/458/38
f 157/161/141 139/46/41 159/457/336
f 168/135/115 186/329/156 187/182/159
f 177/181/158 168/135/115 187/182/159
f 190/455/334 164/256/219 192/186/163
f 164/256/219 177/181/158 192/186/163
f 247/83/74 235/82/73 244/386/64
f 262/88/78 249/74/66 257/227/196
f 242/79/71 263/229/197 253/80/68
f 257/227/196 253/76/68 263/228/197
f 275/385/305 274/460/235 286/281/237
f 286/281/237 287/282/238 275/385/305
f 271/388/306 275/385/305 287/282/238
f 291/276/233 276/149/129 277/283/239
f 277/389/239 279/287/241 284/286/240
f 287/282/238 298/197/173 271/388/306
f 279/287/241 271/388/306 298/197/173
f 288/93/83 296/100/89 281/94/84
f 278/97/87 281/99/84 299/103/92
f 299/103/92 292/105/93 278/97/87
f 294/108/96 289/96/86 282/272/125
f 282/272/125 285/274/232 294/108/96
f 297/200/176 286/281/237 304/432/297
f 301/284/172 306/236/203 291/276/233
f 302/288/242 301/196/172 284/286/240
f 172/168/147 175/142/123 180/143/124
f 234/421/321 236/441/329 251/424/323
f 236/441/329 227/62/57 252/426/324
f 252/426/324 232/192/169 250/191/168
f 227/62/57 232/192/169 252/426/324
f 251/424/323 261/423/322 234/421/321
f 259/427/325 234/422/321 261/428/322
f 250/191/168 241/190/167 256/194/126
f 319/218/190 336/219/191 321/461/243
f 323/462/245 321/461/243 336/219/191
f 334/216/188 329/208/183 336/219/191
f 338/463/337 337/207/182 327/464/275
f 329/208/183 337/207/182 338/463/337
f 337/207/182 324/465/185 327/464/275
f 336/219/191 338/463/337 327/464/275
f 329/208/183 338/463/337 336/219/191
f 323/462/245 336/219/191 327/464/275
f 339/340/276 330/204/180 329/208/183
f 40/297/247 42/298/248 51/152/132
f 42/298/248 44/299/249 54/364/294
f 55/17/16 56/366/296 45/303/253
f 46/304/254 45/303/253 56/366/296
f 41/306/205 46/304/254 58/365/295
f 148/325/269 150/127/113 155/125/112
f 147/133/118 153/466/270 160/134/116
f 147/133/118 161/253/217 145/123/110
f 144/121/108 145/123/110 161/253/217
f 211/259/221 201/184/161 217/271/231
f 201/184/161 200/183/160 217/271/231
f 202/443/330 194/58/53 213/56/51
f 202/444/330 219/66/60 203/59/54
f 215/60/55 203/59/54 219/66/60
f 189/52/47 205/51/46 232/192/169
f 205/51/46 204/391/307 232/192/169
f 230/81/72 225/331/61 235/82/73
f 232/192/169 227/62/57 214/57/52
f 234/421/321 227/62/57 236/441/329
f 229/65/59 234/422/321 239/188/165
f 240/187/164 229/65/59 239/188/165
f 231/267/227 229/65/59 240/187/164
f 232/192/169 221/261/223 241/190/167
f 246/221/193 245/225/170 238/222/194
f 238/222/194 228/75/67 249/74/66
f 248/189/166 254/195/171 240/187/164
f 137/458/38 139/46/41 118/37/30
f 134/42/37 136/47/42 149/158/138
f 137/43/38 134/42/37 149/158/138
f 151/160/140 133/44/39 139/46/41
f 143/49/44 122/50/45 146/163/143
f 146/163/143 141/322/144 182/162/142
f 141/165/144 155/125/112 163/166/145
f 159/457/336 158/459/335 169/137/120
f 158/456/335 149/158/138 174/140/122
f 149/158/138 142/159/139 174/140/122
f 142/159/139 165/252/216 174/140/122
f 169/139/120 158/456/335 174/140/122
f 169/137/120 175/142/123 159/457/336
f 157/161/141 159/457/336 175/142/123
f 175/142/123 172/168/147 157/161/141
f 165/252/216 146/163/143 167/54/49
f 143/49/44 146/163/143 165/252/216
f 195/328/271 197/451/332 206/266/226
f 193/180/157 185/177/154 208/268/228
f 208/268/228 209/269/229 193/180/157
f 207/467/338 193/330/157 209/333/229
f 187/182/159 193/330/157 207/467/338
f 209/333/229 218/332/272 207/467/338
f 220/334/273 207/467/338 218/332/272
f 200/183/160 207/467/338 220/334/273
f 217/271/231 223/78/70 211/259/221
f 217/271/231 200/183/160 220/334/273
f 339/340/276 332/394/308 331/202/178
f 332/394/308 339/340/276 333/214/186
f 333/214/186 339/340/276 334/216/188
f 331/202/178 330/204/180 339/340/276
f 85/28/27 51/311/132 91/312/131
f 91/151/131 67/150/130 77/154/134
f 182/164/142 179/220/192 197/451/332
f 197/451/332 195/328/271 182/164/142
f 185/177/154 193/180/157 191/176/153
f 181/178/155 191/176/153 193/180/157
f 200/183/160 187/182/159 207/467/338
f 206/266/226 197/451/332 210/257/220
f 197/451/332 198/452/333 210/257/220
f 211/258/221 198/452/333 199/454/162
f 211/258/221 210/257/220 198/452/333
f 211/259/221 199/185/162 201/184/161
f 225/331/61 244/386/64 235/82/73
f 256/194/126 260/224/76 270/273/75
f 280/277/234 266/92/82 278/97/87
f 280/277/234 267/90/80 266/92/82
f 280/277/234 268/226/195 267/90/80
f 274/278/235 268/226/195 280/277/234
f 26/349/283 9/348/282 32/362/292
f 32/362/292 39/300/250 26/349/283
f 9/348/282 48/352/286 32/362/292
f 10/468/285 6/347/281 34/363/293
f 34/363/293 6/347/281 27/353/287
f 48/404/286 10/468/285 34/363/293
f 76/18/17 68/308/257 80/21/20
f 74/450/256 78/309/258 69/14/13
f 70/16/15 78/309/258 82/155/135
f 60/310/259 85/28/27 66/22/21
f 50/11/11 63/12/12 74/307/256
f 69/469/13 50/11/11 74/307/256
f 106/411/318 132/413/149 126/470/339
f 126/470/339 121/122/109 106/411/318
f 130/175/152 128/233/201 110/320/266
f 120/118/105 107/415/319 131/120/107
f 107/415/319 121/122/109 131/120/107
f 147/471/118 140/231/199 153/326/270
f 132/413/149 140/472/199 147/133/118
f 126/470/339 132/413/149 147/133/118
f 121/122/109 126/470/339 147/133/118
f 147/133/118 145/123/110 121/122/109
f 150/127/113 138/232/200 152/126/103
f 138/232/200 135/172/104 152/126/103
f 154/119/106 152/116/103 120/118/105
f 178/440/328 179/220/192 170/167/146
f 178/440/328 171/254/218 190/453/334
f 164/256/219 190/455/334 171/255/218
f 212/262/224 204/391/307 188/55/50
f 195/328/271 212/264/224 188/327/50
f 195/328/271 206/266/226 216/265/225
f 185/177/154 184/61/56 215/60/55
f 208/268/228 185/177/154 215/60/55
f 77/154/134 81/246/211 94/316/262
f 94/316/262 81/246/211 96/407/315
f 87/408/316 83/250/215 84/249/214
f 84/249/214 75/244/209 93/416/320
f 87/408/316 84/249/214 93/416/320
f 273/95/85 281/94/84 269/425/88
f 289/96/86 256/194/126 282/272/125
f 250/191/168 256/194/126 289/96/86
