# Blender 4.3.2
# www.blender.org
mtllib fused_model.mtl
o conn-bnc_mesh
v -0.002748 -0.010789 0.006041
v 0.000380 -0.010747 -0.006445
v 0.000629 -0.011358 -0.004767
v -0.006613 -0.010476 -0.001450
v 0.000110 -0.010479 0.004482
v -0.005879 -0.011303 -0.001917
v -0.002243 -0.010773 -0.000597
v 0.004404 -0.011011 -0.002190
v -0.002905 -0.010192 -0.002717
v 0.005495 -0.010966 -0.000396
v 0.006078 -0.010771 -0.002276
v 0.002415 -0.010843 0.004378
v 0.002651 -0.010831 0.006230
v 0.000638 -0.011075 0.002729
v -0.005612 -0.010001 -0.004469
v -0.002748 -0.010934 -0.005824
v 0.002538 -0.011105 -0.005583
v 0.003435 -0.011109 0.005124
v 0.006221 -0.010892 0.001757
v -0.006589 -0.010638 0.000888
v 0.002433 -0.010825 0.000745
v 0.005161 -0.011136 0.001908
v -0.002808 -0.010759 0.003371
v -0.004395 -0.010370 -0.000001
v 0.000149 -0.011493 0.000091
v -0.001231 -0.011400 0.005546
v 0.002297 -0.010583 -0.002957
v -0.001056 -0.010538 -0.003330
v -0.004918 -0.011312 -0.001327
v -0.002681 -0.011354 0.004773
v -0.002181 -0.011541 -0.004860
v 0.004203 -0.010859 0.003879
v -0.004015 -0.011514 0.003855
v 0.004414 -0.011167 -0.004038
v -0.004887 -0.011270 0.001921
v 0.002475 -0.011411 -0.004598
v -0.001796 -0.009852 0.006717
v -0.003611 -0.009648 0.006088
v -0.000197 -0.010431 0.006829
v 0.002363 -0.009889 0.003637
v -0.000207 -0.009500 -0.007038
v 0.002675 -0.009690 0.006698
v -0.002908 -0.009634 -0.006432
v 0.005414 -0.010007 -0.004244
v 0.002987 -0.009820 -0.006480
v 0.003272 -0.009679 0.003418
v -0.005728 -0.010490 0.003883
v 0.005298 -0.010078 0.004541
v -0.004156 -0.009492 -0.005478
v 0.004032 -0.009968 0.002640
v 0.006643 -0.009987 0.002457
v 0.007106 -0.009973 -0.001305
v 0.003936 -0.009966 0.001092
v -0.000058 -0.010468 0.003816
v -0.003866 -0.010199 -0.000170
v 0.003975 -0.010050 -0.000869
v -0.002477 -0.010439 0.002564
v -0.000034 -0.008257 0.006949
v -0.006565 -0.009264 -0.001583
v 0.004149 -0.008777 0.005513
v 0.007081 -0.009094 -0.000983
v -0.006641 -0.008842 0.001303
v 0.005196 -0.008510 0.004439
v -0.005717 -0.009199 -0.004527
v -0.004273 -0.008528 0.005165
v -0.000862 -0.008146 -0.006114
v 0.003540 -0.008020 -0.006296
v -0.005901 -0.008473 -0.002221
v 0.006649 -0.008351 -0.000903
v 0.005897 -0.008705 -0.003210
v 0.004249 -0.007900 -0.004474
v 0.004342 -0.008686 -0.005458
v -0.004110 -0.008369 -0.005115
v 0.006598 -0.008848 0.002387
v -0.005766 -0.008785 0.003603
v -0.000483 -0.007861 0.006715
v -0.004359 -0.007432 -0.001248
v 0.004495 -0.007709 -0.002256
v -0.004632 -0.007535 0.002441
v -0.003741 -0.007811 -0.003206
v -0.001713 -0.007933 0.005897
v 0.001132 -0.007768 -0.005125
v 0.004091 -0.007615 -0.005592
v 0.004941 -0.007473 0.001046
v 0.000576 -0.007155 0.004196
v 0.001955 -0.006858 0.003562
v 0.001442 -0.006902 -0.003924
v -0.001517 -0.007012 0.003501
v -0.003902 -0.006862 0.002459
v 0.004284 -0.006533 -0.000117
v 0.003876 -0.007066 -0.001874
v -0.001915 -0.006675 -0.003274
v 0.003813 -0.006777 0.001874
v 0.003022 -0.007460 0.004328
v 0.002112 -0.007494 -0.004068
v 0.000906 -0.005651 0.003903
v -0.003420 -0.006054 0.002700
v -0.003891 -0.006372 -0.000914
v -0.000756 -0.006180 0.003448
v 0.003969 -0.005015 0.001617
v 0.003538 -0.005917 -0.002449
v 0.002137 -0.005988 -0.003839
v -0.003776 -0.005058 -0.001269
v -0.001681 -0.005329 -0.003267
v 0.003189 -0.004980 0.002354
v 0.004638 -0.003854 -0.000960
v -0.000621 -0.004690 -0.004242
v 0.000884 -0.004378 0.004313
v 0.003869 -0.004442 -0.002736
v 0.002440 -0.004559 -0.004488
v -0.001398 -0.004483 0.004133
v -0.004842 -0.004022 0.001800
v -0.002471 -0.004487 -0.003144
v -0.004592 -0.004034 0.000084
v -0.003021 -0.003542 0.003859
v -0.003988 -0.003900 -0.003231
v -0.003218 -0.003616 -0.004792
v 0.004869 -0.003611 0.001317
v 0.003924 -0.003747 -0.004406
v 0.001993 -0.003947 -0.005155
v -0.000246 -0.003603 -0.006039
v -0.005786 -0.002949 -0.001775
v 0.002253 -0.002545 0.006119
v 0.006296 -0.002644 -0.002258
v -0.004903 -0.003283 -0.003781
v 0.004601 -0.003036 0.003381
v -0.002989 -0.003224 0.005087
v -0.004580 -0.003312 0.003038
v -0.000378 -0.003154 0.005473
v -0.004108 -0.002507 0.005723
v -0.001317 -0.001817 -0.006914
v 0.004435 -0.002435 0.005207
v -0.000959 -0.002236 0.006661
v -0.006512 -0.002121 -0.002875
v -0.005444 -0.002495 0.004086
v -0.007157 -0.002556 0.000802
v 0.002686 -0.002384 -0.006521
v 0.006446 -0.002057 0.002932
v -0.003573 -0.002278 -0.006283
v 0.004869 -0.002480 -0.004679
v 0.006836 -0.002583 0.000512
v -0.001068 -0.001492 0.006741
v 0.006163 -0.001262 -0.003511
v 0.004418 -0.001364 0.005513
v 0.001613 -0.001123 0.006728
v 0.002896 -0.001289 -0.006655
v 0.006757 -0.001308 0.002695
v 0.007108 -0.001125 -0.000548
v -0.006488 -0.001181 0.002470
v -0.007169 -0.001316 0.000231
v -0.004351 -0.001009 0.005516
v -0.003796 -0.001374 -0.006217
v -0.001385 -0.000181 -0.006366
v -0.000977 -0.001136 0.000487
v 0.000352 -0.000527 -0.001000
v -0.006026 -0.000103 -0.002376
v -0.005026 0.000009 -0.003732
v -0.000516 -0.000645 -0.001032
v 0.003872 -0.000280 -0.005495
v 0.000094 -0.001082 0.001129
v -0.000861 0.000546 0.001558
v -0.001420 0.000087 -0.000454
v 0.001594 0.000267 0.006119
v -0.006439 0.000127 -0.000028
v 0.004148 0.000118 0.004524
v -0.004151 0.000228 0.005019
v 0.005539 0.000021 -0.003178
v -0.003684 0.000234 -0.005258
v -0.002313 0.000142 0.005770
v -0.005611 -0.000058 0.002780
v 0.006402 0.000206 -0.000109
v 0.001970 0.000241 -0.006147
v 0.001905 0.001375 -0.002316
v 0.002409 0.000802 -0.000634
v 0.002694 0.000782 0.005808
v 0.000648 -0.000019 0.000985
v -0.002749 0.001271 -0.006464
v 0.006127 0.000702 -0.002331
v -0.001398 0.001710 -0.007060
v 0.005730 0.000220 0.002599
v -0.006334 0.001768 0.002961
v 0.004371 0.000811 -0.005462
v -0.004030 0.001350 0.005477
v 0.001342 0.001440 0.001403
v -0.001184 0.001328 -0.002452
v 0.003680 0.001565 0.005845
v -0.002192 0.001644 0.006368
v 0.002903 0.001442 -0.001607
v -0.007273 0.001832 -0.000035
v -0.001736 0.001510 0.002260
v 0.001641 0.002105 -0.007015
v 0.000116 0.002255 0.002845
v 0.001609 0.001906 0.006584
v 0.006544 0.001966 0.002398
v -0.006697 0.001468 -0.002937
v 0.005719 0.001536 -0.003898
v -0.002997 0.001688 -0.001127
v 0.007206 0.001984 -0.000570
v 0.002734 0.001466 0.000879
v -0.004329 0.002102 -0.006022
v 0.002669 0.002297 -0.000334
v -0.001957 0.002219 0.002350
v -0.002974 0.002340 0.006172
v -0.002906 0.001916 0.000965
v 0.000903 0.003290 -0.002389
v 0.002465 0.002317 0.001457
v 0.004252 0.002639 -0.005630
v 0.006905 0.002751 -0.001115
v -0.006655 0.002319 -0.002869
v -0.002023 0.002423 -0.001767
v -0.001196 0.003770 0.002393
v -0.001314 0.003212 -0.006173
v 0.003768 0.002347 0.005777
v -0.002460 0.003597 0.001244
v -0.002930 0.003548 -0.000186
v 0.002448 0.003043 -0.000889
v 0.001079 0.003051 0.006239
v 0.002234 0.003215 -0.005980
v -0.004642 0.002593 0.004768
v 0.005058 0.003122 0.003986
v 0.001151 0.003788 0.002389
v -0.001255 0.003501 -0.002449
v 0.002452 0.003517 0.001000
v 0.005732 0.002343 -0.003865
v -0.005919 0.003583 0.001844
v -0.004013 0.003201 -0.005227
v -0.001015 0.004368 0.006124
v -0.006179 0.003399 0.000113
v -0.000143 0.003800 0.002064
v 0.004469 0.004474 0.003264
v -0.004410 0.003532 -0.003755
v 0.003084 0.003969 -0.000810
v -0.003349 0.004566 0.004713
v -0.005078 0.004477 0.002863
v -0.000145 0.004000 -0.003229
v -0.000563 0.004220 -0.004903
v 0.005593 0.004478 0.000417
v 0.003685 0.003912 -0.004493
v 0.003218 0.004528 0.004922
v 0.004391 0.004676 -0.001456
v 0.002683 0.004606 0.002695
v -0.001128 0.004649 0.003699
v 0.005125 0.004432 -0.001810
v 0.002591 0.004628 -0.004701
v 0.002346 0.004699 -0.003727
v -0.004899 0.004575 0.001719
v 0.004676 0.004467 0.001946
v -0.003049 0.004838 0.002916
v -0.001358 0.004347 -0.003691
v -0.003772 0.004123 -0.000132
v 0.003769 0.004419 0.000927
v -0.004484 0.004278 -0.002179
v -0.002747 0.004498 -0.002883
v 0.002550 0.004919 0.004195
v -0.001250 0.004986 0.004852
vn 0.8490 0.1628 -0.5027
vn 0.7243 -0.6368 -0.2645
vn 0.6224 -0.4396 -0.6476
vn 0.3435 0.1466 -0.9276
vn 0.3991 -0.4132 -0.8185
vn 0.7804 -0.6247 0.0269
vn 0.9797 0.1644 -0.1147
vn -0.3399 0.4713 0.8138
vn -0.9238 0.0213 0.3823
vn -0.5480 0.8186 0.1722
vn 0.4896 0.8223 -0.2900
vn 0.8959 0.4141 -0.1608
vn 0.7880 0.2780 -0.5494
vn -0.0950 0.9197 -0.3809
vn 0.2181 0.6610 -0.7180
vn -0.1795 0.6754 -0.7153
vn 0.6430 0.3407 -0.6859
vn 0.4167 0.6976 -0.5829
vn 0.6331 0.7483 -0.1983
vn 0.8688 0.3986 0.2938
vn 0.9561 0.2607 -0.1340
vn -0.9365 0.2247 -0.2694
vn -0.2490 0.8875 -0.3877
vn -0.7168 0.6841 -0.1347
vn -0.4235 0.2450 -0.8721
vn 0.2662 0.5543 -0.7886
vn -0.2006 0.7255 -0.6583
vn -0.4896 0.2033 0.8479
vn -0.9553 -0.2950 0.0199
vn 0.1969 0.0761 -0.9775
vn -0.1597 -0.6405 -0.7511
vn -0.7054 -0.1624 -0.6899
vn -0.6090 0.2218 0.7615
vn -0.5390 -0.4660 0.7017
vn -0.1014 0.1100 0.9887
vn -0.1055 -0.4546 0.8844
vn -0.8694 0.2433 0.4300
vn -0.8962 -0.4406 0.0523
vn -0.7108 -0.5594 0.4264
vn -0.9723 0.2314 -0.0336
vn -0.7221 -0.6867 -0.0835
vn -0.5439 -0.8329 -0.1021
vn -0.4269 -0.8346 -0.3482
vn -0.5996 -0.7129 -0.3638
vn -0.3491 -0.7920 -0.5009
vn -0.0103 -0.7586 0.6515
vn -0.4706 -0.7925 0.3879
vn -0.2259 -0.8411 0.4915
vn -0.8720 -0.0434 0.4876
vn 0.2773 0.3772 0.8836
vn 0.8108 -0.3371 -0.4785
vn 0.6154 -0.2422 -0.7501
vn 1.0000 0.0052 -0.0037
vn -0.0697 0.0599 -0.9958
vn 0.4443 -0.2820 -0.8503
vn 0.0844 -0.7149 -0.6941
vn 0.8831 -0.2796 0.3769
vn 0.1607 -0.5713 0.8048
vn 0.7017 0.0852 0.7074
vn 0.8024 -0.5820 -0.1323
vn 0.7295 -0.6770 0.0974
vn -0.1045 -0.0668 -0.9923
vn 0.1747 0.0499 0.9834
vn 0.7519 0.0521 0.6572
vn 0.4094 -0.4429 0.7977
vn -0.6473 0.5279 -0.5499
vn -0.6031 0.7977 0.0035
vn -0.3831 0.8568 0.3453
vn 0.0444 -0.7796 -0.6247
vn 0.0051 -0.9831 0.1832
vn 0.1534 -0.8433 -0.5151
vn 0.3239 -0.9135 0.2462
vn 0.3715 -0.6480 0.6649
vn -0.0213 -0.9704 -0.2405
vn 0.5938 -0.7990 0.0948
vn -0.2282 -0.9699 0.0847
vn -0.0176 -0.9994 -0.0293
vn 0.4057 -0.9125 0.0533
vn 0.1385 -0.9093 0.3924
vn -0.0407 -0.9990 -0.0192
vn 0.5289 -0.7802 -0.3339
vn -0.0503 0.7190 0.6932
vn 0.3179 0.8405 0.4388
vn 0.3858 0.6076 0.6942
vn 0.8270 0.4006 0.3944
vn 0.6343 0.7626 0.1269
vn 0.9644 0.2499 -0.0864
vn 0.7762 -0.5167 -0.3614
vn 0.2267 -0.7124 -0.6642
vn -0.0770 -0.7126 -0.6974
vn 0.5444 -0.6278 -0.5563
vn 0.3333 -0.6391 -0.6931
vn 0.1403 0.8138 0.5639
vn 0.8726 -0.3350 -0.3554
vn 0.9991 0.0073 0.0420
vn 0.8336 0.1729 -0.5246
vn 0.6226 0.0178 -0.7824
vn 0.2122 0.0041 -0.9772
vn -0.9470 -0.2820 -0.1541
vn -0.6887 -0.3391 -0.6409
vn -0.4508 -0.8844 -0.1206
vn 0.1926 -0.9700 0.1481
vn 0.1516 -0.9880 0.0308
vn 0.6337 -0.7723 0.0453
vn 0.1947 -0.9470 0.2553
vn -0.3005 -0.9503 -0.0814
vn -0.0586 -0.9809 0.1854
vn -0.5910 0.0221 -0.8064
vn -0.2869 -0.6976 -0.6566
vn -0.3667 0.0630 -0.9282
vn -0.0333 -0.9960 -0.0833
vn 0.1823 -0.0946 0.9787
vn 0.2548 -0.6155 0.7458
vn 0.2018 0.0883 0.9754
vn 0.6099 0.0689 0.7895
vn 0.4026 0.5202 -0.7532
vn -0.1378 0.2088 -0.9682
vn 0.3373 0.5863 -0.7365
vn 0.9054 0.2494 -0.3437
vn 0.8224 0.5482 0.1520
vn 0.1781 0.0669 0.9817
vn 0.5798 -0.1535 0.8002
vn -0.1071 0.0142 -0.9941
vn -0.3435 -0.3214 -0.8825
vn -0.5720 0.1812 -0.8000
vn -0.8419 -0.3076 -0.4434
vn 0.8291 -0.1761 -0.5306
vn 0.4205 -0.3495 -0.8373
vn 0.9199 0.0070 0.3921
vn 0.5155 0.2816 0.8093
vn -0.4514 0.5366 -0.7130
vn -0.7391 0.2616 -0.6207
vn -0.7578 0.4839 -0.4377
vn -0.5900 -0.0163 0.8072
vn -0.3022 -0.0949 0.9485
vn -0.2983 0.7400 0.6028
vn -0.1301 -0.0772 -0.9885
vn -0.0557 0.9981 -0.0266
vn 0.5777 0.7988 0.1677
vn -0.4088 -0.6214 0.6684
vn -0.0050 -0.4634 0.8862
vn -0.8044 -0.3831 0.4541
vn 0.2402 -0.9473 -0.2120
vn 0.1314 -0.9764 0.1711
vn -0.0464 -0.9809 -0.1891
vn 0.8723 0.1350 0.4700
vn 0.9243 0.0717 0.3749
vn -0.3842 0.7297 -0.5656
vn -0.4523 -0.6798 0.5773
vn -0.7388 -0.1069 0.6654
vn -0.1703 -0.5585 0.8118
vn -0.3021 -0.0397 0.9524
vn -0.6866 -0.6564 0.3124
vn 0.5120 0.8553 -0.0788
vn 0.7840 0.4996 -0.3683
vn 0.7629 0.1086 -0.6373
vn 0.2424 0.4940 -0.8350
vn 0.5155 -0.7726 0.3707
vn -0.9989 0.0435 -0.0163
vn -0.8288 0.0996 0.5507
vn -0.8930 0.0555 0.4467
vn -0.5434 -0.1165 0.8313
vn -0.6903 0.0629 0.7208
vn -0.1167 0.9880 0.1011
vn -0.0294 0.7973 0.6029
vn 0.1329 0.8124 -0.5678
vn -0.0576 -0.9763 0.2085
vn -0.0048 -0.9994 0.0347
vn -0.0560 -0.9553 0.2903
vn 0.3596 -0.8625 -0.3560
vn -0.0472 -0.9890 0.1399
vn 0.2306 -0.7755 -0.5877
vn 0.3099 0.0624 0.9487
vn 0.7460 -0.3812 0.5461
vn 0.5598 0.4443 0.6994
vn 0.6753 0.5666 0.4722
vn 0.9487 -0.2179 0.2292
vn -0.1582 -0.9873 -0.0167
vn -0.1224 -0.8874 -0.4444
vn 0.2208 -0.9206 -0.3219
vn -0.5193 -0.8407 -0.1531
vn 0.9055 -0.3651 -0.2164
vn 0.2773 0.4968 -0.8224
vn 0.0975 0.6528 -0.7512
vn 0.6986 -0.3367 -0.6313
vn -0.6886 0.7118 -0.1382
vn -0.3571 0.6865 -0.6333
vn -0.7065 0.3087 0.6368
vn -0.3750 0.0996 0.9217
vn 0.7300 0.0150 -0.6833
vn -0.5214 0.8227 0.2266
vn -0.8141 0.3986 0.4224
vn -0.5384 0.5241 0.6599
vn -0.9030 0.4212 0.0850
vn -0.2882 -0.0104 0.9575
vn -0.1832 -0.1087 0.9771
vn -0.9938 0.1099 0.0179
vn -0.5213 0.6815 0.5137
vn -0.0274 0.9837 0.1777
vn 0.0956 0.9786 -0.1821
vn -0.6421 0.7408 0.1973
vn -0.0617 0.5442 0.8367
vn 0.1241 0.9065 -0.4036
vn 0.1129 0.9915 0.0643
vn -0.3155 0.9343 -0.1660
vn -0.8150 -0.5447 0.1976
vn 0.0552 0.3962 0.9165
vn 0.4513 0.8531 -0.2617
vn 0.0063 0.9163 -0.4005
vn 0.3919 0.8408 -0.3736
vn 0.4609 -0.6385 0.6163
vn 0.7628 -0.5376 0.3594
vn -0.5831 0.2192 -0.7823
vn -0.7566 0.2181 -0.6165
vn -0.9680 0.2161 -0.1276
vn 0.1433 0.3145 0.9384
vn -0.8262 0.5429 0.1505
vn -0.4735 -0.7147 -0.5148
vn -0.8582 -0.2431 -0.4521
vn -0.3617 -0.3448 -0.8662
vn -0.8973 -0.0614 -0.4371
vn 0.5966 0.7887 -0.1484
vn -0.8100 -0.0637 -0.5830
vn -0.6232 0.0007 -0.7821
vn -0.2829 -0.9423 0.1790
vn 0.4238 0.7286 0.5380
vn -0.0993 0.9227 -0.3725
vn 0.5417 0.8144 0.2079
vn 0.1232 0.9922 0.0177
vn -0.3501 0.9334 -0.0791
vn -0.8889 -0.1682 -0.4261
vn 0.8734 0.1880 0.4492
vn -0.7174 0.6966 -0.0082
vn -0.8204 0.3664 -0.4390
vn -0.4356 0.8440 -0.3128
vn -0.3688 0.9221 -0.1170
vn 0.8331 0.5283 0.1637
vn 0.6487 -0.0507 0.7593
vn 0.3630 0.5919 0.7197
vn -0.3535 0.7867 -0.5061
vn -0.2715 0.4860 -0.8307
vn -0.7599 0.4796 -0.4388
vn 0.7483 0.4262 -0.5083
vn 0.7868 0.3641 0.4984
vn -0.1048 -0.9910 0.0831
vn 0.0361 -0.9984 -0.0443
vn 0.0283 -0.9913 -0.1283
vn 0.7070 0.4748 -0.5241
vn 0.3217 0.8790 -0.3519
vn -0.7177 0.4176 0.5572
vn -0.1593 0.6656 0.7291
vn -0.1422 0.6806 0.7188
vn 0.0931 0.9757 0.1981
vn 0.1621 0.9846 -0.0657
vn 0.0834 0.9963 -0.0215
vt 0.810502 0.187977
vt 0.832143 0.229462
vt 0.762295 0.214208
vt 0.694364 0.176413
vt 0.689906 0.205041
vt 0.893774 0.242373
vt 0.883053 0.199416
vt 0.971211 0.342735
vt 0.950933 0.298001
vt 0.971211 0.285988
vt 0.841623 0.055677
vt 0.880627 0.099040
vt 0.807278 0.095971
vt 0.107761 0.240940
vt 0.141014 0.308957
vt 0.066868 0.257855
vt 0.182277 0.334587
vt 0.196737 0.299269
vt 0.268038 0.265377
vt 0.749216 0.081093
vt 0.875526 0.360006
vt 0.849077 0.421721
vt 0.854817 0.351749
vt 0.448239 0.107676
vt 0.393776 0.146173
vt 0.426385 0.103275
vt 0.428170 0.184927
vt 0.353384 0.526230
vt 0.348613 0.610816
vt 0.327780 0.487262
vt 0.375816 0.250590
vt 0.462604 0.264691
vt 0.919382 0.346672
vt 0.928391 0.287930
vt 0.105885 0.323780
vt 0.408063 0.561503
vt 0.385750 0.527605
vt 0.288881 0.891944
vt 0.327780 0.898843
vt 0.306948 0.946128
vt 0.326358 0.944943
vt 0.290883 0.800967
vt 0.325926 0.754786
vt 0.325820 0.848599
vt 0.294328 0.740578
vt 0.901065 0.389564
vt 0.933794 0.419601
vt 0.900424 0.472047
vt 0.922602 0.475500
vt 0.442586 0.506127
vt 0.423492 0.470770
vt 0.444490 0.454832
vt 0.668614 0.366283
vt 0.642429 0.456841
vt 0.613933 0.430406
vt 0.739785 0.383767
vt 0.718099 0.352177
vt 0.808451 0.346672
vt 0.677741 0.399500
vt 0.788040 0.860507
vt 0.805399 0.826240
vt 0.805399 0.885891
vt 0.655879 0.799886
vt 0.625910 0.751321
vt 0.681535 0.753871
vt 0.803968 0.116109
vt 0.748869 0.127828
vt 0.676001 0.090966
vt 0.893774 0.120894
vt 0.865822 0.870195
vt 0.841135 0.934447
vt 0.828725 0.875719
vt 0.961559 0.718291
vt 0.992670 0.820702
vt 0.966192 0.745617
vt 0.681297 0.055521
vt 0.681297 -0.000000
vt 0.715743 0.033310
vt 0.501694 0.569537
vt 0.506326 0.660450
vt 0.478842 0.657229
vt 0.964833 0.832980
vt 0.964833 0.910807
vt 0.952157 0.860580
vt 0.944764 0.140770
vt 0.950894 0.079859
vt 0.994585 0.121576
vt 0.048642 0.758759
vt 0.053740 0.855458
vt 0.030021 0.811272
vt 0.043352 0.488334
vt 0.118768 0.393679
vt 0.071675 0.481132
vt 0.035330 0.453526
vt 0.049698 0.523622
vt 0.052097 0.598614
vt 0.069736 0.576712
vt 0.190601 0.514414
vt 0.134387 0.544257
vt 0.132875 0.476766
vt 0.102639 0.622362
vt 0.123671 0.665298
vt 0.927525 0.832980
vt 0.900808 0.793225
vt 0.926091 0.795925
vt 0.121057 0.972044
vt 0.121057 0.907361
vt 0.147783 0.915681
vt 0.918909 0.731540
vt 0.895744 0.698522
vt 0.927343 0.685496
vt 0.823924 0.269687
vt 0.775374 0.275872
vt 0.808451 0.687810
vt 0.742054 0.695762
vt 0.740562 0.643207
vt 0.698711 0.252988
vt 0.644086 0.242952
vt 0.747079 0.249081
vt 0.717182 0.271383
vt 0.601541 0.828497
vt 0.595617 0.814043
vt 0.988283 0.068577
vt 0.837992 0.145114
vt 0.883017 0.169440
vt 0.809756 0.158507
vt 0.736235 0.155887
vt 0.692400 0.142155
vt 0.828369 0.654918
vt 0.857302 0.716226
vt 0.808451 0.677373
vt 0.301054 0.442548
vt 0.253671 0.439029
vt 0.261233 0.426618
vt 0.281333 0.501251
vt 0.237852 0.478870
vt 0.262970 0.547884
vt 0.870996 0.761774
vt 0.832427 0.797775
vt 0.869194 0.802003
vt 0.317195 0.556139
vt 0.962641 0.816841
vt 0.992670 0.654918
vt 0.725136 0.974103
vt 0.725136 0.888537
vt 0.747149 0.907791
vt 0.016549 0.764538
vt 0.002030 0.835663
vt 0.002030 0.752572
vt 0.568962 0.823264
vt 0.555155 0.749385
vt 0.590162 0.772366
vt 0.934982 0.209483
vt 0.893774 0.175569
vt 0.946742 0.181455
vt 0.973701 0.218187
vt 1.000000 0.167717
vt 0.517367 0.759777
vt 0.508687 0.785721
vt 0.479639 0.751520
vt 0.494728 0.803253
vt 0.588873 0.559352
vt 0.575041 0.522813
vt 0.593754 0.479292
vt 0.378334 0.455360
vt 0.343496 0.452256
vt 0.392892 0.417683
vt 0.825453 0.342301
vt 0.770498 0.315112
vt 0.369129 0.622945
vt 0.408984 0.633494
vt 0.719736 0.311403
vt 0.480595 0.918200
vt 0.475527 0.806015
vt 0.915727 0.129910
vt 0.893774 0.105114
vt 0.909493 0.092100
vt 0.913382 0.322595
vt 0.900632 0.263578
vt 0.919564 0.245928
vt 0.847241 0.053070
vt 0.818500 0.053070
vt 0.838251 0.002910
vt 0.536939 0.556726
vt 0.593754 0.626600
vt 0.540548 0.628986
vt 0.260178 0.246117
vt 0.309659 0.226959
vt 0.095421 0.357984
vt 0.131266 0.354548
vt 0.070698 0.388062
vt 0.352218 0.759768
vt 0.332063 0.686396
vt 0.363480 0.688169
vt 0.178484 0.399507
vt 0.120978 0.442916
vt 0.106585 0.434618
vt 0.002030 0.752572
vt 0.002030 0.665517
vt 0.017487 0.680566
vt 0.184184 0.418745
vt 0.525496 0.835812
vt 0.520518 0.899695
vt 0.564111 0.917228
vt 0.872792 0.002910
vt 0.872792 0.055287
vt 0.847241 0.049433
vt 0.509312 0.960775
vt 0.543381 0.981919
vt 0.994022 0.508378
vt 0.933410 0.546970
vt 0.964920 0.492940
vt 0.717505 0.469948
vt 0.686146 0.504155
vt 0.666159 0.499054
vt 0.693934 0.447268
vt 0.991229 0.573312
vt 0.994022 0.613942
vt 0.931561 0.880552
vt 0.893774 0.306462
vt 0.467098 0.983748
vt 0.064106 0.781283
vt 0.082858 0.728725
vt 0.080439 0.798775
vt 0.110616 0.841849
vt 0.063639 0.828609
vt 0.078845 0.671287
vt 0.095891 0.665518
vt 0.596448 0.511817
vt 0.637754 0.596200
vt 0.700430 0.600358
vt 0.685760 0.624475
vt 0.674841 0.679114
vt 0.258748 0.739441
vt 0.263509 0.815015
vt 0.215024 0.814246
vt 0.228817 0.893300
vt 0.257704 0.881085
vt 0.701193 0.695762
vt 0.709341 0.750677
vt 0.186713 0.260827
vt 0.166203 0.214616
vt 0.237791 0.214411
vt 0.301102 0.283056
vt 0.177155 0.284743
vt 0.952935 0.967365
vt 0.931561 0.927612
vt 0.952935 0.910808
vt 0.199107 0.604982
vt 0.231372 0.639281
vt 0.152982 0.632878
vt 0.186225 0.665518
vt 0.265668 0.607122
vt 0.244884 0.656570
vt 0.834325 0.573020
vt 0.817562 0.486463
vt 0.852635 0.523250
vt 0.857259 0.484201
vt 0.820417 0.423830
vt 0.095407 0.564056
vt 0.064049 0.510393
vt 0.077648 0.490046
vt 0.066877 0.539115
vt 0.834440 0.346672
vt 0.921234 0.954391
vt 0.895744 0.909834
vt 0.923533 0.909834
vt 0.808451 0.798028
vt 0.294104 0.629570
vt 0.117009 0.671388
vt 0.114133 0.757117
vt 0.376358 0.086338
vt 0.346260 0.167844
vt 0.196025 0.871295
vt 0.204984 0.918191
vt 0.793131 0.784378
vt 0.788441 0.741119
vt 0.805399 0.739837
vt 0.494351 0.041111
vt 0.490768 -0.000000
vt 0.545458 0.007058
vt 0.602042 0.048917
vt 0.432134 0.017073
vt 0.027707 0.955897
vt 0.027707 0.855458
vt 0.053740 0.946012
vt 0.465049 0.684897
vt 0.213252 0.733218
vt 0.263041 0.913031
vt 0.191993 -0.000000
vt 0.239349 0.028667
vt 0.174347 0.040739
vt 0.130058 0.011255
vt 0.257631 0.007841
vt 0.222756 0.055032
vt 0.305869 0.101253
vt 0.118013 0.037197
vt 0.017420 0.442389
vt 0.343847 0.906268
vt 0.356962 0.840155
vt 0.366013 0.897597
vt 0.285777 0.370563
vt 0.327780 0.434555
vt 0.885781 0.624802
vt 0.533737 0.302736
vt 0.607273 0.261379
vt 0.586799 0.326892
vt 0.527469 0.346672
vt 0.427489 0.276801
vt 0.437575 0.344814
vt 0.484850 0.331627
vt 0.053740 0.805528
vt 0.593754 0.829202
vt 0.582278 0.907316
vt 0.583799 0.958027
vt 0.510086 0.503682
vt 0.224287 0.928719
vt 0.327780 0.125627
vt 0.372935 0.062929
vt 0.877763 0.714611
vt 0.895744 0.758089
vt 0.960372 0.055677
vt 0.402656 0.710771
vt 0.442725 0.673816
vt 0.446703 0.747751
vt 0.147783 0.879328
vt 0.169752 0.789595
vt 0.147783 0.820941
vt 0.156597 0.931229
vt 0.327780 0.213257
vt 0.356378 0.278618
vt 0.406297 0.505808
vt 0.708024 0.411801
vt 0.776012 0.390849
vt 0.000351 0.933116
vt 0.000351 0.855458
vt 0.027707 0.907549
vt 0.954234 0.346672
vt 0.899427 0.346672
vt 0.318077 0.668391
vt 0.488349 0.512122
vt 0.467357 0.404159
vt 0.266808 0.684276
vt 0.593754 0.867834
vt 0.627748 0.849428
vt 0.524339 0.442021
vt 0.540891 0.490111
vt 0.783628 0.695762
vt 0.129528 0.598980
vt 0.137684 0.707834
vt 0.143525 0.885994
vt 0.147783 0.832389
vt 0.147783 0.770426
vt 0.858790 0.654918
vt 0.833842 0.628712
vt 0.402212 0.825360
vt 0.396543 0.762263
vt 0.397180 0.897244
vt 0.395842 0.712521
vt 0.080056 0.931489
vt 0.106345 0.907361
vt 0.106345 0.963513
vt 0.041151 0.278532
vt -0.000000 0.210782
vt 0.326765 0.097740
vt 0.284701 0.134829
vt 0.327780 0.151231
vt 0.313023 0.181447
vt 0.279835 0.188352
vt 0.593754 0.572827
vt 0.620625 0.644216
vt 0.225397 0.665518
vt 0.681986 0.852220
vt 0.685438 0.888537
vt 0.555453 0.390403
vt 0.174966 0.744827
vt 0.203538 0.667507
vt 0.041628 0.159492
vt -0.000000 0.109582
vt 0.068321 0.124179
vt 0.725043 0.856612
vt 0.689995 0.819378
vt 0.708260 0.786858
vt 0.026033 0.196608
vt 0.060414 0.053196
vt 0.414108 0.810864
vt 0.243349 0.119413
vt 0.196067 0.082944
vt 0.212762 0.105919
vt 0.247584 0.168713
vt 0.381748 0.963836
vt 0.402656 0.963792
vt 0.783716 0.346672
vt 0.703241 0.335019
vt 0.575518 0.388105
vt 0.453168 0.861996
vt 0.412748 0.863835
vt 0.959345 0.011667
vt 0.945332 0.054415
vt 0.930702 0.011667
vt 0.216881 0.208517
vt 0.402656 0.935799
vt 0.443567 0.987835
vt 0.217673 0.334587
vt 0.197040 0.370607
vt 0.156807 0.379475
vt 0.243684 0.386818
vt 0.080056 0.938444
vt 0.053740 0.971307
vt 0.053740 0.907361
vt 0.656532 0.938825
vt 0.627698 0.966281
vt 0.627698 0.888537
vt 0.788782 0.012778
vt 0.818500 0.002910
vt 0.818500 0.053651
vt 0.644086 0.051608
vt 0.644086 0.002672
vt 0.679938 0.030877
vt 0.681297 0.000000
vt 0.449281 0.588455
vt 0.747149 0.804923
vt 0.750438 0.769370
vt 0.790560 0.826240
vt 0.747149 0.725346
vt 0.352061 0.660450
vt 0.112053 0.907361
vt 0.537330 0.283905
vt 0.582209 0.265373
vt 0.977968 0.383360
vt 0.954234 0.418115
vt 0.954234 0.346672
vt 0.464839 0.280938
vt 0.462746 0.345421
vt 0.914599 0.558606
vt 0.901973 0.516616
vt 0.975482 0.418115
vt 0.975482 0.461550
vt 0.954234 0.454081
vt 0.761705 0.923608
vt 0.787365 0.923608
vt 0.773033 0.960096
vt 0.961269 0.490366
vt 0.934488 0.640374
vt 0.909403 0.654918
vt 0.788781 0.002910
vt 0.788781 0.055521
vt 0.761735 0.013943
vt 0.757432 0.027467
vt 0.402656 0.674878
vt 0.899426 0.566081
vt 0.608144 0.122394
vt 0.636750 0.061944
vt 0.644086 0.171238
vt 0.564967 0.089506
vt 0.510732 0.055886
vt 0.436804 0.409787
vt 0.426405 0.346672
vt 0.593754 0.944402
vt 0.627698 0.888537
vt 0.627698 0.955366
vt 0.931561 0.909834
vt 0.895744 0.879909
vt 0.931561 0.839379
vt 0.899037 0.832980
vt 0.952090 0.249349
vt 0.730024 0.759693
vt 0.110086 0.203473
vt 0.020008 0.749792
vt 0.017487 0.726576
vt 0.012924 0.530518
vt 0.808451 0.566543
vt 0.053740 0.712455
vt 0.022732 0.699646
vt 0.025228 0.591714
vt 0.051464 0.665517
vt 0.872792 0.037796
vt 0.902099 0.012020
vt 0.902099 0.055287
vt 0.715743 0.012658
vt 0.757433 0.052666
vt 0.715743 0.055521
vt 0.725136 0.888537
vt 0.725136 0.954781
vt 0.698994 0.939280
vt 0.082539 0.665518
vt 0.759660 0.415152
vt 0.430196 0.629620
vt 0.656532 0.938038
vt 0.687395 0.888537
vt 0.687395 0.960717
vt 0.511505 0.403417
vt 0.796186 0.050079
vt 0.514476 0.660450
vt 0.550319 0.699450
vt 0.498123 0.693565
vt 0.924055 0.011667
vt 0.930702 0.055287
vt 0.902099 0.055287
vt 0.091802 0.021322
vt 0.110764 0.093727
vt 0.152897 0.087261
vt 0.122603 0.109379
vt 0.899426 0.628123
vt 0.897489 0.520220
vt 0.747149 0.826240
vt 0.787365 0.857014
vt 0.747149 0.923608
vt 0.899426 0.425402
vt 0.094834 0.165004
vt 0.747149 0.867726
vt 0.747149 0.796724
s 1
usemtl FusedMaterial
f 143/1/1 124/2/2 140/3/3
f 146/4/4 143/1/1 140/3/3
f 146/4/4 140/3/3 137/5/5
f 141/6/6 124/2/2 148/7/7
f 143/1/1 148/7/7 124/2/2
f 205/8/8 216/9/9 232/10/10
f 243/11/11 208/12/12 224/13/13
f 236/14/14 218/15/15 212/16/16
f 207/17/17 218/15/15 238/18/18
f 243/19/11 207/17/17 238/18/18
f 243/11/11 224/13/13 207/20/17
f 69/21/19 74/22/20 61/23/21
f 98/24/22 80/25/23 77/26/24
f 92/27/25 80/25/23 98/24/22
f 92/28/25 87/29/26 80/30/23
f 66/31/27 80/25/23 87/32/26
f 173/33/28 201/34/29 216/9/9
f 205/8/8 173/33/28 216/9/9
f 207/17/17 191/35/30 218/15/15
f 107/36/31 92/28/25 104/37/32
f 151/38/33 130/39/34 142/40/35
f 142/40/35 130/39/34 133/41/36
f 149/42/37 136/43/38 135/44/39
f 150/45/40 136/43/38 149/42/37
f 135/44/39 130/39/34 151/38/33
f 151/38/33 149/42/37 135/44/39
f 114/46/41 122/47/42 116/48/43
f 125/49/44 116/48/43 122/47/42
f 117/50/45 116/51/43 125/52/44
f 130/53/34 129/54/46 133/55/36
f 128/56/47 130/53/34 135/57/39
f 136/58/38 128/56/47 135/57/39
f 128/56/47 127/59/48 130/53/34
f 130/53/34 127/59/48 129/54/46
f 188/60/49 201/61/29 173/62/28
f 185/63/50 173/64/28 205/65/8
f 224/13/13 196/66/51 182/67/52
f 207/20/17 224/13/13 182/67/52
f 191/68/30 207/20/17 182/67/52
f 208/12/12 196/66/51 224/13/13
f 198/69/53 196/66/51 208/12/12
f 41/70/54 45/71/55 2/72/56
f 100/73/57 108/74/58 105/75/59
f 100/76/57 106/77/60 118/78/61
f 131/79/62 146/80/4 137/81/5
f 163/82/63 165/83/64 175/84/65
f 176/85/66 174/86/67 155/87/68
f 12/88/69 26/89/70 5/90/71
f 18/91/72 26/92/70 12/93/69
f 13/94/73 26/92/70 18/91/72
f 12/93/69 32/95/74 18/91/72
f 19/96/75 32/95/74 22/97/76
f 25/98/77 21/99/78 14/100/79
f 19/96/75 22/97/76 10/101/80
f 11/102/81 19/96/75 10/101/80
f 85/103/82 94/104/83 86/105/84
f 93/106/85 86/107/84 94/108/83
f 93/109/85 94/104/83 84/110/86
f 93/109/85 84/110/86 90/111/87
f 140/3/3 106/112/60 109/113/88
f 140/114/3 124/115/2 106/116/60
f 137/5/5 120/117/89 121/118/90
f 120/117/89 119/119/91 110/120/92
f 140/3/3 109/113/88 119/119/91
f 173/64/28 158/121/93 155/122/68
f 174/86/67 173/123/28 155/87/68
f 178/124/94 171/125/95 167/126/96
f 167/126/96 159/127/97 182/67/52
f 178/124/94 167/126/96 182/67/52
f 172/128/98 182/67/52 159/127/97
f 212/16/16 218/15/15 191/35/30
f 4/129/99 15/130/100 6/131/101
f 29/132/102 55/133/103 24/134/104
f 29/132/102 9/135/105 55/133/103
f 9/135/105 7/136/106 55/133/103
f 9/135/105 28/137/107 7/136/106
f 15/130/100 49/138/108 16/139/109
f 49/138/108 43/140/110 16/139/109
f 9/135/105 31/141/111 28/137/107
f 108/74/58 96/142/112 105/75/59
f 100/73/57 90/111/87 106/143/60
f 142/144/35 123/145/113 145/146/114
f 133/147/36 123/148/113 142/149/35
f 144/150/115 145/151/114 123/152/113
f 159/127/97 143/1/1 146/4/4
f 176/85/66 190/153/116 192/154/117
f 161/155/118 190/153/116 176/85/66
f 190/153/116 161/155/118 204/156/119
f 204/156/119 161/155/118 162/157/120
f 163/158/63 175/159/65 193/160/121
f 193/160/121 175/159/65 186/161/122
f 179/162/123 177/163/124 200/164/125
f 103/165/126 98/166/22 114/167/41
f 104/37/32 98/166/22 103/165/126
f 92/28/25 98/166/22 104/37/32
f 90/168/87 101/169/127 109/113/88
f 109/113/88 106/112/60 90/168/87
f 102/170/128 107/36/31 110/171/92
f 110/120/92 109/113/88 102/172/128
f 194/173/129 213/174/130 186/161/122
f 184/175/131 192/154/117 206/176/132
f 206/176/132 199/177/133 184/175/131
f 188/178/49 199/179/133 206/180/132
f 206/180/132 201/34/29 188/178/49
f 38/181/134 37/182/135 81/183/136
f 140/3/3 119/119/91 120/117/89
f 140/3/3 120/117/89 137/5/5
f 179/162/123 153/184/137 177/163/124
f 179/162/123 191/185/30 172/186/98
f 240/187/138 237/188/139 243/19/11
f 37/189/135 1/190/140 39/191/141
f 47/192/142 1/193/140 38/194/134
f 23/195/143 54/196/144 5/197/71
f 14/198/79 23/199/143 57/200/145
f 54/196/144 23/195/143 14/100/79
f 55/133/103 23/195/143 24/134/104
f 57/201/145 23/195/143 55/133/103
f 55/133/103 7/136/106 57/201/145
f 165/202/64 163/158/63 144/150/115
f 144/150/115 180/203/146 165/202/64
f 180/203/146 144/150/115 147/204/147
f 155/205/68 160/206/148 176/207/66
f 147/204/147 171/208/95 180/203/146
f 171/208/95 147/204/147 148/209/7
f 115/210/149 97/211/150 111/212/151
f 99/213/152 96/214/112 108/215/58
f 108/215/58 111/216/151 99/213/152
f 97/211/150 112/217/153 114/218/41
f 186/219/122 175/84/65 165/83/64
f 194/173/129 186/161/122 165/202/64
f 165/202/64 180/203/146 194/173/129
f 192/154/117 184/175/131 176/85/66
f 174/86/67 176/85/66 184/175/131
f 174/86/67 184/175/131 199/177/133
f 199/179/133 188/178/49 174/220/67
f 194/173/129 180/203/146 171/208/95
f 194/173/129 171/208/95 198/221/53
f 43/140/110 2/72/56 16/139/109
f 43/140/110 41/70/54 2/72/56
f 71/222/154 70/223/155 72/224/156
f 72/224/156 45/225/55 67/226/157
f 69/227/19 61/228/21 70/223/155
f 129/54/46 111/216/151 108/215/58
f 108/215/58 123/229/113 129/54/46
f 126/230/158 123/229/113 108/215/58
f 126/230/158 108/215/58 100/231/57
f 126/230/158 100/231/57 118/232/61
f 126/230/158 118/232/61 141/233/6
f 124/115/2 118/232/61 106/116/60
f 124/115/2 141/233/6 118/232/61
f 164/234/159 170/235/160 181/236/161
f 183/237/162 170/235/160 166/238/163
f 183/237/162 181/236/161 170/235/160
f 245/239/164 235/240/165 205/65/8
f 245/241/164 205/242/8 232/243/10
f 208/244/12 243/19/11 237/188/139
f 240/187/138 245/241/164 232/243/10
f 240/187/138 243/19/11 245/241/164
f 244/245/166 245/241/164 243/19/11
f 244/245/166 236/14/14 245/241/164
f 244/245/166 218/15/15 236/14/14
f 218/246/15 244/247/166 238/248/18
f 244/245/166 243/19/11 238/18/18
f 21/99/78 25/98/77 27/249/167
f 27/249/167 25/98/77 28/137/107
f 27/249/167 36/250/168 8/251/169
f 36/250/168 34/252/170 8/251/169
f 10/101/80 8/251/169 11/102/81
f 11/102/81 8/251/169 34/252/170
f 3/253/171 36/250/168 27/249/167
f 36/250/168 3/253/171 17/254/172
f 34/252/170 36/250/168 17/254/172
f 42/255/173 48/256/174 60/257/175
f 60/257/175 48/256/174 63/258/176
f 48/256/174 51/259/177 74/22/20
f 74/22/20 63/258/176 48/256/174
f 53/260/178 46/261/179 40/262/180
f 53/260/178 50/263/181 46/261/179
f 51/259/177 52/264/182 74/22/20
f 61/23/21 74/22/20 52/264/182
f 171/125/95 148/7/7 167/126/96
f 167/126/96 148/7/7 143/1/1
f 172/128/98 159/127/97 146/4/4
f 143/1/1 159/127/97 167/126/96
f 192/265/117 211/266/183 229/267/184
f 3/253/171 28/137/107 31/141/111
f 17/254/172 3/253/171 31/141/111
f 16/139/109 2/72/56 31/268/111
f 17/254/172 31/141/111 2/269/56
f 52/270/182 44/271/185 70/223/155
f 72/224/156 70/223/155 44/271/185
f 72/224/156 44/271/185 45/225/55
f 61/228/21 52/270/182 70/223/155
f 68/272/186 77/26/24 73/273/187
f 77/26/24 80/25/23 73/273/187
f 80/25/23 66/31/27 73/273/187
f 219/274/188 183/237/162 203/275/189
f 181/236/161 183/237/162 219/274/188
f 204/276/119 202/277/190 190/278/116
f 79/279/191 75/280/192 65/281/193
f 81/282/136 79/279/191 65/281/193
f 79/279/191 62/283/194 75/280/192
f 62/283/194 79/279/191 77/26/24
f 77/26/24 68/272/186 62/283/194
f 169/284/195 163/285/63 187/286/196
f 187/287/196 163/158/63 193/160/121
f 189/288/197 164/234/159 181/236/161
f 183/237/162 166/238/163 169/289/195
f 233/290/198 255/291/199 248/292/200
f 248/292/200 234/293/201 233/290/198
f 233/290/198 227/294/202 255/291/199
f 242/295/203 248/292/200 255/291/199
f 255/291/199 254/296/204 242/295/203
f 248/292/200 246/297/205 234/293/201
f 86/105/84 96/142/112 85/103/82
f 100/73/57 93/109/85 90/111/87
f 39/191/141 13/94/73 42/298/173
f 6/299/101 20/300/206 4/301/99
f 29/132/102 20/302/206 6/303/101
f 9/135/105 29/132/102 31/141/111
f 29/132/102 6/303/101 31/141/111
f 25/98/77 7/136/106 28/137/107
f 15/130/100 16/139/109 6/131/101
f 31/268/111 6/131/101 16/139/109
f 60/257/175 58/304/207 42/255/173
f 78/305/208 84/306/86 69/307/19
f 70/308/155 78/305/208 69/307/19
f 66/31/27 82/309/209 67/310/157
f 78/305/208 70/308/155 71/311/154
f 83/312/210 71/222/154 72/224/156
f 83/312/210 72/224/156 67/226/157
f 82/309/209 66/31/27 87/32/26
f 144/150/115 123/152/113 132/313/211
f 144/150/115 132/313/211 138/314/212
f 138/314/212 141/315/6 147/204/147
f 148/209/7 147/204/147 141/315/6
f 152/316/213 153/184/137 131/79/62
f 153/184/137 146/80/4 131/79/62
f 183/237/162 169/289/195 187/317/196
f 68/272/186 64/318/214 59/319/215
f 68/272/186 73/273/187 64/318/214
f 49/138/108 64/320/214 73/321/187
f 43/140/110 49/138/108 73/321/187
f 86/105/84 93/109/85 105/75/59
f 105/75/59 96/142/112 86/105/84
f 105/75/59 93/109/85 100/73/57
f 147/204/147 144/150/115 138/314/212
f 188/322/49 173/123/28 174/86/67
f 196/66/51 178/124/94 182/67/52
f 182/67/52 172/128/98 191/68/30
f 171/125/95 178/124/94 198/69/53
f 178/124/94 196/66/51 198/69/53
f 227/323/202 203/324/189 187/287/196
f 217/325/216 227/323/202 187/287/196
f 233/326/198 219/274/188 203/275/189
f 225/327/217 219/274/188 234/328/201
f 233/326/198 203/275/189 227/329/202
f 66/31/27 43/330/110 73/273/187
f 41/331/54 43/330/110 66/31/27
f 67/310/157 41/331/54 66/31/27
f 103/165/126 113/332/218 104/37/32
f 113/332/218 107/36/31 104/37/32
f 127/59/48 128/56/47 115/333/149
f 128/56/47 112/334/153 115/333/149
f 127/59/48 111/216/151 129/54/46
f 128/335/47 136/336/38 112/337/153
f 136/338/38 114/46/41 112/339/153
f 114/46/41 136/338/38 122/47/42
f 134/340/219 136/43/38 150/45/40
f 152/316/213 139/341/220 134/342/219
f 156/343/221 150/45/40 164/234/159
f 154/344/222 158/121/93 162/345/120
f 157/346/223 168/347/224 152/316/213
f 192/348/117 190/278/116 202/277/190
f 213/174/130 193/160/121 186/161/122
f 53/260/178 21/99/78 27/249/167
f 27/249/167 56/349/225 53/260/178
f 27/249/167 8/251/169 56/349/225
f 56/349/225 8/251/169 10/101/80
f 44/271/185 52/270/182 11/350/81
f 28/137/107 3/253/171 27/249/167
f 2/351/56 45/225/55 17/352/172
f 44/271/185 11/350/81 34/353/170
f 44/271/185 34/353/170 17/352/172
f 44/271/185 17/352/172 45/225/55
f 37/354/135 39/355/141 58/304/207
f 62/356/194 47/192/142 75/357/192
f 20/300/206 47/192/142 62/356/194
f 59/358/215 20/300/206 62/356/194
f 4/301/99 20/300/206 59/358/215
f 47/192/142 38/194/134 65/359/193
f 75/357/192 47/192/142 65/359/193
f 119/360/91 109/361/88 110/362/92
f 179/363/123 200/364/125 212/16/16
f 212/16/16 191/35/30 179/363/123
f 239/365/226 255/291/199 227/294/202
f 255/291/199 239/365/226 254/296/204
f 241/366/227 242/295/203 254/296/204
f 254/296/204 239/365/226 230/367/228
f 241/366/227 254/296/204 230/367/228
f 247/368/229 241/366/227 230/367/228
f 251/369/230 247/368/229 240/187/138
f 240/187/138 247/368/229 237/188/139
f 39/355/141 42/255/173 58/304/207
f 115/210/149 112/217/153 97/211/150
f 127/59/48 115/333/149 111/216/151
f 132/370/211 123/229/113 126/230/158
f 132/370/211 126/230/158 138/371/212
f 138/371/212 126/230/158 141/233/6
f 131/79/62 139/341/220 152/316/213
f 195/372/231 164/234/159 189/288/197
f 197/373/232 204/374/119 162/345/120
f 197/373/232 162/345/120 185/63/50
f 195/375/231 200/164/125 157/346/223
f 168/347/224 157/346/223 200/164/125
f 177/163/124 168/347/224 200/164/125
f 189/288/197 228/376/233 209/377/234
f 231/378/235 209/379/234 252/380/236
f 215/381/237 197/373/232 210/382/238
f 222/383/239 210/382/238 185/63/50
f 222/383/239 185/63/50 205/65/8
f 231/378/235 226/384/240 209/379/234
f 226/384/240 200/364/125 209/379/234
f 226/384/240 212/16/16 200/364/125
f 252/380/236 209/379/234 228/385/233
f 215/381/237 210/382/238 222/383/239
f 222/383/239 205/65/8 235/240/165
f 227/323/202 217/325/216 239/386/226
f 213/174/130 239/386/226 217/325/216
f 221/387/241 211/388/183 242/295/203
f 241/366/227 221/387/241 242/295/203
f 229/389/184 211/388/183 221/387/241
f 223/390/242 221/387/241 241/366/227
f 223/390/242 241/366/227 251/369/230
f 223/390/242 251/369/230 232/243/10
f 241/366/227 247/368/229 251/369/230
f 247/368/229 230/367/228 237/188/139
f 232/243/10 251/369/230 240/187/138
f 15/391/100 4/301/99 59/358/215
f 59/358/215 64/392/214 15/391/100
f 49/138/108 15/130/100 64/320/214
f 91/393/243 87/394/26 102/172/128
f 102/172/128 101/169/127 91/393/243
f 101/169/127 90/168/87 91/393/243
f 102/170/128 87/29/26 92/28/25
f 195/372/231 189/288/197 209/377/234
f 210/382/238 197/373/232 185/63/50
f 200/164/125 195/375/231 209/395/234
f 213/174/130 220/396/244 239/386/226
f 239/386/226 220/396/244 230/397/228
f 221/398/241 192/399/117 229/400/184
f 216/401/9 223/390/242 232/243/10
f 237/402/139 230/397/228 220/396/244
f 237/402/139 220/396/244 194/173/129
f 237/402/139 194/173/129 208/403/12
f 1/190/140 26/92/70 39/191/141
f 1/190/140 47/404/142 33/405/245
f 30/406/246 1/190/140 33/405/245
f 30/406/246 33/405/245 23/195/143
f 23/195/143 33/405/245 35/407/247
f 26/92/70 1/190/140 30/406/246
f 26/92/70 30/406/246 5/197/71
f 5/197/71 30/406/246 23/195/143
f 33/405/245 47/404/142 20/302/206
f 20/302/206 35/407/247 33/405/245
f 35/407/247 24/134/104 23/195/143
f 20/302/206 29/132/102 35/407/247
f 24/408/104 35/409/247 29/410/102
f 57/201/145 25/98/77 14/100/79
f 103/411/126 114/412/41 116/413/43
f 116/51/43 113/332/218 103/165/126
f 117/50/45 113/332/218 116/51/43
f 107/36/31 113/332/218 117/50/45
f 154/414/222 160/415/148 155/416/68
f 162/417/120 161/418/118 154/419/222
f 161/418/118 160/420/148 154/419/222
f 145/151/114 144/150/115 163/158/63
f 177/163/124 153/184/137 168/347/224
f 179/162/123 172/186/98 153/184/137
f 101/169/127 102/172/128 109/113/88
f 102/170/128 92/28/25 107/36/31
f 131/79/62 121/421/90 139/341/220
f 183/237/162 187/317/196 203/275/189
f 189/288/197 225/327/217 228/376/233
f 181/236/161 225/327/217 189/288/197
f 181/236/161 219/274/188 225/327/217
f 215/422/237 214/423/248 197/424/232
f 214/423/248 204/276/119 197/424/232
f 214/423/248 211/425/183 204/276/119
f 211/425/183 202/277/190 204/276/119
f 37/426/135 38/194/134 1/193/140
f 45/225/55 41/427/54 67/226/157
f 91/428/243 78/305/208 87/32/26
f 91/428/243 90/429/87 78/305/208
f 90/430/87 84/431/86 78/432/208
f 82/309/209 87/32/26 95/433/249
f 87/32/26 78/305/208 95/433/249
f 78/305/208 71/311/154 95/433/249
f 95/433/249 71/311/154 83/434/210
f 95/433/249 83/434/210 82/309/209
f 67/310/157 82/309/209 83/434/210
f 89/435/250 88/436/251 97/211/150
f 97/437/150 88/438/251 99/439/152
f 96/440/112 99/441/152 85/442/82
f 99/439/152 88/438/251 85/443/82
f 97/211/150 98/444/22 89/435/250
f 77/445/24 89/435/250 98/444/22
f 129/54/46 123/229/113 133/55/36
f 81/446/136 37/447/135 76/448/252
f 76/448/252 37/447/135 58/449/207
f 62/283/194 68/272/186 59/319/215
f 81/450/136 65/359/193 38/194/134
f 89/435/250 79/451/191 88/436/251
f 85/452/82 81/282/136 76/453/252
f 94/454/83 85/452/82 76/453/252
f 88/455/251 79/279/191 81/282/136
f 88/455/251 81/282/136 85/452/82
f 77/26/24 79/279/191 89/456/250
f 134/342/219 122/457/42 136/458/38
f 125/52/44 122/457/42 134/342/219
f 139/341/220 125/52/44 134/342/219
f 139/341/220 117/50/45 125/52/44
f 139/341/220 121/421/90 117/50/45
f 168/459/224 153/460/137 152/461/213
f 146/80/4 153/184/137 172/186/98
f 220/396/244 213/174/130 194/173/129
f 192/462/117 221/463/241 206/464/132
f 221/463/241 223/465/242 206/464/132
f 223/466/242 201/34/29 206/180/132
f 216/9/9 201/34/29 223/466/242
f 208/403/12 194/173/129 198/221/53
f 249/467/253 235/240/165 245/239/164
f 249/468/253 245/241/164 236/14/14
f 212/16/16 226/384/240 236/14/14
f 40/262/180 5/197/71 54/196/144
f 12/88/69 5/90/71 40/469/180
f 14/100/79 40/262/180 54/196/144
f 40/469/180 46/470/179 12/88/69
f 48/471/174 13/94/73 18/91/72
f 48/256/174 42/255/173 13/472/73
f 18/91/72 32/95/74 48/471/174
f 32/473/74 12/88/69 46/470/179
f 50/474/181 32/473/74 46/470/179
f 48/471/174 32/95/74 19/96/75
f 48/471/174 19/96/75 51/475/177
f 40/262/180 14/100/79 21/99/78
f 40/262/180 21/99/78 53/260/178
f 22/476/76 32/473/74 50/474/181
f 50/477/181 53/478/178 22/479/76
f 53/480/178 10/481/80 22/482/76
f 53/260/178 56/349/225 10/101/80
f 52/483/182 51/484/177 19/485/75
f 52/486/182 19/96/75 11/102/81
f 97/487/150 99/213/152 111/216/151
f 97/211/150 114/218/41 98/444/22
f 107/36/31 120/488/89 110/171/92
f 117/50/45 121/421/90 107/36/31
f 121/489/90 120/490/89 107/491/31
f 150/45/40 156/343/221 134/340/219
f 156/492/221 157/346/223 134/342/219
f 155/416/68 158/493/93 154/414/222
f 152/316/213 134/342/219 157/346/223
f 151/494/33 142/495/35 169/496/195
f 169/496/195 142/495/35 163/158/63
f 142/495/35 145/151/114 163/158/63
f 164/234/159 149/42/37 170/235/160
f 164/234/159 150/45/40 149/42/37
f 169/289/195 166/238/163 151/38/33
f 166/238/163 170/235/160 151/38/33
f 170/235/160 149/42/37 151/38/33
f 164/234/159 195/372/231 156/343/221
f 157/346/223 156/492/221 195/375/231
f 185/63/50 162/345/120 158/121/93
f 185/63/50 158/121/93 173/64/28
f 161/497/118 176/498/66 160/499/148
f 233/326/198 234/328/201 219/274/188
f 225/500/217 234/293/201 246/297/205
f 246/297/205 228/385/233 225/500/217
f 246/297/205 248/292/200 250/501/254
f 248/292/200 214/502/248 250/501/254
f 246/297/205 250/501/254 228/385/233
f 250/501/254 214/502/248 215/503/237
f 248/292/200 242/295/203 214/502/248
f 214/502/248 242/295/203 211/388/183
f 25/98/77 57/201/145 7/136/106
f 13/94/73 39/191/141 26/92/70
f 76/504/252 58/304/207 94/505/83
f 58/304/207 60/257/175 94/505/83
f 63/258/176 94/505/83 60/257/175
f 94/506/83 63/507/176 84/508/86
f 84/509/86 63/258/176 74/22/20
f 84/509/86 74/22/20 69/21/19
f 137/81/5 121/421/90 131/79/62
f 192/348/117 202/277/190 211/425/183
f 187/287/196 193/160/121 217/325/216
f 213/174/130 217/325/216 193/160/121
f 228/385/233 250/501/254 252/380/236
f 252/380/236 250/501/254 253/510/255
f 250/511/254 215/381/237 253/512/255
f 252/380/236 253/510/255 231/378/235
f 253/512/255 215/381/237 222/383/239
f 249/467/253 253/512/255 222/383/239
f 235/240/165 249/467/253 222/383/239
f 226/384/240 231/378/235 253/510/255
f 236/14/14 226/384/240 253/510/255
f 253/510/255 249/468/253 236/14/14
