# Blender 4.3.2
# www.blender.org
mtllib fused_model.mtl
o rod-12mm_mesh
v -0.004362 -0.025073 0.002863
v 0.002282 -0.026526 -0.001204
v -0.000095 -0.026883 0.002013
v -0.002631 -0.026919 -0.002262
v 0.000633 -0.023030 0.004822
v -0.006750 -0.024249 -0.000225
v 0.002006 -0.024899 0.003498
v -0.003240 -0.024405 -0.005742
v 0.003900 -0.025065 0.000524
v 0.001077 -0.024232 -0.005796
v -0.004309 -0.020640 0.003356
v -0.006677 -0.022410 0.000232
v 0.004575 -0.024327 -0.001743
v -0.006037 -0.020333 -0.004353
v 0.003364 -0.020219 -0.003429
v 0.003258 -0.020556 0.003114
v 0.000580 -0.012142 0.003886
v -0.002317 -0.012820 -0.004542
v 0.004131 -0.014292 0.000321
v -0.005897 -0.013687 -0.000491
v -0.000335 -0.015772 -0.004935
v -0.003603 -0.009655 0.002991
v 0.002343 -0.012449 -0.003974
v -0.005295 -0.013103 0.001846
v -0.004753 -0.012422 -0.002752
v 0.003657 -0.006596 -0.003000
v 0.003058 -0.009403 0.002425
v 0.004397 -0.005177 -0.000008
v -0.006116 -0.005196 -0.001240
v -0.004073 -0.004642 -0.004755
v 0.000423 -0.004244 0.004534
v -0.004189 -0.004382 0.002885
v 0.000367 -0.002583 -0.004765
v 0.003111 -0.004244 0.003364
v -0.005442 0.000604 -0.001397
v 0.003610 0.000428 -0.002107
v -0.002741 0.001998 0.003563
v -0.001815 0.001040 -0.004895
v 0.002838 0.000995 0.002946
v -0.004875 0.002897 0.001610
v 0.000483 0.005081 0.004433
v 0.004321 0.007614 -0.000252
v -0.004742 0.004773 -0.004435
v -0.006182 0.006802 -0.001442
v 0.003323 0.010065 -0.002937
v -0.004120 0.012010 -0.003757
v -0.005042 0.010230 0.002141
v 0.003481 0.013981 0.001374
v -0.001951 0.016782 0.003740
v 0.001995 0.014296 0.003257
v 0.003381 0.019095 -0.003324
v 0.000735 0.012548 -0.004615
v -0.005752 0.014539 0.000313
v -0.006257 0.021926 -0.000943
v -0.004400 0.020391 -0.004194
v 0.002929 0.023383 -0.004690
v 0.002494 0.023716 0.004614
v -0.001316 0.024315 -0.005872
v -0.003362 0.022373 0.004363
v 0.005120 0.023756 -0.001440
v 0.004888 0.021417 0.000435
v -0.001571 0.025095 0.004262
v -0.006212 0.024492 0.000513
v -0.004086 0.024203 -0.004466
v -0.001342 0.026468 -0.000935
v 0.002933 0.025640 -0.001084
vn -0.5398 -0.5193 0.6626
vn 0.1158 -0.9257 0.3602
vn 0.1642 -0.2141 0.9629
vn -0.9028 -0.4089 0.1332
vn -0.2143 -0.9351 -0.2822
vn -0.7988 0.5790 0.1636
vn -0.9820 -0.0038 0.1888
vn -0.4576 0.0286 0.8887
vn -0.2501 -0.1097 0.9620
vn -0.1135 0.6474 0.7537
vn 0.5519 0.3284 0.7666
vn -0.3880 -0.0145 0.9216
vn 0.7433 -0.0071 0.6690
vn 0.1504 -0.0359 0.9880
vn 0.9152 -0.0191 -0.4025
vn 0.9956 -0.0111 0.0935
vn -0.5707 0.0152 -0.8210
vn -0.7060 -0.1139 -0.6990
vn -0.0617 0.5286 -0.8466
vn 0.5294 -0.5545 0.6421
vn -0.9696 0.0498 -0.2394
vn -0.5749 0.0668 0.8155
vn -0.9631 -0.0227 0.2683
vn 0.9787 0.0271 0.2033
vn 0.6139 -0.0524 -0.7876
vn 0.8256 0.0237 -0.5637
vn -0.5499 0.0472 -0.8339
vn 0.2698 0.0504 -0.9616
vn -0.2424 0.0369 -0.9695
vn -0.9985 -0.0243 -0.0483
vn -0.9740 0.0399 -0.2232
vn -0.2064 0.0267 -0.9781
vn 0.4906 0.0399 0.8705
vn 0.7883 -0.0437 0.6137
vn 0.1805 -0.0257 -0.9832
vn -0.7722 -0.0148 0.6352
vn 0.2867 0.0194 0.9578
vn -0.6101 0.0566 0.7903
vn -0.9931 0.1169 0.0013
vn -0.8731 0.2070 0.4415
vn -0.6969 -0.0521 0.7152
vn 0.0799 -0.0167 0.9967
vn -0.8802 0.0198 0.4741
vn 0.7558 -0.0046 -0.6548
vn 0.7836 0.1094 -0.6115
vn 0.3393 -0.3965 -0.8530
vn 0.1386 0.0639 -0.9883
vn 0.9064 -0.3752 -0.1943
vn 0.7358 -0.0976 0.6701
vn 0.7798 -0.0233 0.6256
vn 0.9812 0.0005 0.1931
vn 0.8216 -0.1260 -0.5560
vn -0.9994 -0.0103 -0.0343
vn -0.5870 0.0176 -0.8094
vn 0.5296 0.4203 -0.7368
vn 0.9962 0.0311 0.0819
vn -0.5134 0.4820 -0.7100
vn -0.1243 0.9896 -0.0723
vn 0.4609 0.8853 -0.0613
vn 0.9552 0.2776 -0.1025
vn 0.4206 -0.9039 -0.0772
vn 0.8208 -0.4743 0.3183
vn -0.3631 -0.4639 -0.8080
vn -0.7754 0.0826 -0.6260
vn -0.7659 0.0601 -0.6402
vn 0.7661 -0.0232 0.6423
vt 0.094666 0.966197
vt 0.045362 1.000000
vt -0.000000 0.924583
vt 0.723256 0.222502
vt 0.658066 0.233167
vt 0.742155 0.167884
vt 0.176231 0.014530
vt 0.167486 0.205863
vt 0.084487 0.052867
vt 0.070222 0.160202
vt 0.062146 -0.000000
vt 0.000000 0.025103
vt 0.076231 0.444824
vt 0.005923 0.462595
vt 0.021222 0.384177
vt 0.549999 0.753392
vt 0.564695 0.647706
vt 0.642743 0.719025
vt 0.478535 0.240785
vt 0.481459 0.080464
vt 0.543703 0.003400
vt 0.687648 0.153289
vt 0.673384 0.092478
vt 0.699357 0.070700
vt 0.194824 0.064470
vt 0.089639 0.880735
vt 0.163112 0.916747
vt 0.169254 0.952310
vt 0.383126 0.735713
vt 0.299210 0.703316
vt 0.325758 0.589504
vt 0.194824 0.557993
vt 0.253794 0.515376
vt 0.228102 0.713882
vt 0.417258 0.571190
vt 0.427586 0.459307
vt 0.494556 0.561175
vt 0.219378 0.447281
vt 0.787669 0.706723
vt 0.743542 0.766093
vt 0.743542 0.632807
vt 0.634130 0.576245
vt 0.589725 0.574046
vt 0.523739 0.450015
vt 0.549999 0.226420
vt 0.131288 0.287791
vt 0.018522 0.715573
vt 0.090046 0.669415
vt 0.166092 0.749035
vt 0.127092 0.736703
vt 0.102260 0.568235
vt 0.016097 0.563489
vt 0.132307 0.428967
vt 0.331698 0.454170
vt 0.249030 0.224223
vt 0.309025 0.269483
vt 0.360859 0.314781
vt 0.397810 0.190792
vt 0.410305 0.050385
vt 0.326601 0.851736
vt 0.266499 0.931422
vt 0.252202 0.769423
vt 0.369146 0.929159
vt 0.748670 0.541906
vt 0.691366 0.569898
vt 0.712652 0.506228
vt 0.729382 0.632807
vt 0.367108 0.048805
vt 0.297527 0.096047
vt 0.419124 0.341036
vt 0.481403 0.380810
vt 0.269545 0.014504
vt 0.194824 0.000000
vt 0.375200 0.560472
vt 0.388953 -0.000000
vt 0.489212 0.007156
vt 0.658495 0.308857
vt 0.604359 0.370581
vt 0.583914 0.276745
vt 0.549999 0.353223
vt 0.572147 0.412848
vt 0.192835 0.355472
vt 0.770446 0.431575
vt 0.742155 0.357826
vt 0.770446 0.220399
vt 0.638433 0.256758
vt 0.738680 0.279478
vt 0.611747 0.165203
vt 0.549999 0.211112
vt 0.565489 0.125447
vt 0.609340 0.111770
vt 0.603739 0.256758
vt 0.456579 0.709726
vt 0.408943 0.733448
vt 0.512810 0.716348
vt 0.738680 0.374105
vt 0.642743 0.510659
vt 0.020214 0.206954
vt 0.549999 0.477306
vt 0.694440 0.443593
vt 0.602490 0.451698
vt 0.183274 0.586113
vt 0.388953 0.901144
vt 0.465283 0.864017
vt 0.394976 0.936852
vt 0.519978 0.940530
vt 0.638485 0.451698
vt 0.743542 0.632807
vt 0.722553 0.743938
vt 0.670075 0.721061
vt 0.642743 0.632807
vt 0.770446 0.220399
vt 0.784552 0.281452
vt 0.770446 0.445352
vt 0.642743 0.618127
vt 0.178813 0.474430
vt 0.631207 0.039226
vt 0.343121 0.004478
vt 0.800654 0.220399
vt 0.742155 0.220399
vt 0.785741 -0.000000
vt 0.549999 0.000000
vt 0.475292 0.985671
vt 0.799386 0.487909
vt 0.748670 0.508772
vt 0.748670 0.451698
vt 0.710705 0.451698
vt 0.388953 0.441684
s 1
usemtl FusedMaterial
f 1/1/1 3/2/2 5/3/3
f 6/4/4 4/5/5 1/6/1
f 63/7/6 53/8/7 59/9/8
f 53/8/7 49/10/9 59/9/8
f 62/11/10 63/7/6 59/9/8
f 62/11/10 59/9/8 57/12/11
f 37/13/12 39/14/13 41/15/14
f 36/16/15 42/17/16 39/18/13
f 46/19/17 55/20/18 58/21/19
f 3/22/2 7/23/20 5/24/3
f 54/25/21 53/8/7 63/7/6
f 1/1/1 5/3/3 11/26/22
f 11/26/22 12/27/23 1/1/1
f 12/27/23 6/28/4 1/1/1
f 19/29/24 23/30/25 26/31/26
f 30/32/27 33/33/28 18/34/29
f 29/35/30 35/36/31 30/37/27
f 33/33/28 30/32/27 38/38/32
f 41/39/14 39/40/13 50/41/33
f 50/42/33 39/18/13 48/43/34
f 39/18/13 42/17/16 48/43/34
f 38/44/32 46/19/17 52/45/35
f 47/46/36 49/10/9 53/8/7
f 17/47/37 22/48/38 11/26/22
f 20/49/39 11/26/22 24/50/40
f 22/48/38 24/50/40 11/26/22
f 32/51/41 31/52/42 37/13/12
f 40/53/43 32/51/41 37/13/12
f 36/54/15 52/55/35 45/56/44
f 42/57/16 36/54/15 45/56/44
f 46/19/17 53/58/7 54/59/21
f 15/60/45 10/61/46 21/62/47
f 15/60/45 21/62/47 23/30/25
f 19/29/24 15/60/45 23/30/25
f 13/63/48 15/60/45 19/29/24
f 31/64/42 27/65/49 34/66/50
f 17/67/37 27/65/49 31/64/42
f 61/68/51 45/56/44 51/69/52
f 44/70/53 43/71/54 35/36/31
f 3/22/2 1/6/1 4/5/5
f 46/19/17 44/70/53 53/58/7
f 51/69/52 52/55/35 56/72/55
f 58/73/19 56/72/55 52/55/35
f 26/31/26 28/74/56 19/29/24
f 23/30/25 21/62/47 18/34/29
f 28/74/56 26/31/26 36/54/15
f 63/75/6 64/76/57 54/59/21
f 65/77/58 66/78/59 58/79/19
f 56/80/55 58/79/19 66/78/59
f 56/80/55 66/78/59 60/81/60
f 36/54/15 26/31/26 33/33/28
f 37/13/12 41/15/14 49/10/9
f 47/46/36 37/13/12 49/10/9
f 47/46/36 53/8/7 44/82/53
f 43/71/54 44/70/53 46/19/17
f 38/83/32 43/84/54 46/85/17
f 64/86/57 63/87/6 65/77/58
f 65/77/58 58/79/19 64/86/57
f 2/88/61 4/5/5 10/89/46
f 13/90/48 2/88/61 10/89/46
f 13/90/48 9/91/62 2/88/61
f 10/89/46 4/5/5 8/92/63
f 20/49/39 24/50/40 22/48/38
f 25/93/64 20/94/39 29/35/30
f 30/37/27 25/93/64 29/35/30
f 18/95/29 25/93/64 30/37/27
f 65/77/58 63/87/6 62/96/10
f 28/97/56 34/66/50 27/65/49
f 49/10/9 50/98/33 57/12/11
f 50/42/33 48/43/34 61/99/51
f 57/100/11 61/101/51 60/81/60
f 22/48/38 17/47/37 31/52/42
f 29/102/30 22/48/38 32/51/41
f 20/49/39 22/48/38 29/102/30
f 29/102/30 32/51/41 40/53/43
f 12/103/23 14/104/65 6/105/4
f 14/104/65 8/106/63 6/105/4
f 11/26/22 5/3/3 17/47/37
f 49/10/9 57/12/11 59/9/8
f 57/107/11 50/42/33 61/99/51
f 17/108/37 5/109/3 16/110/66
f 17/108/37 16/110/66 19/111/24
f 14/104/65 12/103/23 20/94/39
f 18/112/29 21/113/47 10/114/46
f 38/44/32 35/36/31 43/71/54
f 12/27/23 11/26/22 20/49/39
f 26/31/26 23/30/25 33/33/28
f 23/30/25 18/34/29 33/33/28
f 49/10/9 41/15/14 50/98/33
f 54/59/21 64/76/57 55/20/18
f 64/76/57 58/21/19 55/20/18
f 17/67/37 19/115/24 27/65/49
f 55/20/18 46/19/17 54/59/21
f 52/45/35 46/19/17 58/21/19
f 13/63/48 10/61/46 15/60/45
f 14/104/65 20/94/39 25/93/64
f 18/95/29 14/104/65 25/93/64
f 30/37/27 35/36/31 38/44/32
f 36/54/15 33/33/28 52/55/35
f 33/33/28 38/38/32 52/55/35
f 48/43/34 42/17/16 61/99/51
f 65/77/58 62/96/10 66/78/59
f 62/96/10 57/100/11 66/78/59
f 66/78/59 57/100/11 60/81/60
f 29/102/30 40/53/43 35/116/31
f 7/23/20 3/22/2 9/91/62
f 2/88/61 3/22/2 4/5/5
f 3/22/2 2/88/61 9/91/62
f 5/24/3 7/23/20 16/117/66
f 31/52/42 32/51/41 22/48/38
f 16/117/66 7/23/20 9/91/62
f 13/90/48 16/117/66 9/91/62
f 52/55/35 51/69/52 45/56/44
f 45/56/44 61/68/51 42/57/16
f 60/118/60 61/68/51 51/69/52
f 56/72/55 60/118/60 51/69/52
f 8/106/63 14/104/65 18/95/29
f 10/119/46 8/120/63 18/121/29
f 35/116/31 40/53/43 47/46/36
f 47/46/36 44/82/53 35/116/31
f 37/13/12 47/46/36 40/53/43
f 16/117/66 13/90/48 19/122/24
f 27/65/49 19/115/24 28/97/56
f 8/106/63 4/123/5 6/105/4
f 37/13/12 31/52/42 39/14/13
f 31/124/42 34/125/50 39/126/13
f 34/66/50 28/97/56 39/127/13
f 28/74/56 36/54/15 39/128/13
