# Blender 4.3.2
# www.blender.org
mtllib fused_model.mtl
o rod-8mm_mesh
v -0.000453 -0.027444 0.001061
v -0.001506 -0.026962 -0.000351
v 0.001264 -0.026873 0.002080
v 0.000065 -0.027063 -0.000743
v 0.002123 -0.026786 0.000680
v -0.003014 -0.026386 0.000746
v -0.001553 -0.025766 0.003671
v -0.000208 -0.025542 -0.001867
v 0.002857 -0.024718 -0.001456
v -0.003587 -0.024222 0.001989
v -0.003371 -0.024762 -0.000101
v -0.002625 -0.025335 0.002941
v -0.000087 -0.026168 0.003627
v 0.001263 -0.024619 0.004477
v 0.002962 -0.025272 0.002539
v -0.000709 -0.023615 0.004743
v 0.002338 -0.024226 0.003870
v -0.002160 -0.024362 -0.001666
v 0.003553 -0.023847 0.001545
v -0.001080 -0.023948 -0.002006
v 0.003657 -0.024811 0.000221
v 0.002608 -0.023661 -0.001970
v -0.002037 -0.023618 0.004076
v -0.003029 -0.022772 -0.000311
v 0.003492 -0.023194 -0.000292
v -0.003464 -0.021621 0.001250
v -0.001726 -0.021015 0.003896
v -0.001460 -0.019410 -0.001733
v 0.001615 -0.022511 0.003950
v 0.002733 -0.022301 0.002682
v 0.000352 -0.019298 0.004318
v 0.001672 -0.018771 -0.001727
v 0.003349 -0.019808 0.001005
v 0.002858 -0.020025 -0.000809
v 0.001646 -0.021054 -0.001532
v -0.002942 -0.017548 0.002578
v 0.002356 -0.019056 0.003049
v -0.003152 -0.018164 -0.000075
v -0.001416 -0.018141 0.004009
v 0.000202 -0.015657 0.004274
v 0.003475 -0.017725 0.000670
v 0.001653 -0.015870 -0.001515
v 0.001246 -0.017510 0.004097
v -0.003221 -0.014222 0.001422
v -0.002159 -0.015115 0.003407
v -0.001317 -0.015493 -0.001756
v -0.000076 -0.014492 -0.001914
v 0.003153 -0.015139 0.000621
v 0.002218 -0.015552 0.003079
v -0.002715 -0.014282 -0.000608
v -0.001127 -0.014220 0.004168
v 0.002552 -0.013250 -0.000640
v -0.002339 -0.011533 0.003205
v -0.003471 -0.011876 0.001419
v 0.003356 -0.011390 0.000715
v -0.003237 -0.010050 -0.000037
v -0.001140 -0.011283 0.004079
v 0.000477 -0.011530 0.004103
v -0.002101 -0.011886 -0.001545
v -0.000773 -0.011165 -0.002072
v 0.001976 -0.010150 0.003246
v 0.002764 -0.010886 0.002265
v 0.001691 -0.011179 -0.001535
v 0.002653 -0.008612 -0.000955
v 0.003097 -0.007972 0.000883
v -0.001251 -0.006972 -0.001829
v 0.002125 -0.006259 -0.001638
v -0.002437 -0.007488 0.003304
v 0.000255 -0.004760 0.004126
v -0.001239 -0.006112 0.004125
v -0.002896 -0.006173 0.000581
v 0.003434 -0.005683 0.000576
v 0.003017 -0.005262 -0.000877
v -0.001842 -0.004748 -0.001257
v 0.000091 -0.004005 -0.002130
v 0.002351 -0.005669 0.002897
v -0.003083 -0.002909 0.001409
v -0.002068 -0.003439 0.003165
v 0.002504 -0.002911 0.003227
v -0.002982 -0.001879 -0.000170
v 0.002754 -0.002748 -0.000234
v -0.000934 -0.000593 0.003863
v -0.001380 -0.002663 -0.001867
v 0.003127 -0.001824 0.001245
v 0.001694 -0.003193 -0.001534
v 0.000173 0.001914 -0.001680
v -0.002143 0.002005 0.003116
v -0.002977 -0.000188 0.001661
v -0.002982 0.000508 0.000212
v -0.000680 -0.000157 -0.001809
v 0.002417 -0.000811 0.002712
v -0.001620 0.001710 -0.001492
v 0.002774 0.001618 0.000338
v 0.001882 0.001351 -0.000854
v 0.002790 0.002292 0.001555
v -0.003524 0.003350 0.001140
v -0.003480 0.003598 0.000107
v -0.002823 0.002867 -0.000703
v 0.000747 0.001995 0.003672
v -0.002202 0.004880 0.003388
v 0.000209 0.005534 0.004100
v 0.002289 0.004023 0.002903
v 0.002818 0.003599 -0.000797
v -0.001192 0.005091 0.004070
v -0.001335 0.006530 -0.001827
v 0.002139 0.004801 -0.001685
v -0.002916 0.008139 0.000325
v -0.003051 0.007712 0.001526
v 0.003539 0.007187 0.000754
v 0.001814 0.008947 0.003215
v -0.001688 0.008445 -0.001361
v 0.002851 0.008920 -0.000833
v 0.001602 0.009442 -0.001655
v 0.002901 0.009919 0.001694
v 0.000225 0.010039 0.004008
v -0.002478 0.010111 0.003004
v -0.000248 0.013515 -0.002024
v 0.002907 0.011441 -0.000104
v -0.001118 0.012655 0.003993
v -0.003153 0.013400 0.000010
v -0.001942 0.012013 -0.001514
v -0.003268 0.012560 0.001396
v -0.001182 0.014117 -0.001999
v 0.001410 0.014357 -0.001485
v -0.002286 0.013268 0.003226
v 0.002994 0.015634 0.001192
v 0.001758 0.013419 0.003251
v 0.000255 0.014741 0.003968
v -0.003212 0.015089 0.001328
v 0.002808 0.016568 -0.000091
v 0.002649 0.013464 0.002138
v -0.001313 0.015515 0.004128
v -0.002114 0.017088 -0.001200
v -0.002847 0.017124 0.002770
v -0.003261 0.017325 0.000900
v -0.001670 0.017896 0.003779
v 0.000500 0.017942 0.003928
v -0.000645 0.018622 -0.001985
v 0.001644 0.018051 -0.001640
v 0.001574 0.016068 0.003122
v 0.002851 0.021403 0.001641
v 0.002679 0.018938 -0.000601
v -0.002933 0.018815 0.001691
v -0.000828 0.019883 0.004259
v -0.003043 0.019362 -0.000219
v 0.001849 0.021585 0.003274
v 0.002762 0.021436 -0.000113
v -0.001763 0.022024 0.003953
v -0.002285 0.022023 -0.001018
v -0.001389 0.021117 -0.001849
v 0.000530 0.021843 0.003912
v 0.001653 0.021971 -0.001611
v -0.002899 0.021940 0.002791
v -0.002883 0.022131 -0.000258
v -0.000553 0.022773 -0.002255
v -0.002786 0.023787 0.004083
v -0.003817 0.023163 0.002552
v -0.001221 0.023964 0.004539
v 0.001702 0.023649 0.004083
v 0.002729 0.023608 0.003232
v 0.003421 0.023830 0.001625
v 0.003048 0.023819 -0.001126
v 0.001004 0.023751 -0.002561
v -0.003801 0.024100 0.001440
v -0.002767 0.024047 -0.001263
v -0.000767 0.023985 -0.002809
v -0.002857 0.025063 0.000509
v -0.000872 0.025420 0.003170
v -0.001377 0.025103 -0.002253
v 0.003144 0.025271 0.001114
v -0.000011 0.026587 0.000454
v -0.000431 0.026234 0.002082
v -0.000073 0.025244 -0.002474
v 0.001576 0.025483 0.002820
v 0.002168 0.025369 -0.000949
v 0.001128 0.026465 0.001188
vn -0.9442 -0.0648 0.3229
vn -0.6997 -0.6991 -0.1472
vn -0.6584 -0.1574 0.7360
vn -0.4239 -0.5436 0.7244
vn 0.2808 -0.2499 0.9267
vn -0.0186 -0.7176 0.6962
vn 0.3554 -0.8590 0.3685
vn 0.8251 -0.4207 0.3771
vn 0.9092 -0.3479 -0.2285
vn 0.4959 -0.8649 -0.0777
vn -0.6129 0.0793 0.7862
vn -0.1647 -0.1084 0.9804
vn 0.1706 0.0377 0.9846
vn 0.8297 0.1299 0.5429
vn 0.9764 -0.0049 0.2158
vn 0.9957 0.0191 0.0910
vn -0.3868 -0.0304 0.9217
vn -0.7303 0.0545 0.6810
vn -0.8631 0.0186 0.5048
vn -0.9935 0.0241 0.1116
vn -0.9921 -0.0135 0.1248
vn 0.9902 0.1133 -0.0811
vn 0.7665 0.0736 0.6381
vn 0.7638 0.0009 0.6454
vn -0.2990 -0.0082 0.9542
vn -0.7252 0.0005 0.6886
vn -0.9867 0.0042 0.1627
vn -0.8196 0.0324 0.5720
vn -0.3367 -0.0447 0.9405
vn -0.7556 0.1178 0.6443
vn -0.9760 0.0336 0.2152
vn -0.9853 0.0398 -0.1658
vn 0.1732 0.0348 0.9843
vn 0.7121 -0.0570 0.6998
vn 0.6783 0.0942 0.7288
vn -0.1704 0.0207 0.9852
vn 0.6921 0.0272 0.7212
vn 0.4359 -0.0229 0.8997
vn 0.9558 -0.0488 0.2899
vn 0.9977 0.0236 0.0633
vn 0.2265 0.0276 0.9736
vn -0.3399 0.0319 0.9399
vn 0.1980 -0.0455 0.9791
vn 0.6497 0.0626 0.7576
vn 0.6992 -0.1122 0.7061
vn 0.9336 0.0723 0.3510
vn -0.5267 -0.0048 0.8500
vn 0.2977 -0.0603 0.9528
vn -0.1208 0.0209 0.9925
vn -0.9659 0.0792 0.2466
vn -0.8623 0.0603 0.5028
vn 0.6584 -0.0460 0.7512
vn 0.6456 -0.1373 0.7513
vn 0.9690 0.0343 0.2448
vn 0.9652 -0.1056 0.2393
vn -0.9488 0.3145 -0.0300
vn -0.9473 -0.1842 0.2620
vn -0.5667 0.3013 0.7669
vn -0.6046 -0.1083 0.7892
vn 0.6904 -0.0619 0.7208
vn -0.7686 -0.0403 -0.6384
vn -0.9154 -0.0245 -0.4018
vn -0.4724 0.0730 -0.8783
vn -0.3552 -0.0014 -0.9348
vn 0.0752 0.0392 -0.9964
vn 0.9981 -0.0498 0.0368
vn 0.8588 0.1320 -0.4951
vn 0.8477 0.0207 -0.5300
vn 0.4653 0.1050 -0.8789
vn -0.9739 -0.0462 0.2222
vn -0.9382 0.0781 -0.3370
vn -0.9261 0.0093 -0.3772
vn 0.1607 -0.0220 -0.9868
vn -0.4366 -0.0907 -0.8951
vn -0.3816 0.0276 -0.9239
vn 0.9459 -0.0623 -0.3184
vn 0.9959 0.0441 0.0784
vn 0.8676 -0.1638 -0.4696
vn 0.4915 0.0014 -0.8709
vn 0.8946 -0.0138 -0.4466
vn 0.8676 0.0839 -0.4901
vn 0.3914 -0.0472 -0.9190
vn -0.5138 -0.2127 -0.8311
vn -0.8915 -0.2337 -0.3882
vn -0.8539 0.1072 -0.5093
vn 0.5805 -0.4528 -0.6768
vn 0.5298 0.0564 -0.8462
vn 0.9585 0.1121 -0.2620
vn 0.8629 -0.0012 0.5054
vn 0.9978 -0.0234 -0.0616
vn 0.9974 -0.0120 0.0712
vn -0.9517 0.0012 0.3070
vn -0.9147 -0.0413 -0.4021
vn -0.1542 -0.0099 -0.9880
vn -0.7181 0.0475 -0.6943
vn 0.1120 0.0828 -0.9902
vn 0.9435 0.0980 -0.3167
vn 0.7684 0.0562 -0.6375
vn 0.3780 -0.0011 -0.9258
vn 0.3057 0.0203 0.9519
vn -0.3206 0.0574 0.9455
vn 0.6524 -0.0224 0.7575
vn -0.9140 -0.0146 -0.4054
vn -0.9829 -0.0666 0.1717
vn -0.9895 0.0529 -0.1346
vn -0.7158 0.0366 -0.6973
vn -0.1471 -0.0328 -0.9886
vn -0.2637 -0.0035 -0.9646
vn 0.5364 -0.0098 -0.8439
vn -0.9448 -0.1245 -0.3029
vn -0.9174 -0.0283 -0.3969
vn -0.8329 -0.3594 0.4208
vn -0.6905 -0.0384 -0.7223
vn -0.2575 -0.2662 -0.9289
vn 0.4359 -0.1046 -0.8939
vn 0.9602 -0.0623 -0.2723
vn -0.4143 -0.8285 -0.3768
vn -0.0178 -0.3971 -0.9176
vn -0.5839 -0.0395 -0.8109
vn -0.0576 0.0112 -0.9983
vn 0.3962 0.0371 -0.9174
vn 0.5252 0.0120 -0.8509
vn 0.8196 -0.0000 -0.5729
vn -0.1353 -0.0096 -0.9908
vn -0.8259 -0.0063 0.5638
vn -0.7636 0.0220 0.6454
vn -0.9887 0.0109 0.1493
vn 0.8734 0.0282 0.4862
vn 0.3169 0.0281 -0.9480
vn 0.3790 0.0138 -0.9253
vn 0.7811 0.1156 -0.6137
vn 0.4894 0.0771 0.8687
vn -0.7111 -0.0540 -0.7010
vn -0.6216 -0.0868 -0.7785
vn 0.6151 -0.0754 -0.7848
vn -0.6981 -0.0393 0.7150
vn -0.9861 0.0340 0.1626
vn 0.8421 0.0396 -0.5378
vn 0.9851 0.0593 0.1612
vn 0.4420 -0.0147 -0.8969
vn -0.1063 0.9801 -0.1676
vn -0.6934 0.7111 -0.1164
vn -0.2257 0.8762 0.4258
vn -0.4120 0.5644 -0.7153
vn 0.1075 0.5433 -0.8326
vn 0.2515 0.9654 0.0696
vn 0.8328 0.5483 0.0757
vn 0.5059 0.6480 -0.5693
vn 0.2117 0.0432 0.9764
vn 0.4588 -0.0043 0.8885
vn 0.9983 0.0576 -0.0095
vn 0.6390 0.0276 0.7687
vn -0.2669 -0.0488 0.9625
vn 0.2384 -0.0357 0.9705
vn -0.2661 -0.0712 0.9613
vn -0.3459 -0.2092 0.9147
vn -0.0530 0.2705 0.9613
vn 0.2063 -0.1475 0.9673
vn 0.4751 0.1699 0.8634
vn 0.8047 0.0269 0.5931
vn -0.1872 0.7942 0.5782
vn 0.3985 0.7007 0.5918
vn -0.0759 -0.9943 0.0744
vn -0.3887 -0.0413 -0.9204
vn -0.8889 0.0038 -0.4581
vn -0.8710 -0.0284 -0.4905
vn -0.9163 0.0374 -0.3987
vn -0.5085 0.0035 -0.8610
vn -0.3733 0.0654 -0.9254
vn 0.0487 -0.0166 -0.9987
vn 0.7599 -0.0361 -0.6490
vn 0.3748 -0.0126 -0.9270
vn 0.1512 -0.7862 -0.5993
vn -0.7428 -0.0033 0.6695
vn -0.7389 0.1598 -0.6546
vn -0.2471 -0.0252 -0.9687
vt 0.050834 0.941742
vt 0.074882 0.982747
vt 0.032680 0.963205
vt 0.018584 0.971619
vt 0.379887 0.954778
vt 0.405135 0.984552
vt 0.378256 0.998762
vt 0.346081 0.968178
vt 0.161377 0.960364
vt 0.206166 0.968534
vt 0.171607 0.997369
vt 0.436054 0.886043
vt 0.417573 0.935347
vt 0.396591 0.853286
vt 0.208562 0.911770
vt 0.186528 0.941740
vt 0.175717 0.864716
vt 0.010403 0.826253
vt 0.021407 0.768383
vt 0.037948 0.814583
vt 0.064305 0.891962
vt 0.059322 0.750878
vt 0.168905 0.825091
vt 0.215394 0.782793
vt 0.215310 0.849677
vt 0.424150 0.756380
vt 0.446233 0.705434
vt 0.443334 0.773691
vt 0.024494 0.699996
vt 0.058927 0.706125
vt 0.447763 0.628251
vt 0.425420 0.601767
vt 0.440225 0.551129
vt 0.057022 0.535083
vt 0.021726 0.622868
vt 0.023401 0.545619
vt 0.073490 0.597171
vt 0.396809 0.576102
vt 0.356014 0.594144
vt 0.353071 0.541422
vt 0.418849 0.496651
vt 0.354122 0.501577
vt 0.386393 0.447513
vt 0.224916 0.447502
vt 0.205816 0.501808
vt 0.182966 0.442945
vt 0.177485 0.521620
vt 0.395795 0.293921
vt 0.423345 0.388140
vt 0.396620 0.379800
vt 0.214244 0.315405
vt 0.208756 0.409537
vt 0.184265 0.297506
vt 0.430939 0.144011
vt 0.389675 0.143257
vt 0.415060 0.106000
vt 0.046773 0.120774
vt 0.026537 0.153282
vt 0.006832 0.138796
vt 0.368787 0.179435
vt 0.363101 0.074165
vt 0.211468 0.179518
vt 0.173675 0.188618
vt 0.181393 0.078479
vt 0.213253 0.074370
vt 0.050587 0.019901
vt 0.029590 0.038015
vt 0.000000 0.026482
vt 0.010507 0.930711
vt 0.463674 0.529964
vt 0.457857 0.550544
vt 0.457857 0.503342
vt 0.442381 0.935568
vt 0.433069 0.976759
vt 0.358890 0.947624
vt 0.231822 0.948151
vt 0.107967 0.569596
vt 0.086883 0.515089
vt 0.119027 0.529703
vt 0.119228 0.611902
vt 0.288101 0.559555
vt 0.263225 0.616376
vt 0.260701 0.534204
vt 0.165135 0.595433
vt 0.149738 0.539311
vt 0.342343 0.536473
vt 0.346081 0.584040
vt 0.319682 0.544312
vt 0.060870 0.415627
vt 0.075197 0.324110
vt 0.080507 0.410671
vt 0.290515 0.446942
vt 0.256864 0.451038
vt 0.261595 0.358928
vt 0.159890 0.455965
vt 0.166327 0.349997
vt 0.137891 0.418389
vt 0.327802 0.391766
vt 0.149217 0.170939
vt 0.340107 0.122777
vt 0.343562 0.168250
vt 0.318452 0.139174
vt 0.120208 0.943621
vt 0.090753 0.951579
vt 0.094225 0.913586
vt 0.129997 0.958532
vt 0.120212 0.938352
vt 0.151456 0.929546
vt 0.198693 0.694148
vt 0.168791 0.704217
vt 0.171630 0.638914
vt 0.051577 0.483241
vt 0.079072 0.469643
vt 0.117179 0.481924
vt 0.255811 0.322700
vt 0.281801 0.225576
vt 0.149742 0.268760
vt 0.136308 0.316913
vt 0.317646 0.303331
vt 0.394703 0.204262
vt 0.421103 0.243925
vt 0.365644 0.229905
vt 0.080087 0.223696
vt 0.054584 0.191770
vt 0.062263 0.149023
vt 0.102093 0.153091
vt 0.247999 0.158007
vt 0.274338 0.128235
vt 0.264129 0.214162
vt 0.314319 0.209712
vt 0.485195 0.462900
vt 0.457857 0.503342
vt 0.457857 0.432904
vt 0.083183 0.057090
vt 0.083093 0.109919
vt 0.025091 0.061417
vt 0.097554 0.059008
vt 0.275529 0.048934
vt 0.318651 0.064456
vt 0.120212 0.067683
vt 0.148015 0.078077
vt 0.139198 0.125760
vt 0.095560 0.993537
vt 0.246364 0.948105
vt 0.283021 0.970385
vt 0.261364 0.998384
vt 0.498868 0.133687
vt 0.500880 0.173523
vt 0.463551 0.136732
vt 0.247670 0.710282
vt 0.271851 0.696168
vt 0.327669 0.602681
vt 0.319648 0.696575
vt 0.339034 0.647899
vt 0.266188 0.939968
vt 0.336241 0.934280
vt 0.341975 0.954707
vt 0.446530 0.292733
vt 0.442717 0.232457
vt 0.053877 0.240011
vt 0.023558 0.287099
vt 0.018566 0.226942
vt 0.365005 0.315222
vt 0.214229 0.230079
vt 0.192331 0.229726
vt 0.318841 0.884883
vt 0.318937 0.841236
vt 0.343241 0.865577
vt 0.141547 0.868929
vt 0.457857 0.820364
vt 0.429932 0.831210
vt 0.372568 0.914825
vt 0.357388 0.849367
vt 0.095954 0.424447
vt 0.110956 0.446363
vt 0.109157 0.249842
vt 0.250666 0.254606
vt 0.137692 0.587457
vt 0.274087 0.486404
vt 0.137898 0.460903
vt 0.017326 0.386970
vt 0.052408 0.332526
vt 0.356212 0.409295
vt 0.128102 0.032887
vt 0.180247 0.032422
vt 0.304487 0.030025
vt 0.342629 0.075410
vt 0.346081 0.029389
vt 0.525968 0.033057
vt 0.569381 0.072343
vt 0.516168 0.063734
vt 0.572714 0.016888
vt 0.553927 0.000000
vt 0.500024 0.033785
vt 0.466225 0.021772
vt 0.502628 0.000000
vt 0.013271 0.881042
vt 0.399049 0.783854
vt 0.379199 0.819362
vt 0.359688 0.782518
vt 0.167773 0.775652
vt 0.217868 0.679665
vt 0.137040 0.651221
vt 0.424026 0.700405
vt 0.363884 0.679419
vt 0.393259 0.705255
vt 0.210201 0.594407
vt 0.215912 0.541818
vt 0.452668 0.159067
vt 0.424633 0.189315
vt 0.002610 0.060097
vt 0.422334 0.028018
vt 0.451833 0.031452
vt 0.432416 0.065209
vt 0.388694 0.068880
vt 0.366306 0.034469
vt 0.346081 0.035677
vt 0.211448 0.036132
vt 0.501297 0.124021
vt 0.511343 0.089947
vt 0.530959 0.133687
vt 0.574053 0.102162
vt 0.457857 0.091281
vt 0.367555 0.000000
vt 0.414482 0.000849
vt 0.204159 -0.000000
vt 0.170482 0.004912
vt 0.475141 0.060652
vt 0.525528 0.249840
vt 0.465305 0.260445
vt 0.491175 0.223828
vt 0.535915 0.226412
vt 0.519755 0.197377
vt 0.535915 0.162331
vt 0.233619 0.915157
vt 0.484183 0.378124
vt 0.457857 0.432904
vt 0.457857 0.358211
vt 0.086227 0.670968
vt 0.442096 0.392357
vt 0.487890 0.358211
vt 0.457857 0.301339
vt 0.487890 0.260445
vt 0.245088 0.064033
vt 0.260480 0.080784
vt 0.120212 0.849166
vt 0.259498 0.853603
vt 0.088741 0.825730
vt 0.119741 0.774451
vt 0.285386 0.759647
vt 0.097922 0.751575
vt 0.262148 0.778896
vt 0.143890 0.739588
vt 0.318993 0.786041
vt 0.337754 0.736516
vt 0.324553 0.458031
vt 0.342416 0.415150
vt 0.115113 0.705678
vt 0.457857 0.230777
vt 0.462140 0.201813
vt 0.290396 1.000000
vt 0.106972 0.317930
vt 0.342967 0.313654
vt 0.124059 0.212771
vt 0.441062 0.447318
vt 0.023126 0.441763
vt 0.101892 0.020326
vt 0.235465 0.025324
vt 0.270389 0.025536
vt 0.233619 0.520290
vt 0.125815 0.547596
vt 0.116202 0.354355
vt 0.235571 0.429490
vt 0.121293 0.395324
vt 0.113392 0.076115
vt 0.067907 0.001350
vt 0.120212 0.000000
vt 0.259894 0.004562
vt 0.284205 0.001667
vt 0.131891 0.002977
vt 0.329714 0.000000
s 1
usemtl FusedMaterial
f 10/1/1 6/2/2 12/3/3
f 6/2/2 7/4/4 12/3/3
f 14/5/5 13/6/6 3/7/7
f 3/7/7 15/8/8 14/5/5
f 21/9/9 15/10/8 5/11/10
f 27/12/11 16/13/12 31/14/13
f 30/15/14 19/16/15 33/17/16
f 39/18/17 45/19/18 36/20/19
f 26/21/20 36/20/19 44/22/21
f 41/23/22 49/24/23 37/25/24
f 51/26/25 53/27/26 45/28/18
f 53/29/26 54/30/27 45/19/18
f 54/30/27 44/22/21 45/19/18
f 68/31/28 70/32/29 78/33/30
f 77/34/31 68/35/28 78/36/30
f 77/34/31 71/37/32 68/35/28
f 69/38/33 76/39/34 79/40/35
f 82/41/36 91/42/37 99/43/38
f 99/44/38 91/45/37 95/46/39
f 91/45/37 84/47/40 95/46/39
f 115/48/41 104/49/42 101/50/43
f 110/51/44 102/52/45 114/53/46
f 136/54/47 137/55/48 144/56/49
f 143/57/50 134/58/51 136/59/47
f 137/55/48 140/60/52 146/61/53
f 140/62/52 126/63/54 141/64/55
f 141/64/55 146/65/53 140/62/52
f 164/66/56 157/67/57 156/68/58
f 10/1/1 7/4/4 23/69/59
f 12/70/3 7/71/4 10/72/1
f 23/73/59 7/74/4 16/13/12
f 16/13/12 13/6/6 14/5/5
f 7/74/4 13/6/6 16/13/12
f 17/75/60 14/5/5 15/8/8
f 19/16/15 17/76/60 15/10/8
f 19/16/15 15/10/8 21/9/9
f 74/77/61 80/78/62 83/79/63
f 66/80/64 74/77/61 83/79/63
f 75/81/65 66/82/64 83/83/63
f 72/84/66 81/85/67 84/47/40
f 81/86/67 73/87/68 85/88/69
f 96/89/70 107/90/71 97/91/72
f 86/92/73 92/93/74 105/94/75
f 95/46/39 93/95/76 109/96/77
f 93/95/76 103/97/78 109/96/77
f 106/98/79 86/92/73 105/94/75
f 130/99/80 141/64/55 126/63/54
f 142/100/81 130/101/80 139/102/82
f 18/103/83 11/104/84 24/105/85
f 21/9/9 9/106/86 22/107/87
f 22/107/87 25/108/88 21/9/9
f 25/108/88 19/16/15 21/9/9
f 54/30/27 53/29/26 68/35/28
f 62/109/89 55/110/90 65/111/91
f 83/83/63 86/92/73 75/81/65
f 85/88/69 75/81/65 86/92/73
f 80/78/62 77/34/31 88/112/92
f 88/112/92 89/113/93 80/78/62
f 90/114/94 83/79/63 80/78/62
f 102/52/45 109/96/77 114/53/46
f 111/115/95 117/116/96 105/94/75
f 114/53/46 109/96/77 118/117/97
f 112/118/98 118/117/97 109/96/77
f 113/119/99 105/94/75 117/116/96
f 128/120/100 119/121/101 115/48/41
f 115/48/41 127/122/102 128/120/100
f 120/123/103 129/124/104 135/125/105
f 133/126/106 120/123/103 135/125/105
f 133/127/106 138/128/107 123/129/108
f 123/129/108 138/128/107 124/130/109
f 139/102/82 124/130/109 138/128/107
f 130/131/80 124/132/109 139/133/82
f 154/134/110 145/135/111 153/136/112
f 149/137/113 145/135/111 154/134/110
f 139/102/82 138/128/107 155/138/114
f 152/139/115 139/102/82 155/138/114
f 152/140/115 147/141/116 142/142/81
f 10/1/1 11/104/84 6/2/2
f 2/143/117 6/2/2 11/104/84
f 18/103/83 2/143/117 11/104/84
f 18/144/83 8/145/118 2/146/117
f 21/147/9 5/148/10 9/149/86
f 59/150/119 66/82/64 60/151/120
f 60/151/120 67/152/121 63/153/122
f 64/154/123 63/153/122 67/152/121
f 20/155/124 8/145/118 18/144/83
f 20/155/124 22/156/87 8/145/118
f 9/157/86 8/145/118 22/156/87
f 104/49/42 115/48/41 119/121/101
f 116/158/125 104/49/42 119/121/101
f 116/158/125 119/121/101 125/159/126
f 122/160/127 116/161/125 125/162/126
f 115/48/41 110/163/44 127/122/102
f 127/164/102 110/51/44 131/165/128
f 126/63/54 131/165/128 114/53/46
f 25/108/88 33/17/16 19/16/15
f 35/166/129 20/155/124 32/167/130
f 35/166/129 22/156/87 20/155/124
f 34/168/131 22/156/87 35/166/129
f 25/108/88 22/107/87 34/169/131
f 36/170/19 27/12/11 39/171/17
f 31/14/13 39/171/17 27/12/11
f 31/14/13 29/172/132 37/173/24
f 89/113/93 88/112/92 96/89/70
f 96/89/70 97/91/72 89/113/93
f 98/174/133 89/113/93 97/91/72
f 92/175/74 89/113/93 98/174/133
f 121/176/134 120/123/103 133/126/106
f 123/129/108 121/177/134 133/127/106
f 77/34/31 80/78/62 71/37/32
f 80/78/62 74/77/61 71/37/32
f 72/84/66 73/178/68 81/85/67
f 67/152/121 75/81/65 85/88/69
f 73/87/68 67/152/121 85/88/69
f 90/179/94 92/93/74 86/92/73
f 93/95/76 94/180/135 103/97/78
f 96/89/70 100/181/136 108/182/137
f 101/50/43 102/183/45 110/163/44
f 102/52/45 95/46/39 109/96/77
f 125/162/126 129/124/104 122/160/127
f 154/134/110 153/136/112 157/67/57
f 141/64/55 147/141/116 162/184/138
f 162/184/138 161/185/139 141/64/55
f 152/139/115 155/138/114 163/186/140
f 147/187/116 152/139/115 162/188/138
f 162/188/138 152/139/115 163/186/140
f 171/189/141 167/190/142 172/191/143
f 169/192/144 167/190/142 171/189/141
f 173/193/145 169/192/144 171/189/141
f 176/194/146 170/195/147 175/196/148
f 171/189/141 176/194/146 175/196/148
f 173/193/145 171/189/141 175/196/148
f 27/197/11 10/1/1 23/69/59
f 27/12/11 23/73/59 16/13/12
f 26/21/20 10/1/1 27/197/11
f 29/172/132 16/13/12 14/5/5
f 40/198/149 51/26/25 39/171/17
f 45/28/18 39/171/17 51/26/25
f 43/199/150 49/200/23 40/198/149
f 49/24/23 41/23/22 48/201/151
f 62/109/89 61/202/152 49/24/23
f 64/203/123 65/111/91 55/110/90
f 69/38/33 70/32/29 57/204/153
f 68/31/28 57/204/153 70/32/29
f 61/205/152 69/38/33 58/206/154
f 61/202/152 62/109/89 76/207/34
f 62/109/89 65/111/91 76/207/34
f 78/33/30 70/32/29 82/41/36
f 82/41/36 70/32/29 69/38/33
f 79/40/35 82/41/36 69/38/33
f 79/208/35 72/84/66 84/47/40
f 134/209/51 132/210/155 136/54/47
f 135/125/105 134/58/51 143/57/50
f 157/67/57 153/136/112 156/68/58
f 156/68/58 153/136/112 148/211/156
f 158/212/157 156/213/58 148/214/156
f 148/214/156 151/215/158 158/212/157
f 159/216/159 158/212/157 151/215/158
f 159/216/159 151/215/158 146/61/53
f 159/216/159 146/61/53 160/217/160
f 146/65/53 141/64/55 160/218/160
f 160/218/160 141/64/55 161/185/139
f 158/219/157 168/220/161 156/221/58
f 168/220/161 164/222/56 156/221/58
f 167/190/142 164/222/56 168/220/161
f 158/219/157 159/223/159 168/220/161
f 174/224/162 168/225/161 159/216/159
f 174/224/162 159/216/159 160/217/160
f 174/226/162 160/218/160 170/227/147
f 170/227/147 160/218/160 161/185/139
f 172/191/143 167/190/142 168/220/161
f 172/191/143 168/220/161 174/228/162
f 176/194/146 174/228/162 170/195/147
f 7/229/4 6/230/2 1/231/163
f 1/231/163 13/232/6 7/229/4
f 3/233/7 13/232/6 1/231/163
f 5/148/10 15/234/8 3/233/7
f 57/204/153 40/198/149 58/206/154
f 51/26/25 40/198/149 57/204/153
f 53/27/26 51/26/25 57/204/153
f 58/206/154 49/200/23 61/205/152
f 62/109/89 48/201/151 55/110/90
f 49/24/23 48/201/151 62/109/89
f 27/197/11 36/20/19 26/21/20
f 29/172/132 31/14/13 16/13/12
f 29/235/132 30/15/14 37/25/24
f 33/17/16 37/25/24 30/15/14
f 46/236/164 38/237/165 50/238/166
f 56/239/167 71/37/32 74/77/61
f 66/80/64 56/239/167 74/77/61
f 67/152/121 66/82/64 75/81/65
f 72/84/66 79/208/35 76/207/34
f 100/240/136 104/49/42 116/158/125
f 108/182/137 100/181/136 116/161/125
f 110/163/44 115/48/41 101/50/43
f 120/123/103 122/160/127 129/124/104
f 126/63/54 118/117/97 130/99/80
f 118/241/97 124/242/109 130/243/80
f 134/209/51 125/159/126 132/210/155
f 129/124/104 125/162/126 134/58/51
f 128/120/100 127/122/102 140/60/52
f 131/165/128 140/62/52 127/164/102
f 132/210/155 128/120/100 137/55/48
f 137/55/48 136/54/47 132/210/155
f 134/58/51 135/125/105 129/124/104
f 128/120/100 140/60/52 137/55/48
f 140/62/52 131/165/128 126/63/54
f 135/125/105 143/57/50 145/135/111
f 141/64/55 130/99/80 147/141/116
f 142/142/81 147/141/116 130/99/80
f 142/100/81 139/102/82 152/139/115
f 149/244/113 155/138/114 150/245/168
f 138/128/107 150/245/168 155/138/114
f 172/191/143 174/228/162 176/194/146
f 176/194/146 171/189/141 172/191/143
f 71/37/32 56/239/167 54/30/27
f 72/84/66 64/203/123 73/178/68
f 65/111/91 64/203/123 72/84/66
f 73/87/68 64/154/123 67/152/121
f 14/5/5 17/75/60 29/172/132
f 29/235/132 17/76/60 30/15/14
f 17/76/60 19/16/15 30/15/14
f 11/104/84 10/1/1 26/21/20
f 26/21/20 24/105/85 11/104/84
f 24/105/85 28/246/169 18/103/83
f 28/247/169 20/155/124 18/144/83
f 108/182/137 116/161/125 122/160/127
f 110/51/44 114/53/46 131/165/128
f 38/248/165 26/21/20 44/22/21
f 38/248/165 46/249/164 28/246/169
f 32/167/130 28/247/169 47/250/170
f 34/169/131 48/201/151 41/23/22
f 38/248/165 44/22/21 50/251/166
f 47/250/170 28/247/169 46/252/164
f 48/201/151 34/169/131 52/253/171
f 42/254/172 52/255/171 34/168/131
f 94/256/135 86/92/73 106/98/79
f 106/98/79 103/257/78 94/256/135
f 3/233/7 1/231/163 5/148/10
f 56/239/167 44/22/21 54/30/27
f 50/251/166 44/22/21 56/239/167
f 56/239/167 59/258/119 50/251/166
f 60/151/120 46/252/164 59/150/119
f 47/250/170 46/252/164 60/151/120
f 42/254/172 47/250/170 63/153/122
f 63/153/122 52/255/171 42/254/172
f 135/125/105 145/135/111 133/126/106
f 33/17/16 34/169/131 41/23/22
f 34/168/131 35/166/129 32/167/130
f 104/49/42 99/43/38 101/50/43
f 24/105/85 26/21/20 38/248/165
f 28/246/169 24/105/85 38/248/165
f 40/198/149 31/14/13 43/199/150
f 31/14/13 37/173/24 43/199/150
f 43/199/150 37/173/24 49/200/23
f 37/25/24 33/17/16 41/23/22
f 46/249/164 50/251/166 59/258/119
f 48/201/151 52/253/171 55/110/90
f 57/204/153 58/206/154 69/38/33
f 57/204/153 68/31/28 53/27/26
f 56/239/167 66/80/64 59/258/119
f 67/152/121 60/151/120 66/82/64
f 144/56/49 148/214/156 136/54/47
f 144/56/49 137/55/48 151/215/158
f 137/55/48 146/61/53 151/215/158
f 2/259/117 4/260/173 1/231/163
f 5/148/10 1/231/163 4/260/173
f 1/231/163 6/230/2 2/259/117
f 8/145/118 4/261/173 2/146/117
f 9/149/86 5/148/10 4/260/173
f 9/157/86 4/261/173 8/145/118
f 32/167/130 20/155/124 28/247/169
f 34/169/131 33/17/16 25/108/88
f 136/59/47 148/211/156 153/136/112
f 148/214/156 144/56/49 151/215/158
f 143/57/50 136/59/47 153/136/112
f 120/123/103 108/182/137 122/160/127
f 107/90/71 120/123/103 111/262/95
f 121/176/134 111/262/95 120/123/103
f 123/129/108 111/115/95 121/177/134
f 117/116/96 111/115/95 123/129/108
f 124/130/109 112/263/98 113/119/99
f 124/264/109 118/117/97 112/118/98
f 108/182/137 120/123/103 107/90/71
f 39/171/17 31/14/13 40/198/149
f 42/254/172 32/167/130 47/250/170
f 34/168/131 32/167/130 42/254/172
f 45/19/18 44/22/21 36/20/19
f 49/200/23 58/206/154 40/198/149
f 82/41/36 87/265/174 78/33/30
f 77/34/31 78/36/30 87/266/174
f 87/266/174 88/112/92 77/34/31
f 82/41/36 79/40/35 91/42/37
f 79/208/35 84/47/40 91/45/37
f 87/265/174 82/41/36 104/49/42
f 104/49/42 100/240/136 87/265/174
f 99/43/38 104/49/42 82/41/36
f 88/112/92 87/266/174 100/181/136
f 100/181/136 96/89/70 88/112/92
f 102/183/45 101/50/43 99/43/38
f 99/44/38 95/46/39 102/52/45
f 112/263/98 106/98/79 113/119/99
f 119/121/101 128/120/100 132/210/155
f 132/210/155 125/159/126 119/121/101
f 124/130/109 117/116/96 123/129/108
f 154/134/110 157/67/57 164/66/56
f 164/66/56 165/267/175 154/134/110
f 149/137/113 154/134/110 165/267/175
f 165/268/175 155/138/114 149/244/113
f 165/268/175 166/269/176 155/138/114
f 163/186/140 155/138/114 166/269/176
f 68/35/28 71/37/32 54/30/27
f 76/207/34 65/111/91 72/84/66
f 69/38/33 61/205/152 76/39/34
f 80/78/62 89/113/93 92/175/74
f 90/179/94 80/270/62 92/93/74
f 84/47/40 81/85/67 93/95/76
f 93/95/76 81/85/67 94/180/135
f 94/256/135 85/88/69 86/92/73
f 86/92/73 83/83/63 90/179/94
f 81/85/67 85/271/69 94/180/135
f 84/47/40 93/95/76 95/46/39
f 97/91/72 105/272/75 98/174/133
f 92/93/74 98/273/133 105/94/75
f 107/90/71 96/89/70 108/182/137
f 111/262/95 97/91/72 107/90/71
f 105/272/75 97/91/72 111/262/95
f 109/96/77 103/97/78 112/118/98
f 106/98/79 105/94/75 113/119/99
f 103/97/78 106/274/79 112/118/98
f 145/135/111 143/57/50 153/136/112
f 133/126/106 145/135/111 149/137/113
f 149/137/113 150/275/168 133/126/106
f 138/128/107 133/127/106 150/245/168
f 164/66/56 167/276/142 165/267/175
f 167/276/142 169/277/144 165/267/175
f 169/278/144 166/269/176 165/268/175
f 169/278/144 173/279/145 166/269/176
f 161/185/139 162/184/138 170/227/147
f 170/227/147 162/184/138 175/280/148
f 173/279/145 175/281/148 163/186/140
f 162/188/138 163/186/140 175/281/148
f 173/279/145 163/186/140 166/269/176
f 55/110/90 52/253/171 64/203/123
f 63/153/122 47/250/170 60/151/120
f 63/153/122 64/154/123 52/255/171
f 118/117/97 126/63/54 114/53/46
f 113/119/99 117/116/96 124/130/109
