# Blender 4.3.2
# www.blender.org
mtllib fused_model.mtl
o bar-12mm_mesh
v 0.000882 -0.025621 0.000501
v 0.001820 -0.025611 -0.000048
v 0.003202 -0.025376 0.002018
v -0.004971 -0.024769 0.002391
v -0.004972 -0.024748 -0.000218
v -0.003942 -0.024952 0.002044
v -0.004701 -0.024960 -0.002254
v -0.002640 -0.024614 0.001731
v -0.000043 -0.024566 0.001555
v -0.002382 -0.024548 -0.001629
v 0.002922 -0.024854 0.003117
v -0.003621 -0.025393 -0.001023
v 0.004770 -0.024311 0.003726
v 0.004208 -0.024610 0.000323
v 0.003510 -0.025196 -0.000953
v 0.000282 -0.023586 0.003627
v 0.000057 -0.024092 -0.002240
v 0.004391 -0.023656 0.004515
v 0.002030 -0.024100 -0.001896
v -0.006019 -0.023700 0.002526
v 0.005311 -0.023846 -0.002431
v -0.004867 -0.023713 0.003602
v 0.005431 -0.022710 0.000030
v -0.005675 -0.023204 -0.000024
v -0.001400 -0.023736 0.003691
v 0.005811 -0.023629 -0.001714
v -0.005620 -0.023747 -0.001898
v -0.004893 -0.023489 -0.002904
v -0.003102 -0.023769 -0.002642
v -0.001776 -0.023407 -0.002977
v -0.001303 -0.024247 0.002491
v -0.001428 -0.023849 -0.000174
v -0.000839 -0.024221 -0.001707
v -0.005870 -0.022241 0.003711
v -0.004777 -0.022410 0.004063
v 0.004395 -0.022633 0.004582
v 0.002464 -0.022366 -0.002606
v 0.005356 -0.022154 0.003354
v -0.000927 -0.022431 0.004075
v -0.003260 -0.022322 -0.002990
v -0.005686 -0.021713 -0.002850
v -0.004866 -0.021267 -0.003449
v 0.001873 -0.021700 0.004081
v 0.004126 -0.021004 -0.003109
v 0.005404 -0.021553 -0.003043
v 0.005359 -0.022678 0.001619
v -0.005680 -0.021949 -0.001367
v -0.005822 -0.020296 0.002605
v -0.000083 -0.021571 -0.002736
v -0.005042 -0.019991 0.003674
v 0.002236 -0.019196 -0.002053
v -0.005039 -0.019430 0.000347
v 0.005206 -0.019494 0.003499
v -0.000761 -0.018255 -0.001898
v 0.005388 -0.018685 0.002556
v -0.003331 -0.020570 0.003386
v 0.004919 -0.019155 0.001514
v 0.005132 -0.019958 -0.000391
v -0.000262 -0.019228 0.003334
v -0.003904 -0.018602 -0.003339
v 0.004197 -0.018045 -0.003021
v 0.004539 -0.017329 0.004152
v 0.005764 -0.017020 -0.001685
v -0.005259 -0.018412 -0.001443
v -0.003747 -0.018216 0.003438
v -0.005480 -0.018263 -0.002829
v -0.002134 -0.016758 -0.002290
v 0.001082 -0.016830 0.002469
v -0.004614 -0.015698 0.003768
v -0.005655 -0.017699 0.003549
v 0.003630 -0.018255 0.004018
v 0.004668 -0.013826 0.000527
v -0.005682 -0.015587 0.001729
v 0.005362 -0.015689 -0.002864
v -0.002928 -0.013955 0.002588
v 0.005471 -0.016003 0.003654
v 0.005542 -0.015804 0.002458
v -0.005071 -0.013732 0.000290
v -0.005848 -0.015615 0.002770
v -0.004878 -0.013505 -0.003696
v -0.003809 -0.012617 -0.003454
v -0.000548 -0.014576 0.002361
v 0.001824 -0.015146 0.002998
v 0.002195 -0.016087 -0.001954
v -0.004962 -0.013239 0.003600
v 0.004217 -0.014118 -0.003132
v -0.005036 -0.012835 -0.000997
v 0.001670 -0.013395 -0.001696
v 0.003415 -0.012347 0.003961
v -0.005439 -0.010422 -0.002800
v -0.001352 -0.014400 -0.002040
v 0.004777 -0.012432 0.003840
v 0.005250 -0.012820 0.002694
v -0.001242 -0.012877 0.002365
v 0.005595 -0.013384 -0.001875
v 0.005529 -0.010887 -0.003146
v 0.000825 -0.011404 0.002749
v -0.005944 -0.012081 0.002551
v -0.004761 -0.011808 0.003696
v -0.004021 -0.010715 0.003500
v -0.001645 -0.012310 -0.002613
v 0.002010 -0.011455 -0.002384
v 0.005458 -0.011037 0.002470
v 0.004718 -0.010691 0.001076
v 0.005136 -0.011507 -0.000533
v -0.001451 -0.010945 0.002670
v 0.001828 -0.008693 -0.002234
v 0.004988 -0.008477 0.003630
v -0.005686 -0.009513 0.002715
v -0.005020 -0.009681 0.000476
v -0.000777 -0.009776 -0.001883
v -0.004863 -0.009401 -0.003455
v 0.004064 -0.007232 0.003982
v 0.005197 -0.008691 0.002712
v -0.004966 -0.009292 0.003696
v 0.004288 -0.009521 -0.003406
v -0.004803 -0.005161 -0.001043
v 0.004675 -0.006994 0.000995
v -0.001629 -0.006930 -0.002376
v 0.005040 -0.008115 -0.000674
v -0.000926 -0.007672 0.002610
v -0.004691 -0.006552 -0.003811
v 0.005539 -0.006599 -0.001867
v 0.001976 -0.007373 0.003062
v -0.004793 -0.007154 0.003580
v -0.004878 -0.006138 -0.000119
v 0.004114 -0.006802 -0.003130
v -0.005686 -0.004745 0.001869
v -0.005496 -0.003674 -0.002840
v -0.005841 -0.006073 0.002870
v 0.005662 -0.001594 -0.001703
v 0.005296 -0.006264 -0.002830
v -0.000976 -0.005767 0.002394
v 0.003314 -0.002807 0.003884
v -0.004849 -0.003968 -0.000094
v 0.002320 -0.004968 -0.002292
v -0.002630 -0.004690 0.002434
v -0.001672 -0.004897 -0.002314
v 0.001415 -0.004577 0.002902
v -0.003961 -0.004012 -0.003594
v 0.004374 -0.001922 0.003967
v -0.005868 -0.002697 0.002768
v 0.005106 -0.002290 0.002625
v -0.004910 -0.001212 0.003364
v 0.004761 -0.001507 0.000399
v 0.005545 -0.003243 -0.003218
v 0.004331 -0.003037 -0.003324
v 0.004999 -0.001146 0.003620
v -0.000702 -0.001969 -0.002225
v -0.004923 -0.002825 -0.003890
v 0.003817 -0.001736 -0.003268
v -0.003123 -0.000066 0.002632
v -0.005561 -0.000771 0.001696
v -0.001213 -0.000970 0.002385
v -0.004835 -0.001641 0.000039
v 0.001842 0.000204 0.002656
v 0.001727 -0.001044 -0.002524
v 0.005152 0.002677 0.002701
v -0.005291 -0.000124 -0.002827
v -0.004869 0.000306 -0.001186
v -0.002005 0.000846 -0.002426
v 0.003421 0.001265 0.003627
v 0.001721 0.002157 -0.002439
v -0.005700 0.003438 0.002645
v 0.004655 0.003212 0.000419
v 0.005302 0.002503 -0.001677
v 0.005367 0.002820 -0.003014
v -0.005049 0.001494 -0.004028
v -0.003923 0.004244 -0.003802
v 0.004644 0.004932 0.003876
v -0.002201 0.002019 0.002427
v 0.004354 0.002842 -0.003353
v -0.004855 0.002482 0.000180
v -0.005399 0.004912 -0.002825
v -0.001959 0.003493 -0.002231
v -0.005601 0.004443 0.001735
v 0.002021 0.003095 0.002984
v -0.004859 0.004033 0.003129
v -0.003226 0.005339 0.002487
v 0.003460 0.004167 0.003877
v -0.004550 0.004112 -0.000837
v 0.002468 0.005083 -0.002677
v -0.001935 0.007172 -0.002636
v 0.005515 0.006540 -0.001654
v 0.005200 0.006334 0.002637
v -0.001532 0.006704 0.002265
v 0.004972 0.009683 0.000270
v -0.005024 0.007363 0.000078
v 0.004312 0.008384 -0.003406
v -0.005337 0.007139 -0.002615
v -0.003859 0.007436 -0.003719
v -0.004770 0.008776 0.003142
v -0.005712 0.007626 0.002652
v -0.005721 0.008102 0.001812
v 0.002171 0.007967 0.003011
v 0.005346 0.007120 -0.002985
v 0.003520 0.009937 0.003718
v -0.004884 0.006494 -0.003743
v 0.002345 0.008952 -0.002751
v -0.004713 0.008548 -0.001179
v 0.004467 0.010964 0.003855
v 0.005227 0.011454 0.003385
v -0.004694 0.008888 -0.000056
v -0.005015 0.009988 -0.004052
v -0.003733 0.011160 -0.003964
v 0.005840 0.011832 -0.002819
v 0.005392 0.009854 0.002712
v 0.005248 0.011308 0.001631
v -0.002320 0.012099 0.002037
v 0.005322 0.013007 -0.003770
v -0.005275 0.012213 -0.002824
v -0.000677 0.010933 -0.002541
v -0.004793 0.011536 -0.000560
v 0.005633 0.010826 -0.001522
v -0.004690 0.013667 0.003191
v -0.005662 0.013152 0.002708
v 0.002528 0.011982 -0.003118
v 0.001365 0.012772 0.002294
v -0.004947 0.013697 -0.003842
v -0.000339 0.012444 -0.002439
v -0.005718 0.015463 0.001799
v -0.002146 0.012616 -0.002910
v 0.005142 0.016625 0.000897
v 0.004416 0.013876 -0.003764
v 0.001649 0.013561 -0.002562
v -0.005327 0.016142 -0.002836
v -0.001062 0.014286 0.002214
v 0.003519 0.015597 0.003595
v 0.005400 0.014402 0.002656
v 0.005251 0.016603 -0.000262
v 0.005866 0.014971 -0.002537
v -0.004955 0.014977 -0.000756
v -0.003943 0.014983 -0.003660
v -0.002580 0.015203 -0.002958
v 0.001549 0.015740 0.002831
v -0.001760 0.017383 0.001996
v -0.000586 0.015730 -0.002696
v -0.005104 0.018761 -0.004044
v -0.005616 0.022236 0.002686
v -0.003201 0.018095 0.002328
v 0.005164 0.016833 0.002654
v 0.004149 0.017588 -0.003707
v 0.005348 0.017192 -0.003359
v -0.004880 0.016152 -0.003894
v -0.003847 0.017237 -0.003743
v 0.004423 0.015931 0.003620
v 0.001468 0.017985 0.002448
v -0.004840 0.020061 -0.001352
v -0.004823 0.022838 0.003127
v 0.001748 0.020001 -0.003198
v -0.002124 0.020258 -0.003154
v -0.005724 0.020269 0.002000
v 0.005903 0.019399 -0.002280
v 0.005769 0.019472 0.002954
v -0.005451 0.021013 -0.002812
v -0.003705 0.021352 -0.004312
v 0.003543 0.020220 0.003622
v 0.005139 0.020776 0.000441
v -0.003058 0.021779 0.002487
v 0.005425 0.019622 -0.003896
v 0.001464 0.021883 0.002635
v 0.005752 0.021668 -0.002692
v 0.005490 0.021717 0.002873
v 0.005196 0.021143 -0.004059
v 0.004480 0.020839 0.003701
v -0.006045 0.023140 0.001633
v -0.004660 0.022537 -0.004734
v 0.006095 0.023598 -0.003672
v -0.000439 0.023189 -0.004319
v -0.000095 0.022932 0.002696
v 0.005320 0.023777 -0.004394
v -0.005674 0.022739 -0.003535
v 0.005778 0.023468 0.002927
v -0.003038 0.024153 0.002756
v -0.004866 0.024340 -0.004705
v 0.004298 0.024096 0.003348
v -0.005620 0.024490 0.002886
v -0.005786 0.024257 -0.003771
v -0.005771 0.024619 0.001392
v 0.000962 0.024470 -0.003743
v 0.005669 0.024773 -0.004024
v -0.001000 0.024472 0.002657
v 0.005541 0.024652 -0.001245
v 0.005571 0.024548 0.002505
v -0.004767 0.025459 0.001886
v -0.000748 0.025446 0.001720
v -0.003562 0.025336 -0.002342
v 0.001285 0.025479 0.002312
v 0.004122 0.025370 0.002590
v -0.000414 0.025506 -0.001506
v 0.001939 0.025342 0.000278
v 0.004591 0.025355 -0.000826
v 0.003270 0.025546 -0.002318
v 0.000784 0.025164 -0.002442
v -0.004871 0.025088 -0.003839
v -0.002868 0.025877 0.001704
v -0.000090 0.025609 0.000216
v 0.004291 0.025745 0.001580
vn 0.0199 -0.9682 0.2494
vn -0.4618 -0.7799 0.4224
vn -0.6867 -0.7256 -0.0438
vn 0.6870 -0.5977 0.4133
vn -0.1510 -0.7931 0.5901
vn 0.2370 -0.9597 0.1512
vn -0.4108 -0.8496 0.3307
vn -0.3893 -0.9205 0.0331
vn 0.6593 -0.7518 0.0116
vn 0.2236 -0.8992 -0.3761
vn -0.2180 -0.4696 0.8555
vn -0.9323 -0.3006 0.2013
vn -0.9723 -0.2291 -0.0456
vn 0.0223 -0.6826 0.7304
vn 0.1010 -0.9767 0.1895
vn -0.0240 -0.6886 0.7247
vn 0.3181 -0.9474 0.0366
vn -0.9840 0.1368 0.1144
vn -0.9967 -0.0016 -0.0817
vn -0.9482 -0.0753 0.3086
vn 0.0210 -0.0120 0.9997
vn -0.2326 0.1530 0.9605
vn 0.1667 -0.0029 0.9860
vn 0.3062 0.0507 0.9506
vn -0.0422 -0.0005 0.9991
vn -0.9665 0.1761 0.1866
vn -0.1699 0.0765 0.9825
vn 0.2839 -0.0041 0.9588
vn 0.1451 -0.0801 0.9862
vn 0.0057 -0.0863 0.9963
vn -0.2352 -0.0363 0.9713
vn -0.9810 0.0023 0.1942
vn -0.1600 -0.0218 0.9869
vn -0.3001 0.0128 0.9538
vn -0.1977 -0.1153 0.9735
vn -0.9786 0.0431 -0.2012
vn 0.5998 0.0300 0.7996
vn -0.0276 0.0348 0.9990
vn -0.1150 0.0936 0.9889
vn 0.0216 0.0813 0.9965
vn -0.9010 0.0606 0.4295
vn -0.9479 0.0178 -0.3181
vn -0.0592 0.0765 0.9953
vn 0.9940 0.0145 0.1081
vn 1.0000 -0.0018 0.0008
vn 0.9998 0.0101 -0.0190
vn -0.9764 -0.0893 0.1968
vn -0.9601 -0.2006 -0.1951
vn -0.9864 0.0686 -0.1491
vn -0.9916 0.0172 -0.1280
vn -0.0965 0.0347 0.9947
vn 0.2483 0.0534 0.9672
vn 0.2895 -0.0101 0.9571
vn -0.8444 -0.3449 0.4099
vn -0.9421 0.0259 -0.3344
vn -0.0051 -0.0028 1.0000
vn -0.3237 -0.0134 0.9461
vn -0.3354 0.0194 0.9419
vn 0.1767 -0.0745 0.9814
vn -0.3914 0.0445 0.9191
vn -0.3088 0.0095 0.9511
vn 0.1019 0.0172 0.9946
vn 0.6155 0.0062 0.7881
vn -0.3317 -0.0251 0.9431
vn -0.9785 -0.0024 -0.2060
vn -0.9996 0.0128 0.0271
vn -0.9509 0.0067 -0.3095
vn 0.9733 -0.0044 0.2295
vn 0.8676 -0.1606 -0.4705
vn 0.9948 -0.0052 0.1015
vn -0.2681 0.0363 -0.9627
vn -0.1877 -0.0544 -0.9807
vn 0.1176 -0.0061 -0.9930
vn 0.1689 0.0101 0.9856
vn -0.1621 -0.0381 0.9860
vn 0.0311 -0.0267 0.9992
vn -0.0144 -0.0258 0.9996
vn -0.7910 0.0954 0.6043
vn -0.8361 -0.0035 0.5486
vn -0.9938 0.0077 -0.1110
vn 0.3307 0.0109 0.9437
vn -0.2639 0.0213 0.9643
vn 0.9999 -0.0128 -0.0082
vn 0.9972 -0.0625 0.0417
vn 0.9782 -0.0395 0.2037
vn 0.4681 0.0081 -0.8836
vn 0.6932 -0.0248 -0.7204
vn -0.0814 -0.0743 -0.9939
vn -0.1720 -0.0290 0.9847
vn 0.0825 0.2796 0.9566
vn -0.6772 0.4220 0.6028
vn -0.8126 0.5825 0.0183
vn -0.9997 -0.0139 0.0216
vn 0.0753 0.3487 0.9342
vn -0.0859 -0.1077 0.9905
vn 0.1347 0.2805 0.9503
vn 0.8086 0.0549 0.5858
vn 0.7799 0.4094 0.4734
vn -0.0939 -0.0396 0.9948
vn 0.4264 -0.0333 0.9039
vn -0.1144 0.2380 0.9645
vn -0.8973 -0.2934 -0.3299
vn -0.2427 -0.4252 -0.8720
vn -0.8673 -0.1235 -0.4822
vn -0.0308 -0.1520 -0.9879
vn -0.0626 -0.3581 -0.9316
vn 0.0200 0.1767 -0.9841
vn 0.9896 -0.0223 0.1420
vn 0.9945 -0.0825 -0.0652
vn 0.4504 -0.2016 -0.8697
vn 0.9976 0.0290 0.0629
vn 0.9993 -0.0123 -0.0362
vn 0.7798 0.0912 0.6194
vn -0.9827 0.0338 -0.1819
vn -0.9962 0.0144 0.0859
vn 0.2616 -0.0473 -0.9640
vn 0.3218 -0.0242 -0.9465
vn 0.1451 0.0447 -0.9884
vn -0.1879 -0.0458 -0.9811
vn -0.9802 -0.0239 -0.1966
vn -0.5101 0.0032 -0.8601
vn -0.3669 -0.0753 -0.9272
vn -0.8003 -0.0818 0.5939
vn -0.0715 0.0037 0.9974
vn -0.0764 0.0122 0.9970
vn -0.9182 0.0282 0.3951
vn 0.2794 0.0164 0.9600
vn -0.9753 0.0398 -0.2171
vn -0.9724 0.1093 -0.2063
vn -0.2552 -0.0672 0.9645
vn -0.3359 0.1417 0.9312
vn -0.3550 0.0456 0.9338
vn 0.2038 -0.1176 0.9719
vn 0.8054 -0.0038 0.5927
vn 0.9654 0.0880 0.2455
vn 0.9860 -0.1038 -0.1302
vn -0.9996 0.0033 -0.0264
vn -0.9992 -0.0123 -0.0393
vn -0.9937 -0.0677 -0.0892
vn 0.3566 0.0533 -0.9328
vn 0.3017 0.0013 -0.9534
vn 0.1680 0.2521 -0.9530
vn -0.5226 -0.2194 -0.8239
vn 0.9854 -0.0664 -0.1570
vn 0.9956 -0.0253 -0.0902
vn -0.2659 0.0207 0.9638
vn -0.3986 0.0480 0.9159
vn 0.0482 0.1307 0.9902
vn -0.0450 0.2346 0.9710
vn 0.1977 0.0284 0.9798
vn 0.9069 -0.0767 0.4144
vn 0.8086 0.1649 0.5648
vn 0.9858 -0.0695 -0.1528
vn 0.9782 -0.0344 -0.2046
vn 0.9694 0.0825 -0.2313
vn -0.9851 0.1327 -0.1098
vn -0.9380 -0.0511 -0.3430
vn -0.9846 0.0794 0.1558
vn 0.9957 -0.0046 0.0920
vn 0.8183 -0.1020 -0.5657
vn 0.6357 0.0467 -0.7705
vn -0.1208 0.0246 -0.9924
vn -0.2385 -0.0384 -0.9704
vn -0.1508 -0.0261 -0.9882
vn -0.9877 0.0016 0.1561
vn -0.9981 0.0534 -0.0300
vn -0.9998 0.0051 -0.0170
vn -0.5387 0.1883 -0.8212
vn 0.2989 -0.0022 -0.9543
vn 0.0524 0.0387 -0.9979
vn 0.2899 -0.0287 -0.9566
vn 0.9991 -0.0096 0.0423
vn 0.9889 -0.0263 0.1464
vn 0.9986 -0.0223 0.0479
vn 0.2494 -0.0478 -0.9672
vn -0.0450 -0.6323 -0.7734
vn 0.4901 -0.5319 -0.6906
vn 0.8798 -0.4601 -0.1197
vn 0.9796 -0.1166 0.1636
vn -0.0535 0.0329 -0.9980
vn -0.2294 -0.0025 -0.9733
vn 0.9971 0.0433 -0.0629
vn 0.9545 -0.0449 0.2950
vn 0.9385 0.0333 0.3437
vn 0.9912 0.0042 0.1326
vn 0.7170 -0.1901 -0.6707
vn -0.4549 -0.0683 -0.8879
vn -0.1028 -0.2101 -0.9723
vn 0.0824 -0.0709 -0.9941
vn 0.2129 -0.2263 -0.9505
vn 0.9996 -0.0267 0.0134
vn -0.1337 -0.0682 -0.9887
vn -0.0650 0.0337 0.9973
vn 0.4594 0.1094 0.8815
vn -0.3952 -0.0614 0.9166
vn 0.9995 0.0270 0.0161
vn 0.0387 -0.0037 -0.9992
vn -0.2149 -0.0296 -0.9762
vn -0.0635 -0.0689 -0.9956
vn 0.6746 -0.0696 -0.7349
vn -0.2945 0.0023 0.9557
vn -0.1331 0.0255 -0.9908
vn -0.2001 0.0191 -0.9796
vn 0.5174 -0.0272 -0.8553
vn -0.1293 -0.1294 -0.9831
vn 0.9980 0.0451 -0.0441
vn 0.2709 0.0149 -0.9625
vn 0.0078 -0.0447 -0.9990
vn -0.1947 -0.1111 -0.9746
vn -0.5213 0.1817 -0.8338
vn 0.3297 0.0987 -0.9389
vn -0.1867 -0.0309 -0.9819
vn -0.1780 0.0148 -0.9839
vn 0.9972 -0.0211 0.0722
vn -0.0283 0.6415 -0.7666
vn 0.3169 0.1134 -0.9417
vn 0.0429 -0.0144 -0.9990
vn 0.6236 0.5494 -0.5562
vn 0.9548 0.0343 -0.2954
vn -0.2816 0.8582 0.4293
vn -0.8304 0.2705 -0.4871
vn -0.1840 0.8779 -0.4420
vn -0.0091 0.9850 -0.1724
vn 0.0799 0.9816 -0.1733
vn 0.0883 0.9961 -0.0003
vn -0.1552 0.4435 -0.8828
vn -0.0659 0.9462 -0.3168
vn -0.0042 0.9991 -0.0411
vn 0.0419 0.9767 -0.2103
vn 0.3242 0.9416 -0.0904
vn 0.2447 0.9644 0.1002
vn 0.8293 0.5588 0.0007
vn -0.1991 0.0811 -0.9766
vn 0.1053 0.0481 -0.9933
vn -0.2095 0.0118 -0.9777
vn 0.9700 0.0308 0.2411
vn 0.9993 0.0066 0.0366
vn 0.6849 -0.1312 -0.7167
vn -0.2393 -0.0083 -0.9709
vn 0.4823 -0.0737 -0.8729
vn 0.8762 -0.0856 0.4742
vn -0.4207 0.1979 -0.8853
vn -0.6899 0.0151 0.7238
vn 0.0028 0.8921 0.4518
vn -0.0621 0.9410 0.3327
vn 0.0066 0.8698 0.4934
vn 0.2261 0.7236 0.6522
vn 0.0064 -0.7542 -0.6566
vn 0.0489 -0.1179 -0.9918
vn -0.1609 -0.0400 -0.9862
vn 0.1367 0.1194 0.9834
vn 0.9350 -0.0463 0.3516
vn 0.9477 -0.1395 0.2872
vn -0.9971 -0.0744 0.0149
vn -0.9997 -0.0232 0.0049
vn -0.9859 -0.0286 0.1650
vn -0.7081 -0.1328 -0.6935
vn 0.5156 0.0894 -0.8522
vn 0.3753 -0.0838 -0.9231
vn 0.0175 -0.9181 -0.3960
vn -0.2557 0.0883 0.9627
vn -0.9723 0.0538 -0.2275
vn 0.2576 -0.0616 -0.9643
vn 0.3643 -0.0420 -0.9303
vn 0.8305 0.2915 0.4747
vn -0.9972 -0.0295 -0.0693
vn 0.0442 0.2349 -0.9710
vn 0.2168 -0.1338 -0.9670
vn -0.2171 0.0012 -0.9761
vn -0.1561 -0.0902 0.9836
vn -0.9997 -0.0220 -0.0056
vn 0.2684 -0.0051 -0.9633
vn -0.2227 0.1639 0.9610
vn 0.2609 -0.0200 -0.9652
vn -0.0657 0.0320 0.9973
vn -0.1853 -0.0550 0.9811
vn -0.3559 0.1237 0.9263
vn -0.9563 -0.0743 -0.2827
vn -0.2999 -0.0260 -0.9536
vn 0.1437 -0.1103 0.9835
vn 0.3193 -0.4185 0.8502
vn 0.9577 -0.0717 0.2788
vn 0.9880 -0.1527 -0.0239
vn 0.0987 -0.0415 -0.9943
vn 0.0980 -0.5450 -0.8327
vn -0.7884 0.0727 0.6108
vn -0.2269 -0.0918 -0.9696
vn 0.3460 -0.0025 -0.9382
vn 0.9473 -0.1244 0.2952
vn -0.9759 0.1692 0.1379
vn 0.9959 0.0237 0.0879
vn -0.9722 0.0542 -0.2278
vn -0.9187 0.2100 -0.3345
vn 0.0920 -0.9826 -0.1612
vn -0.3071 -0.7244 -0.6172
vn 0.4084 -0.8566 -0.3152
vn -0.1423 -0.9319 -0.3337
vn 0.1343 -0.9906 0.0241
vt 0.794170 0.269358
vt 0.784836 0.249558
vt 0.835982 0.244063
vt 0.776371 0.444751
vt 0.786245 0.407371
vt 0.809818 0.411066
vt 0.810307 0.345178
vt 0.835730 0.362191
vt 0.842917 0.426775
vt 0.868225 0.410782
vt 0.758333 0.253240
vt 0.777157 0.228190
vt 0.679268 0.951950
vt 0.633926 0.984076
vt 0.628187 0.962772
vt 0.685446 0.982696
vt 0.763419 0.322074
vt 0.788591 0.321921
vt 0.767534 0.355099
vt 0.801911 0.294173
vt 0.625913 0.895008
vt 0.705330 0.926458
vt 0.225475 0.827420
vt 0.198071 0.829335
vt 0.205773 0.780349
vt 0.181709 0.879109
vt 0.168840 0.793624
vt 0.122639 0.805347
vt 0.228524 0.756952
vt 0.201710 0.751871
vt 0.187904 0.729835
vt 0.139928 0.733407
vt 0.136512 0.771674
vt 0.094834 0.742087
vt 0.223292 0.705853
vt 0.039972 0.760936
vt 0.071760 0.661741
vt 0.206067 0.701809
vt 0.666172 0.682864
vt 0.623681 0.731365
vt 0.620179 0.680304
vt 0.013533 0.762270
vt 0.027810 0.658956
vt 0.203327 0.659148
vt 0.130210 0.668092
vt 0.226301 0.637462
vt 0.615469 0.611827
vt 0.635164 0.585018
vt 0.132135 0.630051
vt 0.529583 0.525313
vt 0.572877 0.541680
vt 0.539319 0.634841
vt 0.695085 0.592283
vt 0.675801 0.568866
vt 0.672359 0.522580
vt 0.728263 0.561939
vt 0.207089 0.540737
vt 0.164686 0.608981
vt 0.174390 0.517126
vt 0.616202 0.544553
vt 0.637451 0.505811
vt 0.137455 0.534575
vt 0.083666 0.606103
vt 0.043460 0.570952
vt 0.022479 0.553151
vt 0.042707 0.489712
vt 0.076674 0.510673
vt 0.157175 0.475302
vt 0.018363 0.416560
vt 0.072519 0.453245
vt 0.634694 0.401972
vt 0.688305 0.407678
vt 0.668025 0.440502
vt 0.489106 0.444522
vt 0.462597 0.437675
vt 0.490857 0.364075
vt 0.383448 0.258744
vt 0.381507 0.319405
vt 0.321722 0.281219
vt 0.162068 0.274410
vt 0.137058 0.230669
vt 0.151898 0.169043
vt 0.205283 0.244308
vt 0.226239 0.073618
vt 0.225866 0.254527
vt 0.629143 0.182499
vt 0.612168 0.228881
vt 0.609425 0.047947
vt 0.179292 0.155349
vt 0.083971 0.201472
vt 0.483018 0.107659
vt 0.538831 0.081463
vt 0.522999 0.164274
vt 0.436864 0.105045
vt 0.437250 0.153843
vt 0.412616 0.146139
vt 0.461610 0.151310
vt 0.451816 0.102699
vt 0.209338 0.061699
vt 0.175550 0.034923
vt 0.225980 0.028853
vt 0.604646 0.003139
vt 0.633723 0.000000
vt 0.628798 0.029513
vt 0.135820 0.028077
vt 0.117693 0.058552
vt 0.029374 0.034753
vt 0.001496 0.046718
vt 0.007039 0.025027
vt 0.123673 0.962743
vt 0.017361 0.965872
vt 0.068679 0.947584
vt 0.716622 0.962078
vt 0.738245 0.956612
vt 0.734510 0.921199
vt 0.392487 0.942762
vt 0.308017 0.964711
vt 0.341590 0.927756
vt 0.486336 0.526007
vt 0.476000 0.062342
vt 0.449584 0.072394
vt 0.593421 0.744218
vt 0.569745 0.751382
vt 0.565676 0.715739
vt 0.590517 0.665321
vt 0.671180 0.763462
vt 0.696364 0.745119
vt 0.308543 0.744101
vt 0.263829 0.750335
vt 0.326775 0.693921
vt 0.381137 0.725946
vt 0.730080 0.696359
vt 0.744106 0.675815
vt 0.750315 0.757469
vt 0.242343 0.768208
vt 0.242128 0.686704
vt 0.226285 0.364553
vt 0.207522 0.436153
vt 0.206374 0.341708
vt 0.225510 0.447938
vt 0.177594 0.409439
vt 0.615145 0.338927
vt 0.616824 0.422336
vt 0.631552 0.329117
vt 0.667839 0.343234
vt 0.041551 0.432052
vt 0.041640 0.317056
vt 0.070124 0.356211
vt 0.022712 0.296485
vt 0.009297 0.286306
vt 0.008570 0.227175
vt 0.593353 0.268238
vt 0.558434 0.270464
vt 0.579783 0.209201
vt 0.721441 0.167270
vt 0.722759 0.245540
vt 0.679533 0.259916
vt 0.291330 0.247965
vt 0.257823 0.276688
vt 0.253393 0.200921
vt 0.233431 0.226745
vt 0.469357 0.258158
vt 0.476184 0.195742
vt 0.087060 0.156576
vt 0.206215 0.914851
vt 0.173370 0.925860
vt 0.113339 0.898438
vt 0.016598 0.859991
vt 0.005223 0.902613
vt -0.000000 0.833120
vt 0.587137 0.815096
vt 0.564395 0.868097
vt 0.563370 0.810656
vt 0.583082 0.884627
vt 0.544294 0.877174
vt 0.672204 0.876979
vt 0.641861 0.800895
vt 0.706612 0.856015
vt 0.481271 0.625668
vt 0.462674 0.618662
vt 0.455790 0.558289
vt 0.419749 0.632013
vt 0.385778 0.596801
vt 0.422587 0.556844
vt 0.443681 0.621096
vt 0.446889 0.560581
vt 0.695769 0.483335
vt 0.725109 0.390951
vt 0.727244 0.491253
vt 0.751004 0.458593
vt 0.298398 0.482548
vt 0.256279 0.414528
vt 0.299057 0.430004
vt 0.601401 0.398449
vt 0.576331 0.442789
vt 0.576465 0.369911
vt 0.532060 0.431369
vt 0.297597 0.356455
vt 0.386042 0.977977
vt 0.449584 0.971335
vt 0.417841 1.000000
vt 0.883292 0.453390
vt 0.476935 0.964823
vt 0.512562 0.947268
vt 0.519599 0.985525
vt 0.896990 0.442183
vt 0.423258 0.685850
vt 0.377163 0.671154
vt 0.539363 0.708490
vt 0.506399 0.724007
vt 0.505155 0.656430
vt 0.478250 0.760775
vt 0.454156 0.710555
vt 0.748485 0.289420
vt 0.743173 0.215634
vt 0.232569 0.300421
vt 0.365705 0.099361
vt 0.321870 0.185596
vt 0.289177 0.095671
vt 0.546191 0.164300
vt 0.423707 0.777574
vt 0.448776 0.712775
vt 0.042801 0.204293
vt 0.024985 0.197457
vt 0.073915 0.816515
vt 0.527285 0.770715
vt 0.421409 0.439812
vt 0.385125 0.396405
vt 0.418985 0.329490
vt 0.442265 0.440149
vt 0.440769 0.354586
vt 0.088879 0.260331
vt 0.418731 0.219864
vt 0.366964 0.228074
vt 0.436879 0.236821
vt 0.451795 0.234501
vt 0.376561 0.765207
vt 0.571856 0.669180
vt 0.306770 0.596806
vt 0.325381 0.538253
vt 0.750554 0.618955
vt 0.750167 0.544674
vt 0.258219 0.579021
vt 0.243936 0.629668
vt 0.238163 0.555511
vt 0.372453 0.518745
vt 0.371704 0.455094
vt 0.234198 0.469493
vt 0.531225 0.302364
vt 0.464952 0.352041
vt 0.431537 0.074726
vt 0.347684 0.010273
vt 0.432505 0.021994
vt 0.318951 0.035825
vt 0.440029 0.002334
vt 0.449584 0.025853
vt 0.891383 0.019922
vt 0.776548 0.000000
vt 0.879531 0.000000
vt 0.777272 0.018194
vt 0.807556 0.044169
vt 0.824680 0.106820
vt 0.858994 0.113185
vt 0.758334 0.018380
vt 0.778039 0.134416
vt 0.805421 0.130752
vt 0.859705 0.153615
vt 0.808956 0.180266
vt 0.838081 0.206488
vt 0.886574 0.200360
vt 0.828152 0.225477
vt 0.902071 0.225872
vt 0.773512 0.228190
vt 0.388456 0.880181
vt 0.329309 0.862648
vt 0.387053 0.818407
vt 0.505797 0.892374
vt 0.480269 0.833221
vt 0.449358 0.925185
vt 0.424625 0.855813
vt 0.447402 0.808625
vt 0.458076 0.806337
vt 0.010581 0.683358
vt 0.227607 0.570195
vt 0.593269 0.519310
vt 0.743989 0.359128
vt 0.236836 0.370145
vt 0.456769 0.023450
vt 0.588220 0.028669
vt 0.218971 0.869286
vt 0.224871 0.920529
vt 0.908772 0.002929
vt 0.212472 0.008842
vt 0.175742 -0.000000
vt 0.133923 0.008115
vt 0.092078 0.007328
vt 0.035394 0.009021
vt 0.905624 0.196958
vt 0.346217 0.978254
vt 0.463440 0.968981
vt 0.452066 0.923051
vt 0.328242 0.251108
vt 0.412211 0.531169
vt 0.024250 0.099750
vt 0.001052 0.126303
vt 0.601137 0.179352
vt 0.581121 0.160850
vt 0.587160 0.108264
vt 0.691960 0.089816
vt 0.623411 0.086872
vt 0.718886 0.070271
vt 0.744933 0.114687
vt 0.228524 0.125860
vt 0.254864 0.073568
vt 0.254502 0.155972
vt 0.848306 0.379583
vt 0.034771 0.878559
vt 0.733388 0.852498
vt 0.316262 0.786031
vt 0.300812 0.833044
vt 0.758334 0.511878
vt 0.758334 0.453390
vt 0.761255 0.488495
vt 0.681745 0.191286
vt 0.233989 0.177804
vt 0.281963 0.196605
vt 0.423792 0.914674
vt 0.199452 0.963165
vt 0.011361 0.537369
vt 0.720321 0.346675
vt 0.256902 0.351055
vt 0.089947 0.849934
vt 0.606746 0.843653
vt 0.620887 0.801843
vt 0.307992 0.637198
vt 0.145140 0.381785
vt 0.087069 0.079073
vt 0.042848 0.112246
vt 0.731978 0.035602
vt 0.758334 0.039242
vt 0.234646 0.049999
vt 0.176467 0.082060
vt 0.888902 0.057740
vt 0.101139 0.985238
vt 0.017527 0.986206
vt 0.578888 0.937515
vt 0.604646 0.947751
vt 0.586355 0.980740
vt 0.602892 0.968097
vt 0.544216 0.947277
vt 0.278350 0.943641
vt 0.282700 0.972664
vt 0.246583 0.967528
vt 0.735813 0.005263
vt 0.763475 0.106610
vt 0.231939 -0.000000
vt 0.506281 0.003522
vt 0.580635 0.007040
vt 0.450972 -0.000000
vt 0.222081 0.959867
vt 0.202497 0.988883
vt 0.228524 0.988324
vt 0.134004 0.988644
vt 0.245213 0.922867
vt 0.263806 0.869580
vt 0.604646 0.081617
vt 0.586906 0.063587
vt 0.603715 0.278361
vt 0.693036 0.319204
vt 0.579066 0.299791
vt 0.670790 0.312853
vt 0.677001 0.612087
vt 0.756586 0.003328
vt 0.230172 0.014213
vt 0.604646 0.934166
vt 0.606667 0.889391
vt 0.495018 0.278740
vt 0.856214 0.269685
vt 0.877078 0.245359
vt 0.868182 0.292201
vt 0.871813 0.322304
vt 0.883657 0.338821
vt 0.880780 0.378582
vt 0.758333 0.438328
vt 0.726447 0.986158
vt 0.252312 0.997230
vt 0.299543 0.988686
vt 0.839541 0.313531
vt 0.884486 0.275180
vt 0.892643 0.300400
vt 0.230549 0.932510
vt 0.598013 0.841913
vt 0.233766 0.863778
vt 0.748280 0.912150
vt 0.007113 0.081618
vt 0.888312 0.100000
vt 0.900214 0.140465
s 1
usemtl FusedMaterial
f 6/1/1 4/2/2 5/3/3
f 13/4/4 11/5/5 3/6/6
f 11/5/5 9/7/7 1/8/8
f 1/8/8 3/6/6 11/5/5
f 14/9/9 13/4/4 3/6/6
f 3/6/6 15/10/10 14/9/9
f 22/11/11 20/12/12 4/2/2
f 22/11/11 4/2/2 6/1/1
f 24/13/13 4/14/2 20/15/12
f 5/16/3 4/14/2 24/13/13
f 25/17/14 6/1/1 31/18/15
f 25/17/14 22/11/11 6/1/1
f 16/19/16 31/18/15 9/7/7
f 16/19/16 25/17/14 31/18/15
f 16/19/16 9/7/7 11/5/5
f 8/20/17 31/18/15 6/1/1
f 48/21/18 24/13/13 20/15/12
f 47/22/19 24/13/13 48/21/18
f 79/23/20 69/24/21 85/25/22
f 65/26/23 75/27/24 69/24/21
f 82/28/25 75/27/24 65/26/23
f 98/29/26 85/25/22 99/30/27
f 100/31/28 75/27/24 106/32/29
f 106/32/29 75/27/24 94/33/30
f 97/34/31 106/32/29 94/33/30
f 99/30/27 109/35/32 98/29/26
f 89/36/33 124/37/34 97/34/31
f 109/35/32 99/30/27 115/38/35
f 115/38/35 99/30/27 100/31/28
f 110/39/36 98/40/26 109/41/32
f 89/36/33 92/42/37 113/43/38
f 100/31/28 106/32/29 125/44/39
f 124/37/34 121/45/40 97/34/31
f 121/45/40 106/32/29 97/34/31
f 124/37/34 89/36/33 113/43/38
f 130/46/41 115/38/35 125/44/39
f 109/35/32 115/38/35 130/46/41
f 130/47/41 128/48/42 109/41/32
f 110/39/36 109/41/32 128/48/42
f 125/44/39 106/32/29 121/45/40
f 133/49/43 121/45/40 124/37/34
f 145/50/44 143/51/45 118/52/46
f 117/53/47 135/54/48 155/55/49
f 129/56/50 117/53/47 155/55/49
f 144/57/51 137/58/52 152/59/53
f 142/60/54 153/61/55 128/48/42
f 155/55/49 128/48/42 153/61/55
f 152/59/53 137/58/52 154/62/56
f 137/58/52 133/49/43 154/62/56
f 139/63/57 154/62/56 133/49/43
f 134/64/58 141/65/59 162/66/60
f 156/67/61 134/64/58 162/66/60
f 171/68/62 144/57/51 152/59/53
f 152/59/53 154/62/56 171/68/62
f 154/62/56 156/67/61 171/68/62
f 162/66/60 141/65/59 170/69/63
f 156/67/61 162/66/60 177/70/64
f 176/71/65 181/72/66 173/73/67
f 166/74/68 167/75/69 184/76/70
f 217/77/71 199/78/72 212/79/73
f 209/80/74 227/81/75 236/82/76
f 215/83/77 239/84/78 216/85/79
f 221/86/80 216/87/79 239/88/78
f 215/83/77 209/80/74 240/89/81
f 236/82/76 240/89/81 209/80/74
f 227/81/75 235/90/82 236/82/76
f 253/91/83 258/92/84 230/93/85
f 260/94/86 243/95/87 242/96/88
f 253/91/83 243/97/87 260/98/86
f 249/99/89 274/100/90 277/101/91
f 277/102/91 279/103/92 266/104/93
f 282/105/94 274/100/90 270/106/95
f 270/106/95 276/107/96 282/105/94
f 276/107/96 273/108/97 284/109/98
f 39/110/99 36/111/100 43/112/101
f 27/113/102 24/13/13 47/22/19
f 28/114/103 27/113/102 47/22/19
f 47/22/19 41/115/104 28/114/103
f 37/116/105 30/117/106 49/118/107
f 131/119/108 167/75/69 166/74/68
f 258/92/84 253/91/83 262/120/109
f 262/120/109 260/98/86 264/121/110
f 92/122/37 93/123/111 103/124/112
f 103/124/112 108/125/113 92/122/37
f 78/126/114 98/40/26 110/39/36
f 87/127/115 78/126/114 110/39/36
f 101/128/116 81/129/117 111/130/118
f 102/131/119 101/128/116 111/130/118
f 90/132/120 112/133/121 80/134/122
f 81/129/117 80/135/122 112/136/121
f 193/137/123 178/138/124 192/139/125
f 164/140/126 178/138/124 193/137/123
f 179/141/127 192/139/125 178/138/124
f 193/142/123 176/71/65 164/143/126
f 193/142/123 194/144/128 176/71/65
f 188/145/129 176/71/65 194/144/128
f 180/146/130 170/69/63 197/147/131
f 195/148/132 180/146/130 197/147/131
f 201/149/133 202/150/134 229/151/135
f 202/152/134 208/153/136 229/154/135
f 226/155/137 211/156/138 213/157/139
f 222/158/140 205/159/141 233/160/142
f 205/159/141 219/161/143 233/160/142
f 206/162/144 231/163/145 230/93/85
f 236/82/76 235/90/82 247/164/146
f 50/165/147 56/166/148 65/26/23
f 59/167/149 65/26/23 56/166/148
f 62/168/150 53/169/151 76/170/152
f 76/171/152 55/172/153 77/173/154
f 53/174/151 55/172/153 76/171/152
f 57/175/155 77/173/154 55/172/153
f 78/126/114 52/176/156 73/177/157
f 64/178/158 52/176/156 78/126/114
f 123/179/159 132/180/160 146/181/161
f 127/182/162 136/183/163 147/184/164
f 132/185/160 127/182/162 147/184/164
f 147/184/164 146/186/161 132/185/160
f 160/187/165 174/188/166 159/189/167
f 168/190/168 159/189/167 174/188/166
f 161/191/169 169/192/170 175/193/171
f 170/194/63 158/195/172 185/196/173
f 158/195/172 165/197/174 185/196/173
f 175/193/171 169/192/170 183/198/175
f 165/197/174 166/74/68 184/76/70
f 19/199/176 21/200/177 15/201/10
f 14/9/9 15/10/10 26/202/178
f 26/203/178 23/204/179 14/205/9
f 26/202/178 15/10/10 21/206/177
f 116/207/180 107/208/181 127/182/162
f 104/209/182 105/210/183 120/211/184
f 120/211/184 118/52/46 104/209/182
f 105/210/183 95/212/185 123/179/159
f 95/212/185 96/213/186 123/179/159
f 135/54/48 128/48/42 155/55/49
f 197/147/131 170/69/63 201/149/133
f 201/149/133 170/69/63 202/150/134
f 185/196/173 202/152/134 170/194/63
f 204/214/187 211/156/138 219/215/143
f 205/159/141 204/216/187 219/161/143
f 250/217/188 237/218/189 251/219/190
f 223/220/191 230/93/85 258/92/84
f 107/208/181 102/131/119 111/130/118
f 86/221/192 102/131/119 107/208/181
f 107/208/181 116/207/180 86/221/192
f 96/222/186 86/221/192 116/207/180
f 228/223/193 201/149/133 246/224/194
f 83/225/195 94/33/30 82/28/25
f 89/36/33 62/168/150 92/42/37
f 62/168/150 76/170/152 92/42/37
f 92/122/37 76/171/152 93/123/111
f 93/123/111 76/171/152 77/173/154
f 72/226/196 93/123/111 77/173/154
f 172/227/197 182/228/198 189/229/199
f 167/230/69 172/227/197 189/229/199
f 189/229/199 196/231/200 167/230/69
f 213/157/139 194/144/128 221/86/80
f 195/148/132 197/147/131 218/232/201
f 194/144/128 216/87/79 221/86/80
f 209/80/74 218/232/201 227/81/75
f 201/149/133 228/223/193 197/147/131
f 218/232/201 197/147/131 228/223/193
f 224/233/202 225/234/203 242/96/88
f 243/95/87 224/233/202 242/96/88
f 210/235/204 224/233/202 243/95/87
f 231/163/145 210/236/204 243/97/87
f 104/209/182 103/124/112 93/123/111
f 93/123/111 72/226/196 104/209/182
f 88/237/205 101/128/116 102/131/119
f 114/238/206 118/52/46 143/51/45
f 107/208/181 138/239/207 149/240/208
f 122/241/209 129/56/50 150/242/210
f 140/243/211 122/244/209 150/245/210
f 136/183/163 107/208/181 149/240/208
f 118/52/46 120/211/184 145/50/44
f 145/50/44 120/211/184 131/119/108
f 143/51/45 145/50/44 165/197/174
f 157/246/212 161/191/169 163/247/213
f 159/189/167 168/190/168 150/242/210
f 161/191/169 140/243/211 169/192/170
f 169/192/170 150/245/210 168/248/168
f 184/76/70 187/249/214 165/197/174
f 184/76/70 167/75/69 196/250/200
f 250/217/188 264/251/110 242/96/88
f 260/98/86 262/120/109 253/91/83
f 260/94/86 242/96/88 264/251/110
f 280/252/215 271/253/216 269/254/217
f 281/255/218 271/253/216 280/252/215
f 268/256/219 271/253/216 281/255/218
f 285/257/220 278/258/221 279/259/92
f 278/258/221 285/257/220 295/260/222
f 287/261/223 295/260/222 285/257/220
f 290/262/224 287/261/223 297/263/225
f 275/264/226 278/258/221 295/260/222
f 295/260/222 287/261/223 280/265/215
f 287/261/223 290/262/224 280/265/215
f 280/265/215 290/262/224 294/266/227
f 297/263/225 291/267/228 294/266/227
f 294/266/227 291/267/228 293/268/229
f 292/269/230 298/270/231 283/271/232
f 298/270/231 284/272/98 283/271/232
f 292/269/230 283/271/232 281/273/218
f 51/274/233 54/275/234 84/276/235
f 58/277/236 63/278/237 72/226/196
f 45/279/238 61/280/239 74/281/240
f 72/226/196 63/278/237 95/212/185
f 95/212/185 74/282/240 96/213/186
f 133/49/43 124/37/34 139/63/57
f 134/64/58 113/43/38 141/65/59
f 134/64/58 139/63/57 124/37/34
f 108/283/113 141/65/59 113/43/38
f 144/57/51 164/140/126 142/284/54
f 153/61/55 142/60/54 164/143/126
f 160/187/165 173/73/67 181/72/66
f 174/188/166 160/187/165 181/72/66
f 163/247/213 161/191/169 175/193/171
f 148/285/241 158/195/172 170/194/63
f 168/190/168 174/188/166 198/286/242
f 169/192/170 168/248/168 198/287/242
f 268/288/219 273/289/97 258/92/84
f 258/92/84 262/120/109 268/288/219
f 264/251/110 269/254/217 271/253/216
f 264/251/110 271/253/216 268/256/219
f 70/290/243 50/165/147 69/24/21
f 48/291/18 50/165/147 70/290/243
f 65/26/23 69/24/21 50/165/147
f 52/176/156 48/21/18 73/177/157
f 285/257/220 279/259/92 277/292/91
f 285/293/220 277/101/91 274/100/90
f 296/294/244 285/293/220 274/100/90
f 286/295/245 296/294/244 282/105/94
f 296/294/244 274/100/90 282/105/94
f 282/105/94 288/296/246 286/295/245
f 282/105/94 276/107/96 289/297/247
f 289/297/247 288/296/246 282/105/94
f 276/107/96 284/109/98 289/297/247
f 298/270/231 289/298/247 284/272/98
f 19/199/176 17/299/248 37/116/105
f 21/200/177 19/199/176 37/116/105
f 26/203/178 21/300/177 45/301/238
f 217/77/71 220/302/249 225/234/203
f 224/233/202 217/77/71 225/234/203
f 239/84/78 215/83/77 249/99/89
f 215/83/77 240/89/81 249/99/89
f 100/31/28 99/30/27 75/27/24
f 99/30/27 85/25/22 75/27/24
f 78/126/114 73/177/157 98/40/26
f 145/50/44 131/119/108 166/74/68
f 131/119/108 146/181/161 167/75/69
f 146/186/161 151/303/250 167/230/69
f 189/229/199 182/228/198 199/78/72
f 265/304/251 228/223/193 246/224/194
f 265/304/251 246/224/194 254/305/252
f 246/306/194 241/307/253 254/308/252
f 241/307/253 223/220/191 254/308/252
f 248/309/254 221/86/80 252/310/255
f 248/309/254 255/311/256 226/155/137
f 238/312/257 226/155/137 255/311/256
f 238/313/257 256/314/258 245/315/259
f 237/218/189 245/315/259 251/219/190
f 3/6/6 1/8/8 2/316/260
f 83/225/195 71/317/261 89/36/33
f 62/168/150 89/36/33 71/317/261
f 66/318/262 64/178/158 87/127/115
f 87/127/115 90/132/120 66/318/262
f 91/319/263 67/320/264 81/129/117
f 88/237/205 67/320/264 91/319/263
f 80/134/122 66/318/262 90/132/120
f 159/189/167 129/56/50 160/187/165
f 138/239/207 140/243/211 161/191/169
f 149/240/208 138/239/207 161/191/169
f 157/246/212 149/240/208 161/191/169
f 220/302/249 217/77/71 212/79/73
f 208/153/136 187/249/214 223/220/191
f 206/321/144 187/322/214 214/323/265
f 189/229/199 217/77/71 224/233/202
f 210/235/204 189/229/199 224/233/202
f 247/164/146 235/90/82 228/223/193
f 241/307/253 229/154/135 223/220/191
f 248/309/254 232/324/266 221/86/80
f 226/155/137 232/324/266 248/309/254
f 245/315/259 244/325/267 238/313/257
f 237/218/189 234/326/268 245/315/259
f 45/279/238 21/200/177 44/327/269
f 50/165/147 35/328/270 56/166/148
f 59/167/149 56/166/148 39/110/99
f 84/276/235 67/320/264 88/237/205
f 86/221/192 84/276/235 88/237/205
f 74/282/240 95/212/185 63/278/237
f 142/284/54 125/44/39 144/57/51
f 130/46/41 125/44/39 142/284/54
f 125/44/39 137/58/52 144/57/51
f 128/48/42 130/47/41 142/60/54
f 141/65/59 108/283/113 148/329/241
f 108/125/113 114/238/206 143/51/45
f 143/51/45 148/285/241 108/125/113
f 190/330/271 198/286/242 174/188/166
f 191/331/272 169/192/170 198/287/242
f 182/228/198 175/193/171 183/198/175
f 183/198/175 199/78/72 182/228/198
f 59/167/149 71/317/261 68/332/273
f 49/118/107 54/275/234 51/274/233
f 48/21/18 70/333/243 79/334/20
f 79/23/20 70/290/243 69/24/21
f 73/177/157 48/21/18 79/334/20
f 65/26/23 68/332/273 82/28/25
f 81/129/117 119/335/274 111/130/118
f 81/129/117 112/136/121 122/244/209
f 176/71/65 188/145/129 181/72/66
f 186/336/275 177/70/64 195/148/132
f 177/70/64 180/146/130 195/148/132
f 265/304/251 261/337/276 257/338/277
f 238/312/257 255/311/256 272/339/278
f 272/339/278 267/340/279 238/312/257
f 256/314/258 238/313/257 267/341/279
f 250/217/188 251/219/190 269/254/217
f 249/99/89 277/101/91 239/84/78
f 249/99/89 259/342/280 274/100/90
f 277/102/91 266/104/93 239/88/78
f 259/342/280 270/106/95 274/100/90
f 270/106/95 261/337/276 276/107/96
f 261/337/276 265/304/251 276/107/96
f 285/257/220 296/343/244 287/261/223
f 297/263/225 287/261/223 296/343/244
f 294/266/227 290/262/224 297/263/225
f 292/269/230 291/267/228 298/270/231
f 293/268/229 291/267/228 292/269/230
f 36/111/100 39/110/99 16/344/16
f 16/344/16 18/345/281 36/111/100
f 38/346/282 36/347/100 13/348/4
f 36/347/100 18/349/281 13/348/4
f 46/350/283 38/346/282 13/348/4
f 46/350/283 13/348/4 23/204/179
f 40/351/284 29/352/285 28/353/103
f 30/117/106 29/352/285 40/351/284
f 37/116/105 17/299/248 30/117/106
f 120/211/184 123/179/159 131/119/108
f 148/285/241 143/51/45 158/195/172
f 129/56/50 155/55/49 160/187/165
f 150/242/210 129/56/50 159/189/167
f 140/243/211 150/245/210 169/192/170
f 179/141/127 186/336/275 209/80/74
f 209/80/74 186/336/275 195/148/132
f 243/97/87 253/91/83 231/163/145
f 279/103/92 278/354/221 266/104/93
f 269/355/217 275/264/226 295/260/222
f 295/356/222 280/252/215 269/254/217
f 273/289/97 268/288/219 283/357/232
f 283/357/232 284/358/98 273/289/97
f 283/357/232 268/288/219 281/359/218
f 44/327/269 51/274/233 61/280/239
f 58/277/236 26/203/178 63/278/237
f 26/203/178 45/301/238 63/278/237
f 61/280/239 51/274/233 84/276/235
f 57/175/155 58/277/236 72/226/196
f 63/278/237 45/301/238 74/282/240
f 45/279/238 44/327/269 61/280/239
f 84/276/235 86/221/192 61/280/239
f 74/281/240 61/280/239 86/221/192
f 145/50/44 166/74/68 165/197/174
f 172/227/197 157/246/212 163/247/213
f 151/303/250 157/246/212 172/227/197
f 167/230/69 151/303/250 172/227/197
f 179/141/127 171/68/62 186/336/275
f 177/70/64 186/336/275 171/68/62
f 264/251/110 250/217/188 269/254/217
f 264/121/110 268/288/219 262/120/109
f 35/328/270 34/360/286 22/361/11
f 20/362/12 22/361/11 34/360/286
f 39/110/99 35/328/270 25/363/14
f 35/328/270 22/361/11 25/363/14
f 39/110/99 25/363/14 16/344/16
f 55/172/153 46/350/283 57/175/155
f 38/346/282 46/350/283 55/172/153
f 46/350/283 23/204/179 57/175/155
f 42/364/287 60/365/288 40/351/284
f 108/283/113 113/43/38 92/42/37
f 108/125/113 103/124/112 114/238/206
f 104/209/182 114/238/206 103/124/112
f 110/39/36 117/53/47 87/127/115
f 90/132/120 87/127/115 117/53/47
f 125/44/39 115/38/35 100/31/28
f 123/179/159 96/213/186 132/180/160
f 96/222/186 127/182/162 132/185/160
f 107/208/181 119/335/274 138/239/207
f 123/179/159 146/181/161 131/119/108
f 105/210/183 104/209/182 72/226/196
f 125/44/39 121/45/40 137/58/52
f 133/49/43 137/58/52 121/45/40
f 124/37/34 113/43/38 134/64/58
f 266/104/93 252/310/255 239/88/78
f 259/342/280 261/337/276 270/106/95
f 265/366/251 263/367/289 273/289/97
f 273/108/97 276/107/96 265/304/251
f 263/367/289 258/92/84 273/289/97
f 154/62/56 139/63/57 156/67/61
f 134/64/58 156/67/61 139/63/57
f 246/306/194 201/368/133 229/154/135
f 208/153/136 223/220/191 229/154/135
f 213/157/139 221/86/80 232/324/266
f 226/155/137 213/157/139 232/324/266
f 222/158/140 225/234/203 220/302/249
f 234/326/268 222/158/140 233/160/142
f 43/112/101 36/111/100 71/317/261
f 36/347/100 38/346/282 53/174/151
f 49/118/107 40/351/284 54/275/234
f 188/145/129 200/369/290 190/330/271
f 185/196/173 187/249/214 207/370/291
f 194/144/128 203/371/292 188/145/129
f 203/371/292 200/369/290 188/145/129
f 190/330/271 204/214/187 198/286/242
f 205/159/141 198/287/242 204/216/187
f 191/331/272 198/287/242 205/159/141
f 183/198/175 191/331/272 205/159/141
f 228/223/193 265/304/251 257/338/277
f 247/164/146 228/223/193 257/338/277
f 254/308/252 223/220/191 258/92/84
f 37/116/105 49/118/107 51/274/233
f 68/332/273 65/26/23 59/167/149
f 98/29/26 79/23/20 85/25/22
f 75/27/24 85/25/22 69/24/21
f 73/177/157 79/334/20 98/40/26
f 75/27/24 82/28/25 94/33/30
f 94/33/30 83/225/195 97/34/31
f 83/225/195 89/36/33 97/34/31
f 91/319/263 81/129/117 101/128/116
f 88/237/205 91/319/263 101/128/116
f 136/183/163 127/182/162 107/208/181
f 123/179/159 120/211/184 105/210/183
f 96/222/186 116/207/180 127/182/162
f 172/227/197 163/247/213 182/228/198
f 208/153/136 207/370/291 187/249/214
f 200/369/290 211/156/138 190/330/271
f 199/78/72 183/198/175 212/79/73
f 204/214/187 190/330/271 211/156/138
f 241/307/253 246/306/194 229/154/135
f 219/161/143 238/313/257 244/325/267
f 245/315/259 233/160/142 244/325/267
f 234/326/268 233/160/142 245/315/259
f 233/160/142 219/161/143 244/325/267
f 102/131/119 86/221/192 88/237/205
f 72/226/196 95/212/185 105/210/183
f 86/221/192 96/222/186 74/281/240
f 126/372/293 128/48/42 135/54/48
f 117/53/47 126/372/293 135/54/48
f 119/335/274 122/244/209 140/243/211
f 140/243/211 138/239/207 119/335/274
f 230/93/85 231/163/145 253/91/83
f 250/217/188 225/234/203 237/218/189
f 242/96/88 225/234/203 250/217/188
f 272/339/278 266/104/93 278/354/221
f 278/354/221 267/340/279 272/339/278
f 278/354/221 275/373/226 267/340/279
f 269/254/217 267/341/279 275/374/226
f 281/273/218 280/265/215 293/268/229
f 280/265/215 294/266/227 293/268/229
f 293/268/229 292/269/230 281/273/218
f 35/328/270 50/165/147 34/360/286
f 20/15/12 34/375/286 48/21/18
f 48/21/18 34/375/286 50/376/147
f 35/328/270 39/110/99 56/166/148
f 47/22/19 48/21/18 52/176/156
f 39/110/99 43/112/101 59/167/149
f 194/144/128 213/157/139 203/371/292
f 200/369/290 203/371/292 213/157/139
f 205/159/141 212/79/73 183/198/175
f 44/327/269 37/116/105 51/274/233
f 57/175/155 23/204/179 58/277/236
f 23/204/179 26/203/178 58/277/236
f 206/162/144 214/377/265 184/76/70
f 189/229/199 199/78/72 217/77/71
f 223/220/191 187/249/214 230/93/85
f 206/162/144 230/93/85 187/249/214
f 206/162/144 210/236/204 231/163/145
f 8/20/17 6/1/1 12/378/294
f 5/3/3 12/378/294 6/1/1
f 12/378/294 5/3/3 7/379/295
f 10/380/296 12/378/294 7/379/295
f 9/7/7 33/381/297 1/8/8
f 17/382/248 1/8/8 33/381/297
f 2/316/260 1/8/8 19/383/176
f 19/383/176 15/10/10 2/316/260
f 2/316/260 15/10/10 3/6/6
f 19/383/176 1/8/8 17/382/248
f 136/183/163 149/240/208 157/246/212
f 151/303/250 136/183/163 157/246/212
f 147/184/164 136/183/163 151/303/250
f 185/196/173 165/197/174 187/249/214
f 190/330/271 181/72/66 188/145/129
f 190/330/271 174/188/166 181/72/66
f 169/192/170 191/331/272 183/198/175
f 175/193/171 182/228/198 163/247/213
f 202/152/134 185/196/173 207/370/291
f 189/229/199 210/235/204 196/231/200
f 206/162/144 196/250/200 210/236/204
f 192/139/125 179/141/127 209/80/74
f 216/85/79 192/139/125 215/83/77
f 193/137/123 192/139/125 216/85/79
f 194/144/128 193/142/123 216/87/79
f 209/80/74 215/83/77 192/139/125
f 195/148/132 218/232/201 209/80/74
f 207/370/291 208/153/136 202/152/134
f 211/156/138 200/369/290 213/157/139
f 220/302/249 212/79/73 222/158/140
f 222/158/140 212/79/73 205/159/141
f 239/88/78 252/310/255 221/86/80
f 247/164/146 259/342/280 236/82/76
f 249/99/89 240/89/81 259/342/280
f 240/89/81 236/82/76 259/342/280
f 259/342/280 247/164/146 261/337/276
f 148/329/241 170/69/63 141/65/59
f 158/195/172 143/51/45 165/197/174
f 153/61/55 173/73/67 155/55/49
f 173/73/67 160/187/165 155/55/49
f 176/71/65 153/61/55 164/143/126
f 173/73/67 153/61/55 176/71/65
f 177/70/64 171/68/62 156/67/61
f 187/249/214 184/76/70 214/377/265
f 184/76/70 196/250/200 206/162/144
f 228/223/193 235/90/82 218/232/201
f 235/90/82 227/81/75 218/232/201
f 237/218/189 222/158/140 234/326/268
f 225/234/203 222/158/140 237/218/189
f 238/312/257 211/156/138 226/155/137
f 219/215/143 211/156/138 238/312/257
f 18/384/281 16/19/16 11/5/5
f 11/5/5 13/4/4 18/384/281
f 23/204/179 13/348/4 14/205/9
f 24/13/13 27/113/102 5/16/3
f 7/385/295 5/16/3 27/113/102
f 27/113/102 28/114/103 7/385/295
f 29/352/285 7/386/295 28/353/103
f 29/352/285 10/387/296 7/386/295
f 32/388/298 8/20/17 12/378/294
f 31/18/15 8/20/17 32/388/298
f 32/388/298 12/378/294 10/380/296
f 10/380/296 33/381/297 32/388/298
f 9/7/7 31/18/15 32/388/298
f 9/7/7 32/388/298 33/381/297
f 29/389/285 30/390/106 10/380/296
f 33/381/297 10/380/296 30/390/106
f 17/382/248 33/381/297 30/390/106
f 42/364/287 28/353/103 41/391/104
f 40/351/284 28/353/103 42/364/287
f 30/117/106 40/351/284 49/118/107
f 44/327/269 21/200/177 37/116/105
f 68/332/273 71/317/261 83/225/195
f 82/28/25 68/332/273 83/225/195
f 78/126/114 87/127/115 64/178/158
f 146/186/161 147/184/164 151/303/250
f 178/138/124 164/140/126 144/57/51
f 178/138/124 171/68/62 179/141/127
f 144/57/51 171/68/62 178/138/124
f 170/69/63 180/146/130 162/66/60
f 177/70/64 162/66/60 180/146/130
f 117/53/47 110/39/36 126/372/293
f 119/335/274 107/208/181 111/130/118
f 81/129/117 122/244/209 119/335/274
f 71/317/261 59/167/149 43/112/101
f 71/317/261 36/111/100 62/168/150
f 36/347/100 53/174/151 62/392/150
f 38/346/282 55/172/153 53/174/151
f 52/176/156 64/178/158 47/22/19
f 66/318/262 47/22/19 64/178/158
f 41/115/104 47/22/19 66/318/262
f 54/275/234 40/351/284 67/320/264
f 42/364/287 41/391/104 66/393/262
f 40/351/284 60/365/288 67/320/264
f 57/175/155 72/226/196 77/173/154
f 84/276/235 54/275/234 67/320/264
f 42/394/287 66/318/262 80/134/122
f 81/129/117 42/364/287 80/135/122
f 60/365/288 42/364/287 81/129/117
f 67/320/264 60/365/288 81/129/117
f 114/238/206 104/209/182 118/52/46
f 126/372/293 110/39/36 128/48/42
f 129/56/50 90/132/120 117/53/47
f 122/241/209 90/132/120 129/56/50
f 112/133/121 90/132/120 122/241/209
f 257/338/277 261/337/276 247/164/146
f 265/304/251 254/305/252 263/395/289
f 258/92/84 263/367/289 254/308/252
f 251/219/190 245/315/259 256/314/258
f 266/104/93 248/309/254 252/310/255
f 266/104/93 272/339/278 248/309/254
f 255/311/256 248/309/254 272/339/278
f 251/219/190 256/314/258 267/341/279
f 267/341/279 269/254/217 251/219/190
f 296/343/244 286/396/245 297/263/225
f 286/396/245 288/397/246 297/263/225
f 288/397/246 289/298/247 298/270/231
f 297/263/225 288/397/246 291/267/228
f 298/270/231 291/267/228 288/397/246
