# Blender 4.3.2
# www.blender.org
mtllib fused_model.mtl
o rod-4mm_mesh
v -0.000700 -0.022408 0.000131
v -0.000045 -0.022407 0.000309
v -0.000310 -0.022405 -0.001188
v 0.000676 -0.022424 -0.000858
v 0.000606 -0.022414 -0.000183
v 0.002018 -0.020721 -0.000697
v -0.001145 -0.020843 0.001469
v 0.001754 -0.020700 -0.001770
v 0.000540 -0.020698 0.001442
v -0.002032 -0.020811 0.000270
v -0.001777 -0.020497 -0.001382
v -0.000525 -0.020409 -0.002610
v 0.001176 -0.020610 -0.002475
v 0.001575 -0.020516 0.000596
v -0.001593 -0.019431 0.001062
v 0.000201 -0.017808 0.001984
v -0.001740 -0.017501 -0.001488
v -0.000381 -0.017820 -0.002666
v -0.001799 -0.015580 0.000151
v 0.002130 -0.015580 -0.000381
v 0.001420 -0.016181 0.001279
v 0.001930 -0.016319 0.000577
v -0.001165 -0.017449 0.001621
v 0.001328 -0.017765 -0.002204
v 0.001517 -0.015532 -0.001631
v -0.000405 -0.015362 0.001517
v -0.001221 -0.015449 -0.001478
v 0.000442 -0.015623 -0.002186
v -0.001775 -0.013671 0.000671
v 0.000244 -0.013319 -0.002392
v 0.001316 -0.013023 0.001781
v 0.002153 -0.013191 0.000653
v -0.001196 -0.013708 -0.001705
v -0.000355 -0.012997 0.002083
v 0.001749 -0.013230 -0.001762
v 0.002285 -0.012891 -0.000695
v -0.001197 -0.011551 0.001147
v -0.001364 -0.011687 -0.000462
v 0.001119 -0.011445 -0.001638
v 0.000278 -0.011379 0.001729
v 0.001558 -0.011375 0.000925
v -0.000414 -0.011442 -0.001692
v 0.002029 -0.010955 -0.000086
v -0.001429 -0.008427 -0.000667
v 0.001686 -0.009965 -0.001332
v -0.000345 -0.009441 0.001849
v -0.001613 -0.009523 0.000652
v 0.000388 -0.008237 -0.001921
v 0.001126 -0.009154 0.001508
v -0.000579 -0.008003 0.001599
v -0.001407 -0.008329 0.000538
v 0.001955 -0.007914 -0.000108
v 0.001373 -0.007760 -0.001538
v -0.001026 -0.008182 -0.001317
v -0.001751 -0.006967 0.000754
v 0.000093 -0.005981 0.002113
v 0.001758 -0.006032 0.001100
v 0.000122 -0.006192 -0.002560
v -0.001612 -0.006156 -0.001242
v 0.001757 -0.006065 -0.001811
v -0.001498 -0.004131 0.000509
v 0.002246 -0.006024 -0.000464
v -0.000936 -0.003329 0.001358
v -0.000372 -0.004044 -0.001531
v 0.001843 -0.004229 0.000316
v 0.001360 -0.004141 -0.001384
v -0.001395 -0.004429 -0.000562
v 0.000405 -0.003929 0.001653
v -0.000619 -0.001343 -0.001624
v -0.001544 0.001100 -0.000606
v 0.000362 -0.001916 -0.002080
v 0.000750 -0.001929 0.001948
v 0.001969 -0.001839 0.001099
v 0.002182 -0.001784 -0.000617
v 0.001513 -0.002001 -0.001694
v -0.000373 -0.001315 0.002073
v -0.001414 -0.001021 0.001073
v 0.000871 -0.000311 -0.001996
v 0.002318 0.001453 -0.000886
v 0.002201 0.001857 0.000316
v -0.000387 0.001714 0.002213
v -0.000478 0.001332 -0.001938
v -0.001474 0.001606 0.001070
v 0.001148 0.001775 0.001903
v 0.001557 0.001357 -0.002072
v 0.000410 0.003237 -0.001428
v -0.001362 0.003335 0.000319
v -0.000705 0.003033 -0.000901
v -0.000907 0.003691 0.001391
v 0.000318 0.003515 0.001729
v 0.001535 0.003259 -0.001049
v 0.001797 0.003259 0.000090
v 0.001167 0.003286 0.001238
v -0.001091 0.005385 -0.001518
v -0.000372 0.005698 0.002211
v 0.000452 0.005416 -0.002262
v -0.001659 0.005272 0.000716
v 0.001638 0.005804 -0.001741
v 0.001284 0.005913 0.001957
v 0.002325 0.006019 -0.000363
v -0.001426 0.007369 0.001109
v 0.001770 0.007489 -0.001084
v 0.002039 0.007523 0.000207
v 0.000395 0.007324 -0.001744
v -0.000434 0.007865 0.001998
v -0.001313 0.007172 -0.000734
v 0.001101 0.007811 0.001811
v -0.001792 0.008887 -0.000277
v -0.000412 0.009826 -0.001671
v 0.001103 0.008572 -0.001709
v 0.000956 0.010306 -0.001686
v -0.001688 0.010718 0.000237
v 0.000231 0.010583 0.002045
v -0.001434 0.012798 0.001087
v 0.001957 0.010682 0.000952
v 0.002097 0.010544 -0.000381
v -0.001222 0.012236 -0.001371
v -0.000705 0.011677 0.001897
v 0.000326 0.013125 -0.002176
v 0.001940 0.012937 -0.001497
v 0.000298 0.013358 0.002349
v 0.001522 0.013449 0.001793
v -0.001451 0.014933 -0.000572
v 0.002254 0.014443 0.000188
v -0.001453 0.015708 0.001277
v 0.001832 0.014623 -0.001252
v -0.000570 0.015748 0.002194
v -0.000139 0.014829 -0.001897
v 0.001026 0.015680 0.002075
v -0.001736 0.016367 0.000095
v 0.002508 0.016236 -0.000424
v 0.002174 0.016382 -0.001567
v 0.002261 0.018223 0.000951
v 0.000745 0.016723 -0.002383
v -0.000776 0.017864 0.002045
v 0.001179 0.018961 0.002260
v -0.001288 0.016548 -0.001345
v 0.001976 0.019051 -0.001374
v -0.001445 0.018668 0.001087
v 0.000327 0.019144 -0.002042
v 0.002085 0.022167 0.001166
v -0.001220 0.018680 -0.001071
v -0.001633 0.020986 0.001719
v -0.000274 0.019671 0.002541
v -0.001358 0.021510 -0.001472
v -0.001856 0.022132 0.000243
v 0.000959 0.021987 0.002212
v 0.002799 0.021315 -0.000222
v 0.002428 0.020749 -0.001551
v 0.000889 0.021277 -0.002486
v -0.000488 0.022164 0.002238
v 0.001981 0.021906 -0.001947
v -0.000539 0.023749 0.001257
v 0.001783 0.023726 -0.000286
v 0.000079 0.023739 -0.001264
v 0.000008 0.023755 0.001590
v -0.001004 0.023758 -0.000284
v 0.001326 0.023753 0.001190
v 0.001454 0.023756 -0.000915
vn -0.9360 -0.2986 0.1865
vn -0.6534 -0.7226 0.2257
vn -0.3516 -0.4130 0.8401
vn 0.3711 -0.3275 0.8689
vn 0.1078 -0.5606 0.8210
vn 0.7204 -0.5468 0.4266
vn 0.8083 -0.2579 0.5293
vn 0.9465 -0.3227 -0.0062
vn -0.3571 -0.2465 -0.9010
vn -0.4313 -0.6474 -0.6284
vn -0.8651 -0.2751 -0.4194
vn 0.6194 -0.6797 -0.3930
vn 0.3507 -0.3791 -0.8564
vn -0.9763 0.1263 0.1755
vn -0.6447 0.0864 0.7595
vn -0.2634 0.0077 0.9647
vn 0.5868 -0.0250 0.8094
vn 0.1440 0.0101 0.9895
vn -0.9541 0.0318 0.2978
vn -0.2680 0.0229 0.9631
vn 0.5415 0.0390 0.8398
vn 0.9256 0.0902 0.3676
vn 0.9874 -0.0671 -0.1434
vn 0.9562 0.1732 -0.2362
vn -0.7585 0.0941 -0.6448
vn -0.9691 0.0720 -0.2357
vn -0.4852 0.1743 -0.8568
vn -0.0157 0.0549 -0.9984
vn 0.9969 0.0605 0.0508
vn 0.4761 0.0718 -0.8764
vn -0.8322 0.0400 0.5531
vn 0.1207 0.0642 0.9906
vn -0.2409 0.0763 0.9676
vn -0.9529 0.0716 0.2947
vn 0.5957 0.0293 0.8027
vn 0.8174 0.0856 0.5697
vn -0.9424 0.0868 -0.3231
vn -0.9189 -0.0957 0.3827
vn -0.9391 -0.0454 0.3406
vn -0.4082 -0.0051 0.9129
vn -0.0329 0.0533 0.9980
vn 0.8154 0.0742 0.5741
vn 0.9949 -0.0932 0.0377
vn -0.6834 -0.0783 -0.7258
vn -0.8868 0.0246 0.4614
vn -0.5801 -0.0734 0.8112
vn -0.2648 -0.0716 0.9616
vn -0.9284 0.1312 -0.3478
vn -0.9762 0.0122 0.2165
vn 0.3755 -0.1965 0.9058
vn 0.8250 -0.1346 0.5489
vn 0.5050 0.2552 0.8245
vn 0.9385 0.1972 0.2835
vn 0.9292 0.0788 -0.3610
vn 0.9672 -0.1014 -0.2328
vn -0.4223 0.0518 0.9050
vn 0.0314 -0.1074 0.9937
vn 0.3921 -0.0164 0.9198
vn 0.6847 -0.0635 0.7261
vn 0.4744 0.0027 0.8803
vn 0.9390 -0.0521 0.3399
vn 0.8505 0.2166 0.4793
vn -0.1235 -0.0414 -0.9915
vn 0.0472 -0.0570 -0.9973
vn -0.8253 -0.0590 -0.5616
vn -0.8179 0.0056 0.5753
vn -0.9659 0.2582 0.0180
vn -0.9666 -0.0530 0.2506
vn -0.2178 0.0108 0.9759
vn 0.3699 0.2446 0.8963
vn 0.9944 0.1052 -0.0031
vn -0.7773 0.1117 -0.6191
vn 0.0455 0.1218 -0.9915
vn 0.0018 -0.0416 -0.9991
vn 0.7768 0.0633 -0.6266
vn -0.0952 -0.0070 -0.9954
vn 0.1250 -0.0681 0.9898
vn 0.8619 -0.0957 0.4980
vn 0.9936 -0.0365 0.1066
vn 0.9752 -0.0615 -0.2125
vn 0.7027 -0.0053 -0.7114
vn 0.3857 -0.1342 -0.9128
vn -0.0179 0.0525 -0.9985
vn -0.8872 0.1173 -0.4462
vn -0.2373 0.1390 -0.9615
vn -0.4075 -0.1343 -0.9033
vn -0.4532 0.1975 -0.8692
vn -0.5442 0.0046 -0.8390
vn 0.3219 0.0061 -0.9467
vn 0.5459 0.1051 -0.8313
vn -0.9978 0.0114 -0.0648
vn -0.9028 0.0022 0.4301
vn -0.6940 0.0270 0.7195
vn -0.7507 -0.0257 -0.6601
vn 0.6476 0.0970 -0.7558
vn 0.9782 0.0720 0.1947
vn 0.9971 -0.0201 -0.0728
vn -0.8607 0.0676 -0.5046
vn 0.2910 0.0058 0.9567
vn 0.9672 0.0105 0.2539
vn 0.9923 -0.0798 -0.0942
vn 0.7793 -0.1405 -0.6106
vn 0.7940 -0.1063 -0.5986
vn -0.0576 0.0487 -0.9972
vn -0.4552 0.1178 -0.8826
vn 0.6677 0.0512 -0.7427
vn 0.9981 -0.0163 -0.0591
vn 0.6864 0.0080 -0.7271
vn -0.2903 -0.0269 0.9566
vn -0.9137 0.0545 0.4028
vn -0.9032 0.0645 0.4244
vn -0.9596 -0.0047 -0.2815
vn -0.9849 0.0270 0.1712
vn 0.6011 -0.0168 0.7990
vn 0.9839 0.0168 0.1779
vn 0.8051 -0.0654 -0.5895
vn -0.8831 0.0804 0.4622
vn -0.7395 0.0754 0.6689
vn -0.5328 -0.1299 0.8362
vn -0.8998 0.1609 -0.4056
vn 0.0606 -0.1290 -0.9898
vn -0.7972 -0.0092 -0.6036
vn -0.9983 0.0205 -0.0547
vn -0.7349 -0.0451 -0.6767
vn -0.8617 -0.0408 -0.5057
vn 0.5983 -0.0818 0.7971
vn -0.7344 0.1769 -0.6553
vn 0.6496 -0.1769 -0.7394
vn 0.7759 -0.0534 -0.6286
vn -0.3279 0.3607 0.8732
vn 0.5898 -0.6654 -0.4575
vn -0.9628 -0.0332 0.2682
vn -0.2338 -0.0041 0.9723
vn 0.1920 -0.0888 0.9774
vn 0.7353 0.0655 0.6745
vn -0.8328 -0.0405 0.5521
vn 0.9256 -0.0862 0.3685
vn -0.7241 0.1537 -0.6724
vn 0.8247 0.0819 -0.5596
vn -0.0970 0.0659 -0.9931
vn 0.3504 -0.0267 -0.9362
vn 0.7153 -0.0423 -0.6975
vn -0.3302 -0.0128 -0.9438
vn -0.9027 -0.0712 -0.4243
vn -0.2336 0.0777 0.9692
vn 0.7568 -0.0334 -0.6528
vn 0.6517 0.0771 -0.7546
vn 0.0632 0.0768 -0.9950
vn -0.0261 -0.0535 -0.9982
vn 0.6144 -0.1244 -0.7791
vn 0.5973 0.3695 -0.7118
vn -0.1055 0.4591 0.8821
vn -0.7300 0.4304 0.5310
vn -0.8624 0.4371 -0.2556
vn 0.6412 0.4120 0.6474
vn 0.9226 0.3830 -0.0466
vn -0.1873 0.4698 -0.8626
vn 0.4783 0.5256 -0.7035
vn 0.6320 0.0528 -0.7732
vt 0.381809 0.120113
vt 0.352858 0.139597
vt 0.352858 0.105930
vt 0.220029 0.962790
vt 0.248336 1.000000
vt 0.233923 0.999882
vt 0.256406 0.966212
vt 0.220508 0.999912
vt 0.182263 0.962111
vt 0.147545 0.999565
vt 0.161222 0.958743
vt 0.132295 0.963591
vt 0.092003 0.957139
vt 0.061978 0.999772
vt 0.061254 0.959374
vt 0.357713 0.228113
vt 0.352858 0.251563
vt 0.352858 0.208869
vt 0.273125 0.852299
vt 0.257153 0.892712
vt 0.241193 0.847387
vt 0.201942 0.864825
vt 0.227095 0.900273
vt 0.272204 0.810963
vt 0.239731 0.796179
vt 0.204002 0.796469
vt 0.159300 0.800363
vt 0.137671 0.852272
vt 0.129919 0.794150
vt 0.071709 0.812174
vt 0.018897 0.810959
vt 0.045010 0.768139
vt 0.289889 0.746836
vt 0.300490 0.790350
vt 0.273125 0.794075
vt 0.383889 0.067233
vt 0.362894 0.105930
vt 0.352858 0.067233
vt 0.322595 0.748239
vt 0.259393 0.764971
vt 0.226766 0.761025
vt 0.240368 0.719162
vt 0.011286 0.764588
vt 0.020779 0.721083
vt 0.209088 0.712701
vt 0.200177 0.760715
vt 0.179605 0.712393
vt 0.166377 0.760754
vt 0.143278 0.752021
vt 0.049853 0.697662
vt 0.024233 0.695157
vt 0.018660 0.665785
vt 0.265262 0.695218
vt 0.245997 0.688051
vt 0.272621 0.665765
vt 0.231088 0.644154
vt 0.196451 0.644969
vt 0.142353 0.686158
vt 0.168450 0.645113
vt 0.065246 0.692339
vt 0.265825 0.536952
vt 0.254751 0.586866
vt 0.241955 0.543174
vt 0.050208 0.491469
vt 0.025435 0.604330
vt 0.014365 0.536781
vt 0.009504 0.586380
vt 0.217754 0.556285
vt 0.192552 0.554126
vt 0.209777 0.476021
vt 0.185667 0.475697
vt 0.166939 0.554408
vt 0.148690 0.474606
vt 0.122625 0.483606
vt 0.129480 0.553590
vt 0.248701 0.173683
vt 0.229352 0.225297
vt 0.214356 0.174896
vt 0.203667 0.223120
vt 0.189550 0.103527
vt 0.158649 0.120155
vt 0.162885 0.034662
vt 0.306027 0.101497
vt 0.313147 0.154694
vt 0.277687 0.105434
vt 0.004549 0.060291
vt 0.035496 0.036097
vt 0.018221 0.110570
vt 0.065110 0.110872
vt 0.242448 0.088675
vt 0.211300 0.103829
vt 0.216607 0.038328
vt 0.131313 0.053622
vt 0.273125 0.047143
vt 0.316042 0.058857
vt 0.306743 0.393282
vt 0.335075 0.434698
vt 0.309531 0.435681
vt 0.230781 0.285399
vt 0.194954 0.282964
vt 0.143088 0.202129
vt 0.132133 0.286584
vt 0.108055 0.234894
vt 0.342252 0.232162
vt 0.320384 0.287708
vt 0.304989 0.229535
vt 0.064291 0.894533
vt 0.109948 0.963192
vt 0.319350 0.946077
vt 0.282749 0.940665
vt 0.285708 0.886252
vt 0.291456 0.296407
vt 0.082539 0.486259
vt 0.074752 0.544147
vt 0.288278 0.477372
vt 0.316452 0.513800
vt 0.286529 0.532480
vt 0.352858 0.139597
vt 0.376330 0.139597
vt 0.353717 0.175607
vt 0.330726 0.479526
vt 0.031600 0.442683
vt 0.014777 0.479939
vt 0.010421 0.434379
vt 0.277482 0.389067
vt 0.334258 0.383972
vt 0.144632 0.444124
vt 0.120873 0.444211
vt 0.132873 0.384653
vt 0.105167 0.389253
vt 0.061961 0.648784
vt 0.225283 0.599647
vt 0.150979 0.606244
vt 0.183548 0.598919
vt 0.128853 0.163509
vt 0.109275 0.102499
vt 0.343970 0.102186
vt 0.347105 0.159754
vt 0.096351 0.648997
vt 0.073068 0.602457
vt 0.115755 0.604418
vt 0.133514 0.645399
vt 0.105910 0.646312
vt 0.244803 0.344383
vt 0.268394 0.237689
vt 0.267360 0.355246
vt 0.043981 0.322941
vt 0.015352 0.355145
vt 0.016988 0.237648
vt 0.033761 0.283080
vt 0.211849 0.345289
vt 0.182525 0.344979
vt 0.145563 0.351881
vt 0.161105 0.283318
vt 0.103882 0.065945
vt 0.352858 0.067471
vt 0.269020 0.174673
vt 0.253683 0.127883
vt 0.251385 0.261853
vt 0.179772 0.223079
vt 0.048613 0.611070
vt 0.278873 0.675528
vt 0.297627 0.640069
vt 0.306049 0.680807
vt 0.275827 0.243199
vt 0.350511 0.278043
vt 0.013493 0.174604
vt 0.037857 0.160858
vt 0.186687 0.174526
vt -0.000000 0.127295
vt 0.070261 0.157140
vt 0.074752 0.762669
vt 0.055083 0.359946
vt 0.207414 0.386371
vt 0.029509 0.852463
vt 0.066405 0.849807
vt 0.113179 0.682810
vt 0.117227 0.730642
vt 0.336092 0.716112
vt 0.328666 0.670021
vt 0.274847 0.151715
vt 0.247874 0.034710
vt 0.024992 0.965805
vt 0.032420 0.999654
vt 0.132858 0.999920
vt 0.360653 0.208869
vt 0.352858 0.175607
vt 0.375126 0.175607
vt 0.096351 0.961128
vt 0.272591 0.400701
vt 0.255189 0.434823
vt 0.242843 0.391301
vt 0.228215 0.438449
vt 0.022469 0.400809
vt 0.210491 0.443283
vt 0.185564 0.386132
vt 0.171005 0.443100
vt 0.072236 0.398744
vt 0.009957 0.935433
vt 0.175390 0.864700
vt 0.158946 0.868019
vt 0.000000 0.892102
vt 0.059939 0.449238
vt 0.288324 0.436526
vt 0.352281 0.473013
vt 0.340166 0.345509
vt 0.308028 0.350515
vt 0.323275 0.324680
vt 0.105183 0.160403
vt 0.113247 0.198305
vt 0.341196 0.195269
vt 0.296524 0.191739
vt 0.052821 0.191959
vt 0.085801 0.193879
vt 0.267544 0.480060
vt 0.242529 0.477577
vt 0.273125 0.060386
vt 0.188458 0.037920
vt 0.073785 0.049815
vt 0.112470 0.851168
vt 0.108525 0.801442
vt 0.330771 0.835150
vt 0.305481 0.838442
vt 0.335244 0.787223
vt 0.269381 0.721109
vt 0.004614 0.687293
vt 0.305192 0.547645
vt 0.292015 0.589524
vt 0.108202 0.558186
vt 0.329338 0.592691
vt 0.331299 0.548900
vt 0.293680 0.976849
vt 0.266856 0.935696
vt 0.094273 0.901044
vt 0.273523 0.829914
vt 0.112521 0.762516
vt 0.070116 0.250452
vt 0.189550 0.119596
vt 0.096351 0.040771
vt 0.341660 0.044266
vt 0.185790 0.796204
vt 0.335664 0.635729
vt 0.352858 0.041770
vt 0.387536 -0.000000
vt 0.387536 0.067233
vt 0.276494 0.347535
vt 0.238267 0.000159
vt 0.250528 0.000366
vt 0.050188 0.000560
vt 0.018957 0.000000
vt 0.210305 0.000000
vt 0.165131 -0.000000
vt 0.132175 0.001023
vt 0.304632 0.000495
vt 0.335345 -0.000000
vt 0.119550 0.000340
vt 0.101160 0.899544
vt 0.324019 0.884787
vt 0.075015 0.000677
vt 0.002568 0.965613
vt 0.078921 0.302273
vt 0.334811 0.945443
vt 0.118570 0.352709
vt 0.103101 0.521382
s 1
usemtl FusedMaterial
f 10/1/1 1/2/2 7/3/3
f 9/4/4 1/5/2 2/6/5
f 7/7/3 1/5/2 9/4/4
f 9/4/4 2/6/5 5/8/6
f 9/9/4 5/10/6 14/11/7
f 14/11/7 5/10/6 6/12/8
f 12/13/9 3/14/10 11/15/11
f 8/16/12 6/17/8 13/18/13
f 19/19/14 23/20/15 26/21/16
f 21/22/17 26/21/16 16/23/18
f 29/24/19 26/21/16 34/25/20
f 26/21/16 31/26/21 34/25/20
f 32/27/22 20/28/23 36/29/24
f 33/30/25 29/31/19 38/32/26
f 42/33/27 30/34/28 33/35/25
f 43/36/29 36/37/24 39/38/30
f 39/39/30 30/34/28 42/33/27
f 37/40/31 40/41/32 46/42/33
f 38/32/26 37/43/31 47/44/34
f 49/45/35 46/42/33 40/41/32
f 40/41/32 41/46/36 49/45/35
f 49/47/35 41/48/36 43/49/29
f 44/50/37 38/32/26 47/44/34
f 44/50/37 51/51/38 55/52/39
f 51/53/38 50/54/40 55/55/39
f 50/54/40 49/45/35 56/56/41
f 56/56/41 49/45/35 57/57/42
f 49/47/35 52/58/43 57/59/42
f 55/52/39 54/60/44 44/50/37
f 77/61/45 63/62/46 76/63/47
f 70/64/48 61/65/49 77/66/45
f 61/65/49 63/67/46 77/66/45
f 72/68/50 73/69/51 84/70/52
f 84/71/52 73/72/51 80/73/53
f 80/73/53 73/72/51 79/74/54
f 73/72/51 74/75/55 79/74/54
f 127/76/56 121/77/57 129/78/58
f 121/77/57 122/79/59 129/78/58
f 136/80/60 133/81/61 141/82/62
f 140/83/63 134/84/64 142/85/65
f 143/86/66 146/87/67 139/88/68
f 142/89/65 139/88/68 146/87/67
f 144/90/69 136/91/60 147/92/70
f 141/82/62 133/81/61 148/93/71
f 145/94/72 150/95/73 140/83/63
f 96/96/74 91/97/75 86/98/76
f 121/77/57 113/99/77 122/79/59
f 113/99/77 115/100/78 122/79/59
f 124/101/79 116/102/80 120/103/81
f 120/104/81 111/105/82 119/106/83
f 12/13/9 11/15/11 17/107/84
f 8/108/12 20/28/23 6/12/8
f 13/109/13 12/110/9 18/111/85
f 119/106/83 111/105/82 109/112/86
f 82/113/87 69/114/88 70/64/48
f 82/115/87 78/116/89 69/117/88
f 85/118/90 79/119/54 78/120/89
f 85/121/90 78/116/89 82/115/87
f 87/122/91 83/123/92 89/124/93
f 96/96/74 86/98/76 94/125/94
f 98/126/95 91/97/75 96/96/74
f 92/127/96 91/128/75 100/129/97
f 100/129/97 91/128/75 98/130/95
f 59/131/98 55/52/39 61/65/49
f 63/62/46 56/56/41 68/132/99
f 56/56/41 57/57/42 68/132/99
f 57/59/42 65/133/100 68/134/99
f 63/62/46 68/132/99 76/63/47
f 72/68/50 76/63/47 68/132/99
f 73/72/51 65/133/100 74/75/55
f 131/135/101 138/136/102 133/81/61
f 138/137/102 134/84/64 140/83/63
f 132/138/103 134/84/64 138/137/102
f 58/139/104 59/131/98 64/140/105
f 66/141/106 65/133/100 62/142/107
f 66/141/106 62/142/107 60/143/108
f 85/121/90 82/115/87 86/98/76
f 105/144/109 114/145/110 101/146/111
f 108/147/112 101/148/111 114/149/110
f 114/149/110 112/150/113 108/147/112
f 105/144/109 107/151/114 113/99/77
f 115/100/78 113/99/77 107/151/114
f 107/152/114 103/153/115 115/154/78
f 116/102/80 115/154/78 103/153/115
f 140/83/63 142/85/65 145/94/72
f 133/81/61 138/136/102 149/155/116
f 149/155/116 148/93/71 133/81/61
f 138/137/102 140/83/63 150/95/73
f 149/156/116 138/137/102 150/95/73
f 125/157/117 127/76/56 135/158/118
f 131/135/101 133/81/61 124/101/79
f 125/157/117 114/145/110 118/159/119
f 122/160/59 115/154/78 124/101/79
f 55/55/39 56/56/41 63/62/46
f 61/65/49 55/52/39 63/67/46
f 65/133/100 57/59/42 62/142/107
f 61/65/49 67/161/120 59/131/98
f 64/140/105 59/131/98 67/161/120
f 54/162/44 58/163/104 48/164/121
f 55/55/39 50/54/40 56/56/41
f 62/142/107 57/59/42 52/58/43
f 55/52/39 59/131/98 54/60/44
f 114/145/110 105/144/109 118/159/119
f 118/159/119 105/144/109 113/99/77
f 119/106/83 109/112/86 117/165/122
f 116/166/80 111/105/82 120/104/81
f 125/167/117 139/88/68 130/168/123
f 129/169/58 133/81/61 136/80/60
f 135/158/118 127/76/56 144/90/69
f 135/170/118 139/88/68 125/167/117
f 130/168/123 139/88/68 142/89/65
f 144/90/69 129/78/58 136/91/60
f 127/76/56 129/78/58 144/90/69
f 137/171/124 130/168/123 142/89/65
f 34/25/20 37/40/31 29/24/19
f 37/43/31 38/32/26 29/31/19
f 42/172/27 38/32/26 44/50/37
f 106/173/125 101/148/111 108/147/112
f 107/151/114 105/144/109 99/174/126
f 17/107/84 19/175/14 27/176/127
f 53/177/128 52/58/43 45/178/129
f 45/179/129 48/164/121 53/180/128
f 134/84/64 137/181/124 142/85/65
f 144/90/69 147/92/70 151/182/130
f 10/183/1 11/15/11 1/184/2
f 11/15/11 3/14/10 1/184/2
f 5/10/6 4/185/131 6/12/8
f 13/186/13 4/187/131 3/188/10
f 6/12/8 4/185/131 13/189/13
f 97/190/132 89/191/93 95/192/133
f 95/192/133 89/191/93 90/193/134
f 87/122/91 89/124/93 97/194/132
f 99/174/126 95/192/133 90/193/134
f 90/193/134 93/195/135 99/174/126
f 92/127/96 99/196/126 93/197/135
f 94/198/94 87/122/91 97/194/132
f 15/199/136 19/175/14 10/183/1
f 16/23/18 9/4/4 21/22/17
f 9/9/4 14/11/7 21/200/17
f 21/200/17 14/11/7 22/201/137
f 14/11/7 6/12/8 20/28/23
f 20/28/23 22/201/137 14/11/7
f 11/15/11 10/183/1 19/175/14
f 19/175/14 15/199/136 23/202/15
f 88/203/138 70/64/48 87/122/91
f 82/113/87 70/64/48 88/203/138
f 88/204/138 86/98/76 82/115/87
f 85/121/90 86/98/76 91/97/75
f 91/128/75 92/127/96 79/74/54
f 92/127/96 80/73/53 79/74/54
f 91/97/75 79/205/54 85/121/90
f 102/206/139 104/207/140 110/208/141
f 110/208/141 104/207/140 109/112/86
f 132/209/103 131/135/101 126/210/142
f 131/135/101 124/101/79 126/210/142
f 126/211/142 128/212/143 134/84/64
f 132/138/103 126/211/142 134/84/64
f 130/168/123 137/171/124 123/213/144
f 137/171/124 128/214/143 123/213/144
f 134/84/64 128/212/143 137/181/124
f 83/215/92 81/216/145 89/191/93
f 90/193/134 89/191/93 81/216/145
f 87/122/91 70/64/48 83/123/92
f 93/195/135 81/216/145 84/70/52
f 93/195/135 90/193/134 81/216/145
f 92/127/96 93/197/135 80/73/53
f 93/197/135 84/71/52 80/73/53
f 144/90/69 151/182/130 143/217/66
f 141/82/62 147/218/70 136/80/60
f 146/87/67 145/219/72 142/89/65
f 20/28/23 25/220/146 35/221/147
f 35/221/147 36/29/24 20/28/23
f 25/222/146 28/223/148 30/34/28
f 30/34/28 35/224/147 25/222/146
f 47/225/34 46/42/33 50/54/40
f 44/50/37 47/44/34 51/51/38
f 50/226/40 51/51/38 47/44/34
f 49/45/35 50/54/40 46/42/33
f 49/47/35 43/49/29 52/58/43
f 69/117/88 78/116/89 71/227/149
f 99/196/126 92/127/96 100/129/97
f 143/217/66 135/158/118 144/90/69
f 143/86/66 139/88/68 135/170/118
f 45/178/129 52/58/43 43/49/29
f 71/227/149 64/228/105 69/117/88
f 65/133/100 66/141/106 74/75/55
f 74/75/55 66/141/106 75/229/150
f 66/230/106 64/228/105 71/227/149
f 75/231/150 66/230/106 71/227/149
f 102/206/139 110/208/141 111/105/82
f 13/109/13 3/232/10 12/110/9
f 23/20/15 15/233/136 7/7/3
f 16/23/18 23/20/15 7/7/3
f 19/175/14 17/107/84 11/15/11
f 23/20/15 16/23/18 26/21/16
f 27/176/127 18/234/85 17/107/84
f 28/223/148 18/111/85 27/235/127
f 39/236/30 36/29/24 35/221/147
f 35/224/147 30/34/28 39/39/30
f 118/159/119 113/99/77 121/77/57
f 114/149/110 123/213/144 112/150/113
f 124/101/79 115/154/78 116/102/80
f 117/237/122 112/150/113 123/213/144
f 125/167/117 130/168/123 114/149/110
f 123/213/144 114/149/110 130/168/123
f 129/78/58 122/79/59 133/238/61
f 124/101/79 133/81/61 122/160/59
f 152/239/151 148/93/71 149/155/116
f 149/156/116 150/95/73 152/240/151
f 19/19/14 26/21/16 29/24/19
f 26/21/16 21/22/17 31/26/21
f 32/27/22 31/241/21 22/201/137
f 31/241/21 21/200/17 22/201/137
f 20/28/23 32/27/22 22/201/137
f 27/176/127 19/175/14 29/31/19
f 29/31/19 33/30/25 27/176/127
f 28/223/148 27/235/127 33/35/25
f 33/35/25 30/34/28 28/223/148
f 43/49/29 39/236/30 45/178/129
f 39/39/30 42/33/27 48/164/121
f 45/179/129 39/39/30 48/164/121
f 64/228/105 66/230/106 58/163/104
f 60/242/108 58/163/104 66/230/106
f 78/243/89 79/244/54 74/245/55
f 67/161/120 61/65/49 70/64/48
f 72/68/50 68/132/99 73/69/51
f 68/134/99 65/133/100 73/72/51
f 101/146/111 95/192/133 105/144/109
f 97/194/132 101/148/111 106/173/125
f 105/144/109 95/192/133 99/174/126
f 107/152/114 100/129/97 103/153/115
f 99/196/126 100/129/97 107/152/114
f 94/198/94 97/194/132 106/173/125
f 104/207/140 94/125/94 106/246/125
f 96/96/74 94/125/94 104/207/140
f 120/104/81 119/106/83 126/211/142
f 123/213/144 128/214/143 117/237/122
f 128/212/143 119/106/83 117/165/122
f 124/101/79 120/103/81 126/210/142
f 128/212/143 126/211/142 119/106/83
f 132/209/103 138/136/102 131/135/101
f 156/247/152 153/248/153 151/182/130
f 157/249/154 146/87/67 153/250/153
f 156/247/152 147/92/70 158/251/155
f 151/182/130 147/92/70 156/247/152
f 147/218/70 141/82/62 158/252/155
f 141/82/62 154/253/156 158/252/155
f 155/254/157 159/255/158 152/240/151
f 154/253/156 152/239/151 159/256/158
f 12/13/9 17/107/84 18/234/85
f 20/28/23 8/108/12 24/257/159
f 13/109/13 18/111/85 24/258/159
f 58/139/104 54/60/44 59/131/98
f 52/58/43 53/177/128 60/143/108
f 60/143/108 62/142/107 52/58/43
f 60/242/108 48/164/121 58/163/104
f 60/242/108 53/180/128 48/164/121
f 94/198/94 88/203/138 87/122/91
f 94/125/94 86/98/76 88/204/138
f 95/192/133 101/146/111 97/190/132
f 143/217/66 151/182/130 153/248/153
f 153/250/153 146/87/67 143/86/66
f 154/253/156 141/82/62 148/93/71
f 157/249/154 145/219/72 146/87/67
f 157/249/154 155/259/157 145/219/72
f 150/95/73 145/94/72 155/254/157
f 155/254/157 152/240/151 150/95/73
f 7/7/3 9/4/4 16/23/18
f 10/183/1 7/260/3 15/199/136
f 40/41/32 37/40/31 34/25/20
f 34/25/20 31/26/21 40/41/32
f 41/46/36 40/41/32 31/26/21
f 41/48/36 31/241/21 32/27/22
f 41/48/36 36/29/24 43/49/29
f 32/27/22 36/29/24 41/48/36
f 42/172/27 33/30/25 38/32/26
f 109/261/86 106/173/125 108/147/112
f 104/207/140 106/246/125 109/112/86
f 8/262/12 13/109/13 24/258/159
f 20/28/23 24/257/159 25/220/146
f 25/222/146 24/258/159 28/223/148
f 28/223/148 24/258/159 18/111/85
f 102/206/139 98/126/95 104/207/140
f 102/263/139 103/153/115 100/129/97
f 102/263/139 100/129/97 98/130/95
f 104/207/140 98/126/95 96/96/74
f 108/147/112 112/150/113 117/237/122
f 109/261/86 108/147/112 117/237/122
f 69/114/88 67/161/120 70/64/48
f 64/140/105 67/161/120 69/114/88
f 74/75/55 75/229/150 78/264/89
f 75/231/150 71/227/149 78/116/89
f 83/215/92 76/63/47 81/216/145
f 77/61/45 76/63/47 83/215/92
f 70/64/48 77/66/45 83/123/92
f 81/216/145 72/68/50 84/70/52
f 76/63/47 72/68/50 81/216/145
f 103/153/115 102/263/139 116/102/80
f 111/105/82 116/166/80 102/206/139
f 110/208/141 109/112/86 111/105/82
f 121/77/57 127/76/56 118/159/119
f 125/157/117 118/159/119 127/76/56
f 152/239/151 154/253/156 148/93/71
f 37/40/31 46/42/33 47/225/34
f 44/50/37 54/60/44 42/172/27
f 48/164/121 42/33/27 54/162/44
