# Blender 4.3.2
# www.blender.org
mtllib fused_model.mtl
o nut-m8_mesh
v -0.000178 -0.003014 0.005433
v 0.000330 -0.003066 0.004525
v -0.005530 -0.003136 0.001232
v 0.001262 -0.003234 0.004844
v 0.000393 -0.003032 -0.005835
v -0.005353 -0.003074 -0.000594
v -0.001725 -0.003046 -0.003864
v -0.000665 -0.003163 -0.005752
v 0.002546 -0.002798 -0.003096
v -0.002287 -0.003220 -0.004760
v 0.002161 -0.003139 -0.005011
v 0.001182 -0.003219 -0.004291
v -0.004432 -0.003021 0.003530
v -0.004609 -0.002878 -0.000431
v -0.003448 -0.003078 -0.002871
v -0.003231 -0.003088 0.003795
v -0.003921 -0.003128 0.002621
v -0.004220 -0.003089 -0.004068
v -0.002242 -0.003111 0.004649
v -0.004659 -0.003060 0.000765
v 0.000026 -0.003574 -0.005039
v -0.004356 -0.003516 -0.002161
v 0.002872 -0.003291 -0.004402
v -0.003844 -0.003404 -0.003499
v -0.002989 -0.002615 0.005220
v 0.004102 -0.002212 0.000156
v -0.005874 -0.002146 -0.001369
v -0.000235 -0.002459 0.006136
v 0.000738 -0.002642 -0.003421
v 0.002650 -0.002509 0.005597
v -0.006476 -0.002521 0.001545
v 0.000021 -0.002421 0.003279
v -0.005290 -0.002968 -0.002086
v 0.003417 -0.002021 -0.005416
v 0.002931 -0.002479 0.003831
v -0.002885 -0.002152 -0.005378
v 0.003777 -0.002406 0.004449
v -0.000946 -0.001672 -0.006289
v 0.005219 -0.002491 -0.003244
v 0.004112 -0.002630 0.002899
v -0.003195 -0.002564 -0.001236
v -0.002655 -0.002352 -0.002568
v -0.003219 -0.002186 0.001445
v 0.005393 -0.002505 0.002639
v 0.004438 -0.002174 -0.004206
v 0.006187 -0.002507 -0.000060
v 0.005535 -0.002474 -0.001730
v 0.005593 -0.002408 0.000873
v 0.003823 -0.002825 -0.003456
v 0.005109 -0.002751 0.000117
v -0.002600 -0.001373 0.006033
v 0.004800 -0.001891 0.004606
v 0.002572 -0.001954 0.002364
v 0.000138 -0.001168 0.006666
v 0.002948 -0.001931 0.005994
v 0.003069 -0.001854 0.000030
v 0.005991 -0.001667 0.003245
v 0.006377 -0.001753 0.000542
v 0.006421 -0.001728 -0.001615
v 0.005787 -0.001729 -0.003315
v -0.001395 -0.001363 0.006632
v -0.005178 -0.001821 -0.004441
v -0.005957 -0.001504 0.003506
v -0.001438 -0.001834 -0.000908
v -0.006569 -0.001844 0.000237
v -0.002015 -0.002230 0.003097
v 0.003766 -0.002399 -0.001826
v -0.004291 -0.001145 0.004743
v -0.006238 -0.000224 -0.000514
v 0.002853 -0.001231 0.006091
v 0.004321 -0.000842 -0.004628
v 0.005335 -0.000848 0.004667
v 0.000762 -0.000295 -0.006615
v 0.001289 -0.001594 -0.006554
v -0.005913 -0.000626 -0.002508
v -0.006785 -0.001343 0.001890
v -0.000000 -0.001377 0.000040
v -0.001282 0.000154 0.006617
v -0.006259 0.000683 0.003677
v 0.002058 0.001205 -0.006465
v -0.002694 -0.000116 -0.005286
v -0.000681 -0.000428 -0.006301
v -0.005386 -0.000142 -0.003992
v 0.006363 -0.000085 0.003210
v 0.003372 0.001087 -0.005660
v 0.006679 0.000991 0.002341
v 0.006332 -0.000295 -0.000763
v -0.006244 -0.000063 0.000664
v 0.006025 -0.000291 -0.002907
v -0.000131 0.000119 0.006691
v 0.003675 0.000644 0.005278
v 0.004524 0.000899 -0.004597
v 0.002177 0.001405 0.006015
v 0.005852 0.001137 -0.003779
v -0.006588 -0.000063 0.002048
v 0.000565 0.001090 -0.006919
v -0.006621 0.001218 -0.002485
v -0.001992 0.001732 0.006603
v -0.005863 0.001246 -0.003761
v -0.000544 0.000446 0.000134
v -0.001567 0.001359 -0.006204
v -0.006628 0.001449 0.002033
v 0.000925 0.001414 0.006533
v 0.005537 0.001705 0.004270
v -0.003144 0.001060 0.005815
v 0.006715 0.001481 0.000783
v 0.006283 0.000996 -0.002904
v 0.000342 0.000439 0.000261
v -0.000556 0.001512 0.006879
v -0.006304 0.001940 -0.000365
v -0.000078 0.001178 -0.003326
v -0.005976 0.001702 0.003596
v 0.001466 0.001875 -0.003515
v 0.001926 0.001777 0.002487
v 0.003679 0.001997 0.005373
v 0.003939 0.002302 -0.004529
v -0.001437 0.001217 0.003049
v -0.002008 0.001328 0.002620
v -0.003240 0.001563 0.001204
v 0.003613 0.001540 0.000163
v -0.001078 0.001173 -0.003088
v -0.003232 0.001466 -0.005331
v 0.000681 0.001692 0.003409
v -0.003877 0.001848 0.005288
v 0.003520 0.001397 -0.000717
v 0.000447 0.002475 -0.006062
v 0.002982 0.001564 -0.001721
v -0.000973 0.002011 -0.003994
v -0.006148 0.002117 -0.003212
v -0.001796 0.002132 -0.005773
v -0.006147 0.002672 0.001052
v -0.003623 0.001528 0.000097
v -0.003087 0.001856 -0.002020
v -0.004413 0.002114 -0.004606
v 0.005878 0.002049 -0.003716
v 0.002935 0.002276 0.002074
v 0.006002 0.002187 0.002856
v 0.002144 0.002100 -0.006151
v -0.001677 0.002986 0.005721
v 0.000854 0.003139 0.005519
v 0.004381 0.002698 -0.000659
v -0.002677 0.002736 -0.004668
v -0.000009 0.002927 0.004467
v 0.001663 0.002932 0.003947
v 0.002126 0.002692 0.005308
v -0.005460 0.002938 -0.000817
v -0.005720 0.002842 -0.002002
v -0.001240 0.002721 -0.004839
v -0.004504 0.002902 -0.000244
v 0.004020 0.002849 -0.002404
v -0.003884 0.002718 -0.002259
v 0.002553 0.002859 -0.005010
v 0.004836 0.002938 0.004049
v 0.002934 0.002995 -0.003324
v -0.004285 0.002689 -0.003930
v -0.002971 0.002865 -0.003397
v 0.001442 0.002763 -0.004343
v -0.004399 0.002820 0.003885
v -0.001583 0.003183 0.004308
v -0.002905 0.002693 0.003142
v -0.003986 0.002792 0.001840
v 0.002649 0.003456 0.004161
v 0.004748 0.003453 0.000091
v 0.003447 0.003422 0.002963
v 0.004353 0.003571 0.003066
v 0.005706 0.003102 -0.000054
v 0.005037 0.003517 0.002017
v 0.004197 0.003290 0.001247
v 0.005093 0.003129 -0.001101
v -0.004922 0.003219 0.001513
v 0.001681 0.003224 0.004687
v 0.002807 0.003125 -0.004330
v -0.004464 0.003037 -0.002575
v -0.002666 0.003342 0.004359
v -0.003700 0.003142 0.003313
v 0.004581 0.003034 -0.003395
vn 0.0532 -0.0686 0.9962
vn 0.3439 0.2576 0.9030
vn 0.3187 0.2110 0.9241
vn -0.9549 0.2927 -0.0491
vn -0.7008 0.7097 0.0725
vn -0.3620 0.9311 -0.0446
vn -0.5322 0.8424 -0.0846
vn -0.7061 0.5409 -0.4570
vn 0.5228 0.8208 0.2303
vn 0.5011 0.8623 -0.0734
vn 0.6428 0.7660 -0.0038
vn 0.5478 0.7577 0.3548
vn -0.2456 0.8640 -0.4396
vn 0.2545 0.9517 0.1718
vn -0.4180 0.4501 -0.7891
vn -0.0832 0.8944 -0.4394
vn 0.0350 0.9973 -0.0651
vn 0.1898 0.7117 0.6764
vn 0.0626 -0.9938 -0.0920
vn 0.0925 -0.9250 0.3684
vn -0.2741 -0.8996 -0.3401
vn 0.0532 -0.9488 0.3114
vn -0.2024 -0.6467 -0.7354
vn 0.1780 -0.9229 -0.3415
vn -0.1547 -0.9609 -0.2298
vn 0.0121 -0.8766 -0.4811
vn 0.0260 -0.9987 0.0439
vn 0.4079 -0.9031 -0.1339
vn 0.2667 -0.9587 0.0986
vn -0.1169 -0.5916 0.7977
vn 0.4489 -0.4227 0.7873
vn 0.0680 -0.1625 0.9844
vn 0.2749 -0.8121 0.5147
vn -0.2852 -0.1522 -0.9463
vn -0.0221 -0.0926 -0.9955
vn 0.2166 -0.2624 -0.9403
vn -0.5432 -0.0885 0.8349
vn -0.2303 -0.2822 0.9313
vn -0.2816 -0.0395 0.9587
vn -0.7355 -0.3417 0.5851
vn -0.5669 -0.2487 0.7853
vn -0.7981 0.0896 0.5959
vn -0.9851 0.1141 -0.1287
vn -0.9801 -0.1451 0.1351
vn -0.9969 0.0779 -0.0069
vn -0.9946 -0.0342 -0.0977
vn -0.6010 0.3308 0.7276
vn -0.2710 0.2430 0.9314
vn -0.1336 0.8362 0.5319
vn 0.1553 -0.6313 -0.7598
vn 0.2189 -0.8629 -0.4555
vn -0.8876 -0.3789 -0.2618
vn -0.9476 -0.2346 -0.2168
vn -0.6906 -0.2090 -0.6924
vn -0.9455 -0.2289 -0.2317
vn -0.0688 -0.9038 0.4224
vn 0.2040 -0.9647 -0.1667
vn 0.2761 -0.9610 -0.0148
vn -0.7082 -0.0874 -0.7006
vn -0.9874 0.0538 -0.1489
vn -0.2853 -0.9506 0.1219
vn -0.5981 -0.7937 0.1110
vn 0.3994 -0.9041 -0.1517
vn 0.0412 -0.9983 0.0401
vn 0.3592 -0.9221 0.1438
vn -0.7530 -0.6369 -0.1654
vn 0.4570 -0.8693 0.1881
vn 0.3936 -0.8346 0.3855
vn -0.3934 -0.7245 -0.5660
vn -0.0803 -0.9890 -0.1243
vn 0.3992 0.0113 0.9168
vn 0.3375 0.1374 -0.9313
vn -0.3374 -0.0561 -0.9397
vn -0.0379 0.1509 -0.9878
vn -0.0036 0.2865 0.9581
vn 0.1656 0.8731 0.4586
vn 0.3061 0.6358 0.7085
vn 0.4448 0.3116 0.8397
vn -0.0390 -0.9521 -0.3034
vn 0.1469 -0.9891 0.0073
vn -0.0563 -0.9024 0.4272
vn 0.0838 -0.9696 -0.2299
vn 0.3248 -0.9042 0.2772
vn -0.0526 -0.9986 -0.0105
vn 0.5517 -0.8297 0.0848
vn -0.0405 -0.9992 0.0016
vn -0.4214 -0.9064 -0.0304
vn 0.6156 -0.7745 0.1459
vn 0.6316 -0.7753 -0.0042
vn -0.0998 0.8361 0.5394
vn -0.3103 0.7243 0.6157
vn 0.7764 0.3698 -0.5104
vn 0.5959 0.0549 -0.8011
vn 0.4288 0.5839 -0.6894
vn 0.9736 -0.0008 -0.2285
vn 0.9786 0.2053 0.0136
vn 0.7640 -0.1176 -0.6345
vn 0.5217 -0.6262 0.5793
vn -0.2377 -0.9705 0.0397
vn 0.8401 -0.4639 0.2811
vn 0.9470 -0.3067 0.0952
vn -0.5441 -0.0867 0.8345
vn -0.3253 0.7986 -0.5063
vn -0.2561 0.7582 -0.5996
vn 0.0132 0.8393 -0.5435
vn -0.4183 0.7789 -0.4672
vn -0.5778 0.6610 -0.4788
vn 0.5299 0.6777 0.5099
vn 0.6993 0.1977 0.6870
vn -0.5070 0.8507 -0.1387
vn -0.6264 0.7377 -0.2518
vn 0.8181 0.4977 0.2881
vn 0.6101 0.7870 -0.0913
vn -0.0268 -0.8948 0.4458
vn 0.3001 -0.8811 0.3655
vn -0.4603 -0.3039 -0.8341
vn 0.6205 -0.1389 0.7718
vn 0.9167 -0.0241 0.3989
vn 0.9697 0.1225 0.2114
vn 0.9944 -0.0601 -0.0865
vn -0.1147 -0.9770 0.1800
vn 0.9221 -0.2931 -0.2525
vn 0.3313 -0.9423 -0.0482
vn 0.4998 -0.7470 -0.4384
vn 0.7838 -0.2434 -0.5713
vn 0.5696 -0.4784 -0.6684
vn -0.4578 -0.0482 -0.8878
vn 0.6808 -0.1051 -0.7249
vn 0.5809 0.1563 -0.7988
vn 0.9131 -0.0835 -0.3991
vn -0.7303 0.0001 -0.6831
vn -0.2227 0.6598 -0.7177
vn 0.0525 0.7475 -0.6622
vn 0.5343 -0.4024 -0.7434
vn 0.2092 0.8963 -0.3911
vn 0.3737 0.5112 -0.7739
vn -0.4596 -0.6190 0.6369
vn -0.7973 -0.5976 0.0853
vn -0.2921 -0.8510 0.4364
vn -0.9717 0.2230 0.0784
vn -0.4421 0.0395 -0.8961
vn -0.3521 0.1258 -0.9275
vn 0.2148 0.8003 -0.5598
vn 0.2281 0.9602 0.1610
vn -0.3884 0.8589 -0.3339
vn -0.1075 0.9765 0.1867
vn 0.4229 0.9061 0.0119
vn -0.3165 0.9173 -0.2415
vn -0.5600 0.8189 0.1254
vn -0.1648 0.9830 -0.0812
vn -0.3187 0.8656 0.3864
vn 0.1040 -0.9940 -0.0338
vn -0.1514 -0.9869 0.0553
vn 0.1746 -0.9720 -0.1572
vn -0.7525 0.4314 0.4976
vn -0.3855 0.8472 0.3655
vn 0.4553 0.7112 -0.5356
vn 0.1692 0.9181 -0.3583
vn 0.5522 0.7708 -0.3177
vn 0.5557 0.7498 -0.3590
vn -0.7980 0.5889 -0.1279
vn -0.0714 0.9899 -0.1229
vn -0.4496 0.8614 0.2363
vn 0.2699 0.9110 -0.3119
vn -0.2369 0.8706 0.4312
vn 0.0772 0.9773 -0.1971
vn -0.3341 0.8574 0.3914
vn -0.0388 0.9980 0.0498
vn -0.0011 0.9976 -0.0699
vn 0.5046 0.1176 0.8553
vn 0.1644 0.9864 -0.0068
vn 0.4977 0.7984 -0.3388
vn 0.0289 0.9938 0.1076
vn -0.0596 0.9979 0.0247
vn 0.0485 0.9946 -0.0922
vn 0.2800 0.8487 0.4488
vt 0.593477 0.673680
vt 0.633915 0.594122
vt 0.639887 0.635035
vt 0.413579 0.653051
vt 0.437615 0.598851
vt 0.454686 0.674468
vt 0.454343 0.716912
vt 0.429553 0.760852
vt 0.975304 0.487922
vt 0.992797 0.564268
vt 0.939442 0.584261
vt 0.941378 0.501637
vt 0.449811 0.159609
vt 0.394033 0.085078
vt 0.466784 0.113190
vt 0.342968 0.105758
vt 0.378610 0.149915
vt 0.348251 0.159973
vt 0.399303 0.059278
vt 0.331532 0.056552
vt 0.275749 0.050056
vt 0.265905 0.083466
vt 0.889607 0.228098
vt 0.841294 0.164570
vt 0.872685 0.139687
vt 0.866933 0.275418
vt 0.916660 0.198853
vt 0.578137 0.177914
vt 0.623768 0.352628
vt 0.577283 0.257287
vt 0.706804 0.244940
vt 0.637382 0.125539
vt 0.735626 0.186039
vt 0.491854 0.685721
vt 0.503869 0.568396
vt 0.543283 0.664992
vt 0.480348 0.584280
vt 0.866081 0.780480
vt 0.822285 0.709482
vt 0.875065 0.696052
vt 0.538649 0.774010
vt 0.539255 0.722572
vt 0.597156 0.717309
vt 0.528533 0.926847
vt 0.544734 0.850949
vt 0.614112 0.934413
vt 0.332939 0.621701
vt 0.278904 0.574988
vt 0.328160 0.566588
vt 0.330458 0.666577
vt 0.661489 0.827088
vt 0.659375 0.742595
vt 0.702232 0.739526
vt 0.924273 0.239443
vt 0.898341 0.310715
vt 0.259267 0.708492
vt 0.264994 0.640762
vt 0.282415 0.829210
vt 0.321588 0.745808
vt 0.828193 0.332347
vt 0.876710 0.340369
vt 0.846342 0.380453
vt 0.345682 0.804768
vt 0.391909 0.732196
vt 0.632320 0.035512
vt 0.703182 0.035867
vt 0.653670 0.067501
vt 0.764330 0.068918
vt 0.700617 0.065224
vt 0.761089 0.033026
vt 0.738082 0.116999
vt 0.797027 0.101476
vt 0.840093 0.067382
vt 0.817950 0.083935
vt 0.531489 0.570287
vt 0.771608 0.651275
vt 0.819706 0.763752
vt 0.767901 0.711010
vt 0.648941 0.686293
vt 0.701098 0.647379
vt 0.195138 0.451946
vt 0.293502 0.459633
vt 0.251009 0.505897
vt 0.679840 0.602727
vt 0.649797 0.544758
vt 0.527194 0.273698
vt 0.517355 0.310848
vt 0.490919 0.257264
vt 0.566080 0.371741
vt 0.545763 0.406643
vt 0.497288 0.367145
vt 0.605087 0.414106
vt 0.620219 0.462689
vt 0.714459 0.442819
vt 0.712321 0.403986
vt 0.689047 0.464184
vt 0.726313 0.483847
vt 0.427683 0.829211
vt 0.454686 0.871732
vt 0.427683 0.925502
vt 0.760242 0.487922
vt 0.797019 0.549941
vt 0.739954 0.564410
vt 0.070929 0.828808
vt 0.024888 0.853883
vt 0.074825 0.684357
vt 0.059393 0.861628
vt 0.795149 0.494085
vt 0.486259 0.380000
vt 0.546105 0.446713
vt 0.715441 0.363576
vt 0.603604 0.487922
vt 0.352458 0.933738
vt 0.324378 0.849622
vt 0.352458 0.829210
vt 0.947146 0.216768
vt 0.924273 0.281333
vt 0.924273 0.184911
vt 0.221630 0.703867
vt 0.221406 0.740102
vt 0.196491 0.712580
vt 0.632239 0.794689
vt 0.960846 0.000000
vt 0.999279 0.049899
vt 0.947281 0.060478
vt 0.154113 0.335478
vt 0.202576 0.371228
vt 0.163724 0.391190
vt 0.427683 0.915343
vt 0.401471 0.897247
vt 0.427683 0.829210
vt 0.146047 0.444259
vt 0.086187 0.447486
vt 0.040568 0.395449
vt 0.074484 0.505897
vt 0.083675 0.549517
vt 0.033493 0.550953
vt 0.981463 0.351908
vt 0.924273 0.403435
vt 0.932048 0.320444
vt 0.058107 0.600833
vt 0.005425 0.707252
vt 0.835139 0.261322
vt 0.792124 0.133161
vt 0.857817 0.028935
vt 0.899965 0.114318
vt 0.925044 0.775191
vt 0.874299 0.852662
vt 0.925650 0.734522
vt 0.183321 0.549203
vt 0.148050 0.600431
vt 0.102554 0.627427
vt 0.132939 0.754146
vt 0.786027 0.383977
vt 0.183093 0.795203
vt 0.790871 0.487354
vt 0.788143 0.452723
vt 0.844911 0.435150
vt 0.199985 0.862434
vt 0.171740 0.860597
vt 0.279591 0.883370
vt 0.254495 0.909939
vt 0.221630 0.893779
vt 0.797079 0.834027
vt 0.862845 0.567165
vt 0.783371 0.597932
vt 0.119592 0.836480
vt 0.126628 0.906118
vt 0.397984 0.787030
vt 0.297619 0.014249
vt 0.210337 0.002982
vt 0.221630 0.841854
vt 0.395325 0.883630
vt 0.352458 0.861365
vt 0.395325 0.829211
vt 0.128447 0.043720
vt 0.144666 -0.000000
vt 0.710960 0.616597
vt 0.737747 0.641680
vt 0.487656 0.798457
vt 0.480581 0.968511
vt 0.466784 0.871046
vt 0.268678 0.522479
vt 0.234826 0.594787
vt 0.352309 0.505897
vt 0.386606 0.561675
vt 0.715386 0.790036
vt 0.733354 0.846305
vt 0.702232 0.884417
vt 0.746237 0.787500
vt 0.714205 0.704014
vt 0.880684 0.401551
vt 0.924273 0.357785
vt 0.999279 0.135207
vt 0.114602 0.319165
vt 0.088582 0.245648
vt 0.058839 0.356732
vt 0.094092 0.352767
vt 0.125143 0.399167
vt 0.064930 0.286360
vt 0.032237 0.316148
vt 0.043324 0.241425
vt 0.006348 0.236170
vt 0.849426 0.933947
vt 0.783822 0.930732
vt 0.092184 0.211613
vt 0.216225 0.250035
vt 0.231737 0.110165
vt 0.171387 0.102404
vt 0.112871 0.172438
vt 0.466784 0.691779
vt 0.620327 0.000000
vt 0.548826 0.086071
vt 0.542519 0.133447
vt 0.491358 0.147800
vt 0.513199 0.174688
vt 0.584821 0.102612
vt 0.466784 0.278221
vt 0.460956 0.377791
vt 0.399102 0.388264
vt 0.692859 0.861141
vt 0.652144 0.923913
vt 0.379538 0.443529
vt 0.931066 0.177571
vt 0.924273 0.118230
vt 0.996341 0.697100
vt 0.944888 0.627113
vt 0.996759 0.645577
vt 0.903157 0.611720
vt 0.939442 0.663721
vt 0.297628 0.829210
vt 1.000000 0.397393
vt 0.977638 0.428918
vt 1.000000 0.447167
vt 0.030014 0.195435
vt 0.071720 0.145012
vt 0.057978 0.212882
vt 0.049768 0.106446
vt 0.171690 0.069543
vt 0.118473 0.069898
vt 0.113719 0.109075
vt 0.702232 0.602237
vt 0.715457 0.530606
vt 0.075026 0.062962
vt 0.418931 0.295812
vt 0.439787 0.205554
vt 0.402744 0.227902
vt 0.400886 0.137364
vt 0.597352 0.547058
vt 0.628527 0.487922
vt 0.532993 0.493182
vt 0.285022 0.357428
vt 0.250587 0.245001
vt 0.354645 0.285324
vt 0.307112 0.340626
vt 0.369420 0.242348
vt 0.162931 0.419679
vt 0.228696 0.411200
vt 0.968204 0.281333
vt -0.000000 0.625499
vt 0.230518 0.743571
vt 0.207967 0.608418
vt 0.392326 0.508126
vt 0.926882 0.436130
vt 0.998665 0.487922
vt 0.383426 0.951396
vt 0.352458 0.946949
vt 0.383426 0.883630
vt -0.000000 0.094937
vt 0.331553 0.406408
vt 0.371693 0.365856
vt 0.341093 0.359651
vt 0.289582 0.404673
vt 0.382885 0.308961
vt 0.270588 0.119287
vt 0.990025 0.157808
vt 0.939442 0.683821
vt 0.221630 0.687319
vt 0.233471 0.828294
vt 0.000000 0.935119
vt 0.032208 0.906118
vt 0.032208 0.959979
vt 0.324378 0.951938
vt 0.297628 0.885705
vt 0.324378 0.829210
vt 0.727967 0.940366
vt 0.493898 0.514613
vt 0.221630 0.557762
vt 0.436101 0.829210
vt 0.466784 0.257526
s 1
usemtl FusedMaterial
f 90/1/1 93/2/2 103/3/3
f 110/4/4 131/5/5 146/6/6
f 147/7/7 110/4/4 146/6/6
f 147/7/7 129/8/8 110/4/4
f 151/9/9 149/10/10 132/11/11
f 151/9/9 132/11/11 133/12/12
f 147/13/7 155/14/13 129/15/8
f 156/16/14 151/17/9 133/18/12
f 134/19/15 129/15/8 155/14/13
f 134/19/15 155/14/13 142/20/16
f 156/16/14 133/18/12 148/21/17
f 148/21/17 133/18/12 128/22/18
f 21/23/19 7/24/20 10/25/21
f 12/26/22 7/24/20 21/23/19
f 8/27/23 21/23/19 10/25/21
f 66/28/24 53/29/25 32/30/26
f 77/31/27 43/32/28 64/33/29
f 28/34/30 55/35/31 54/36/32
f 55/35/31 28/34/30 30/37/33
f 38/38/34 73/39/35 74/40/36
f 51/41/37 61/42/38 78/43/39
f 63/44/40 68/45/41 79/46/42
f 88/47/43 76/48/44 95/49/45
f 88/47/43 69/50/46 76/48/44
f 124/51/47 98/52/48 139/53/49
f 5/54/50 21/23/19 8/27/23
f 5/54/50 11/55/51 21/23/19
f 27/56/52 65/57/53 69/50/46
f 62/58/54 27/56/52 75/59/55
f 11/55/51 12/26/22 21/23/19
f 9/60/56 12/26/22 23/61/57
f 11/55/51 23/61/57 12/26/22
f 49/62/58 9/60/56 23/61/57
f 83/63/59 75/59/55 97/64/60
f 3/65/61 6/66/62 20/67/63
f 6/66/62 22/68/64 14/69/65
f 6/66/62 33/70/66 22/68/64
f 14/69/65 22/68/64 41/71/67
f 15/72/68 41/71/67 22/68/64
f 18/73/69 22/68/64 33/70/66
f 24/74/70 22/68/64 18/73/69
f 15/72/68 22/68/64 24/74/70
f 7/24/20 15/72/68 24/74/70
f 10/25/21 24/74/70 18/73/69
f 7/24/20 24/74/70 10/25/21
f 53/29/25 66/28/24 77/31/27
f 54/36/32 55/35/31 70/75/71
f 74/40/36 73/39/35 80/76/72
f 73/39/35 82/77/73 96/78/74
f 80/76/72 73/39/35 96/78/74
f 109/79/75 103/3/3 140/80/76
f 140/81/76 139/82/49 109/83/75
f 145/84/77 140/80/76 93/2/2
f 140/80/76 103/3/3 93/2/2
f 93/2/2 115/85/78 145/84/77
f 2/86/79 4/87/80 1/88/81
f 2/86/79 35/89/82 4/87/80
f 37/90/83 4/87/80 35/89/82
f 32/30/26 35/89/82 2/86/79
f 30/91/33 4/87/80 37/90/83
f 35/89/82 40/92/84 37/90/83
f 44/93/85 37/90/83 40/92/84
f 40/92/84 50/94/86 44/93/85
f 50/94/86 40/92/84 26/95/87
f 44/93/85 50/94/86 48/96/88
f 48/96/88 50/94/86 46/97/89
f 128/98/18 111/99/90 113/100/91
f 135/101/92 92/102/93 116/103/94
f 107/104/95 135/105/92 106/106/96
f 107/104/95 94/107/97 135/105/92
f 94/108/97 92/102/93 135/101/92
f 35/89/82 32/30/26 53/29/25
f 37/90/83 55/109/31 30/91/33
f 52/110/98 55/109/31 37/90/83
f 40/92/84 35/89/82 53/29/25
f 52/110/98 37/90/83 44/93/85
f 40/92/84 53/29/25 56/111/99
f 56/111/99 26/95/87 40/92/84
f 52/110/98 44/93/85 57/112/100
f 57/113/100 48/114/88 58/115/101
f 44/116/85 48/117/88 57/118/100
f 48/119/88 46/120/89 58/121/101
f 124/51/47 105/122/102 98/52/48
f 144/123/103 123/124/104 143/125/105
f 114/126/106 123/127/104 144/128/103
f 136/129/107 114/130/106 144/131/103
f 145/132/77 115/133/78 153/134/108
f 115/135/78 104/136/109 153/137/108
f 168/138/110 120/139/111 136/140/107
f 137/141/112 106/106/96 166/142/113
f 29/143/114 42/144/115 7/24/20
f 10/25/21 62/145/54 36/146/116
f 36/146/116 8/27/23 10/25/21
f 38/38/34 8/147/23 36/148/116
f 38/38/34 5/149/50 8/147/23
f 72/150/117 84/151/118 86/152/119
f 86/152/119 104/136/109 72/150/117
f 86/152/119 87/153/120 106/106/96
f 56/111/99 77/31/27 67/154/121
f 77/31/27 29/143/114 67/154/121
f 29/143/114 9/60/56 67/154/121
f 26/95/87 56/111/99 67/154/121
f 58/121/101 46/120/89 59/155/122
f 59/156/122 46/97/89 47/157/123
f 59/156/122 47/157/123 39/158/124
f 59/155/122 39/159/124 60/160/125
f 60/161/125 39/162/124 45/163/126
f 82/77/73 38/38/34 81/164/127
f 71/165/128 85/166/129 92/102/93
f 89/167/130 71/168/128 94/107/97
f 94/108/97 71/165/128 92/102/93
f 97/64/60 75/59/55 69/50/46
f 83/63/59 97/64/60 99/169/131
f 130/170/132 134/19/15 142/20/16
f 142/20/16 148/21/17 130/170/132
f 148/21/17 126/171/133 130/170/132
f 142/20/16 156/16/14 148/21/17
f 71/172/128 60/161/125 45/163/126
f 45/173/126 34/174/134 71/175/128
f 126/171/133 152/176/135 138/177/136
f 152/178/135 116/103/94 138/179/136
f 69/50/46 65/57/53 76/48/44
f 61/42/38 51/41/37 25/180/137
f 61/42/38 25/180/137 28/34/30
f 54/36/32 61/42/38 28/34/30
f 63/44/40 31/181/138 13/182/139
f 63/183/40 76/48/44 31/184/138
f 65/57/53 31/184/138 76/48/44
f 51/41/37 68/45/41 25/180/137
f 13/182/139 25/180/137 68/45/41
f 68/45/41 63/44/40 13/182/139
f 64/33/29 43/32/28 14/69/65
f 77/31/27 66/28/24 43/32/28
f 78/43/39 54/36/32 90/1/1
f 61/42/38 54/36/32 78/43/39
f 76/48/44 63/183/40 79/185/42
f 79/185/42 95/49/45 76/48/44
f 79/185/42 102/186/140 95/49/45
f 88/47/43 95/49/45 102/186/140
f 79/46/42 68/45/41 105/122/102
f 130/187/132 122/188/141 134/189/15
f 101/190/142 122/188/141 130/187/132
f 126/191/133 101/190/142 130/187/132
f 126/171/133 148/21/17 152/176/135
f 50/94/86 26/95/87 67/154/121
f 67/154/121 47/157/123 50/94/86
f 47/157/123 67/154/121 49/62/58
f 7/24/20 12/26/22 29/143/114
f 29/143/114 12/26/22 9/60/56
f 9/60/56 49/62/58 67/154/121
f 47/157/123 49/62/58 39/158/124
f 23/61/57 45/192/126 49/62/58
f 11/55/51 34/193/134 23/61/57
f 45/192/126 23/61/57 34/193/134
f 45/192/126 39/158/124 49/62/58
f 46/97/89 50/94/86 47/157/123
f 123/124/104 117/194/143 143/125/105
f 114/126/106 136/195/107 120/196/111
f 153/137/108 104/136/109 137/141/112
f 137/141/112 104/136/109 86/152/119
f 137/141/112 86/152/119 106/106/96
f 165/197/144 164/198/145 162/199/146
f 164/198/145 165/197/144 168/200/110
f 165/197/144 167/201/147 168/200/110
f 168/200/110 167/201/147 163/202/148
f 166/203/113 163/202/148 167/201/147
f 74/40/36 5/149/50 38/38/34
f 69/50/46 75/59/55 27/56/52
f 62/58/54 75/59/55 83/63/59
f 81/164/127 62/204/54 83/205/59
f 36/148/116 62/204/54 81/164/127
f 125/206/149 108/207/150 120/196/111
f 125/206/149 111/208/90 108/207/150
f 111/208/90 125/206/149 113/209/91
f 127/210/151 113/209/91 125/206/149
f 116/103/94 92/102/93 85/166/129
f 25/180/137 1/211/81 28/34/30
f 31/212/138 3/65/61 13/213/139
f 13/213/139 16/214/152 25/215/137
f 19/216/153 25/215/137 16/214/152
f 66/28/24 16/214/152 17/217/154
f 25/215/137 19/216/153 1/88/81
f 16/214/152 66/28/24 19/216/153
f 66/28/24 2/86/79 19/216/153
f 2/86/79 66/28/24 32/30/26
f 43/32/28 17/217/154 20/67/63
f 43/32/28 66/28/24 17/217/154
f 43/32/28 20/67/63 14/69/65
f 98/52/48 109/79/75 139/53/49
f 131/218/5 112/219/155 158/220/156
f 158/221/156 112/222/155 124/51/47
f 124/223/47 139/82/49 158/220/156
f 160/224/157 159/225/158 117/194/143
f 159/225/158 143/125/105 117/194/143
f 160/226/157 119/227/159 161/228/160
f 149/10/10 161/228/160 132/11/11
f 161/228/160 119/227/159 132/11/11
f 34/229/134 11/230/51 5/149/50
f 34/229/134 5/149/50 74/40/36
f 58/121/101 59/155/122 87/153/120
f 89/167/130 87/153/120 59/155/122
f 59/155/122 60/160/125 89/167/130
f 89/231/130 60/161/125 71/172/128
f 168/138/110 163/232/148 141/233/161
f 169/234/162 141/233/161 163/232/148
f 169/235/162 150/236/163 141/237/161
f 150/236/163 169/235/162 176/238/164
f 148/21/17 157/239/165 152/176/135
f 172/240/166 157/239/165 154/241/167
f 157/239/165 172/240/166 152/176/135
f 176/238/164 154/241/167 150/236/163
f 116/103/94 172/242/166 176/243/164
f 172/240/166 154/241/167 176/238/164
f 172/240/166 116/244/94 152/176/135
f 163/202/148 166/203/113 169/235/162
f 166/203/113 176/238/164 169/235/162
f 101/190/142 81/164/127 122/188/141
f 82/77/73 81/164/127 101/190/142
f 96/78/74 82/77/73 101/190/142
f 131/218/5 170/245/168 146/246/6
f 170/245/168 149/247/10 146/246/6
f 146/246/6 149/247/10 173/248/169
f 173/248/169 149/247/10 151/17/9
f 146/246/6 173/248/169 147/13/7
f 155/14/13 147/13/7 173/248/169
f 156/16/14 173/248/169 151/17/9
f 156/16/14 155/14/13 173/248/169
f 142/20/16 155/14/13 156/16/14
f 54/36/32 70/75/71 90/1/1
f 93/2/2 90/1/1 70/75/71
f 93/2/2 70/75/71 91/249/170
f 104/250/109 115/85/78 91/249/170
f 104/250/109 91/249/170 72/251/117
f 123/127/104 114/126/106 108/207/150
f 120/196/111 108/207/150 114/126/106
f 126/191/133 96/78/74 101/190/142
f 80/76/72 96/78/74 126/191/133
f 126/191/133 138/179/136 80/76/72
f 116/103/94 85/166/129 138/179/136
f 138/179/136 85/166/129 80/76/72
f 108/207/150 117/252/143 123/127/104
f 100/253/171 117/252/143 108/207/150
f 119/254/159 118/255/172 100/253/171
f 100/253/171 132/256/11 119/254/159
f 90/1/1 103/3/3 109/79/75
f 93/2/2 91/249/170 115/85/78
f 17/217/154 16/214/152 13/213/139
f 19/216/153 2/86/79 1/88/81
f 20/67/63 13/213/139 3/65/61
f 17/217/154 13/213/139 20/67/63
f 171/257/173 143/258/105 140/81/76
f 144/128/103 143/258/105 171/257/173
f 140/81/76 145/132/77 171/257/173
f 162/199/146 144/128/103 171/257/173
f 153/134/108 171/257/173 145/132/77
f 171/257/173 153/134/108 162/199/146
f 164/198/145 144/128/103 162/199/146
f 162/199/146 153/134/108 165/197/144
f 153/134/108 167/201/147 165/197/144
f 164/198/145 136/195/107 144/128/103
f 136/140/107 164/259/145 168/138/110
f 167/260/147 153/137/108 137/141/112
f 137/141/112 166/142/113 167/260/147
f 27/56/52 31/184/138 65/57/53
f 27/56/52 62/58/54 33/261/66
f 41/71/67 64/33/29 14/69/65
f 64/33/29 41/71/67 42/144/115
f 42/144/115 77/31/27 64/33/29
f 77/31/27 42/144/115 29/143/114
f 72/150/117 57/262/100 84/151/118
f 86/152/119 84/151/118 57/262/100
f 58/121/101 86/152/119 57/262/100
f 98/52/48 78/43/39 109/79/75
f 78/43/39 90/1/1 109/79/75
f 98/52/48 105/122/102 78/43/39
f 79/46/42 105/122/102 112/222/155
f 102/186/140 79/185/42 112/263/155
f 110/4/4 88/47/43 102/186/140
f 112/222/155 105/122/102 124/51/47
f 118/255/172 117/252/143 100/253/171
f 141/233/161 120/139/111 168/138/110
f 125/264/149 120/139/111 141/233/161
f 150/236/163 127/210/151 125/206/149
f 141/233/161 150/265/163 125/264/149
f 154/241/167 113/209/91 127/210/151
f 157/239/165 128/22/18 113/209/91
f 157/239/165 148/21/17 128/22/18
f 157/266/165 113/267/91 154/268/167
f 150/236/163 154/241/167 127/210/151
f 176/243/164 135/101/92 116/103/94
f 106/106/96 135/105/92 166/142/113
f 166/203/113 135/269/92 176/238/164
f 131/218/5 158/220/156 170/245/168
f 158/220/156 139/82/49 174/270/174
f 175/271/175 170/245/168 158/220/156
f 158/220/156 174/270/174 175/271/175
f 175/271/175 174/270/174 160/272/157
f 159/273/158 174/270/174 139/82/49
f 139/82/49 140/81/76 159/273/158
f 159/273/158 140/81/76 143/258/105
f 160/272/157 174/270/174 159/273/158
f 170/245/168 175/271/175 161/274/160
f 161/274/160 175/271/175 160/272/157
f 170/245/168 161/274/160 149/247/10
f 38/38/34 36/148/116 81/164/127
f 121/275/176 111/208/90 128/22/18
f 68/45/41 51/41/37 78/43/39
f 78/43/39 105/122/102 68/45/41
f 131/5/5 102/186/140 112/263/155
f 110/4/4 102/186/140 131/5/5
f 160/224/157 117/194/143 118/276/172
f 160/226/157 118/277/172 119/227/159
f 6/278/62 31/184/138 27/56/52
f 3/65/61 31/212/138 6/66/62
f 33/261/66 6/278/62 27/56/52
f 14/69/65 20/67/63 6/66/62
f 41/71/67 15/72/68 42/144/115
f 33/261/66 62/58/54 18/279/69
f 42/280/115 15/281/68 7/282/20
f 10/283/21 18/284/69 62/285/54
f 72/251/117 91/249/170 70/75/71
f 58/121/101 87/153/120 86/152/119
f 69/50/46 88/47/43 110/4/4
f 97/64/60 69/50/46 110/4/4
f 132/256/11 100/253/171 121/275/176
f 132/256/11 121/275/176 133/18/12
f 111/208/90 121/275/176 100/253/171
f 122/188/141 83/205/59 99/286/131
f 81/164/127 83/205/59 122/188/141
f 55/35/31 52/287/98 70/75/71
f 72/251/117 70/75/71 52/287/98
f 56/111/99 53/29/25 77/31/27
f 72/150/117 52/288/98 57/262/100
f 100/253/171 108/207/150 111/208/90
f 106/106/96 87/153/120 107/104/95
f 107/104/95 87/153/120 89/167/130
f 94/107/97 107/104/95 89/167/130
f 110/4/4 129/8/8 97/64/60
f 99/169/131 97/64/60 129/8/8
f 134/289/15 99/169/131 129/8/8
f 122/188/141 99/286/131 134/189/15
f 128/22/18 133/18/12 121/275/176
f 28/290/30 4/87/80 30/91/33
f 1/88/81 4/87/80 28/290/30
f 73/39/35 38/38/34 82/77/73
f 71/165/128 34/229/134 85/166/129
f 85/166/129 74/40/36 80/76/72
f 34/229/134 74/40/36 85/166/129
