# Blender 4.3.2
# www.blender.org
mtllib fused_model.mtl
o bar-8mm_mesh
v 0.000062 -0.025201 0.001231
v -0.000408 -0.025576 0.000142
v -0.002623 -0.024442 0.002573
v -0.003500 -0.024221 -0.001146
v 0.002198 -0.024447 0.002409
v 0.001957 -0.024462 -0.001367
v -0.002841 -0.024291 -0.002450
v -0.003827 -0.023459 0.003366
v -0.004078 -0.023107 0.002545
v -0.003711 -0.023889 0.001221
v -0.002876 -0.023200 0.003731
v -0.000094 -0.023669 0.003027
v 0.002659 -0.023175 0.003605
v 0.002703 -0.023664 0.000430
v -0.004017 -0.023228 -0.002801
v -0.002790 -0.023319 -0.003320
v 0.000470 -0.023464 -0.002563
v 0.002530 -0.023630 -0.002829
v 0.003785 -0.022840 -0.002695
v 0.002592 -0.021210 0.003187
v 0.003754 -0.022862 0.002867
v 0.003657 -0.022086 0.001761
v 0.003695 -0.023177 0.001888
v 0.000966 -0.022284 -0.002884
v 0.003596 -0.022152 -0.000879
v 0.002724 -0.022589 -0.003219
v -0.002578 -0.019971 0.003090
v -0.003552 -0.020523 0.002609
v -0.003635 -0.020754 -0.001260
v -0.003523 -0.020848 -0.002605
v -0.002416 -0.017506 -0.003009
v -0.001475 -0.020916 -0.002845
v 0.003634 -0.020377 -0.001597
v 0.002472 -0.020508 -0.002711
v 0.003221 -0.018874 0.001183
v 0.000408 -0.017911 -0.002439
v -0.002696 -0.017077 0.003043
v 0.003500 -0.018495 -0.002630
v -0.000021 -0.018377 0.002639
v -0.003050 -0.017519 0.000191
v 0.002644 -0.014944 0.003189
v 0.002666 -0.016643 -0.002802
v -0.003404 -0.015401 0.002757
v 0.002942 -0.018201 0.002967
v 0.003337 -0.016957 0.000404
v -0.003332 -0.014845 -0.002663
v 0.001800 -0.014499 -0.002607
v 0.003739 -0.016647 -0.001354
v -0.001305 -0.017000 0.002612
v -0.003380 -0.015706 0.001859
v 0.003631 -0.015491 0.002699
v -0.003476 -0.014201 -0.001768
v -0.002757 -0.013034 -0.000066
v 0.002941 -0.014542 0.000490
v -0.002531 -0.014236 -0.003114
v 0.003587 -0.013184 -0.001772
v 0.003536 -0.014390 -0.002706
v 0.002746 -0.013181 -0.002836
v -0.001446 -0.010895 0.002678
v 0.003294 -0.014031 0.002626
v -0.000666 -0.013986 -0.002599
v 0.000750 -0.011850 0.002629
v -0.002856 -0.011659 -0.001290
v -0.001556 -0.011201 -0.002753
v 0.001624 -0.009774 -0.002513
v -0.003691 -0.011766 0.002681
v 0.003402 -0.008682 0.001809
v -0.002719 -0.010860 0.003251
v -0.002585 -0.011086 0.000294
v 0.003433 -0.008768 0.002742
v 0.003039 -0.008909 0.000409
v -0.002638 -0.011639 -0.002625
v -0.003235 -0.006572 0.002728
v 0.002681 -0.007908 0.003328
v 0.003482 -0.010069 -0.001858
v 0.002850 -0.010554 -0.002792
v -0.003423 -0.005485 0.001734
v -0.002792 -0.008681 -0.000048
v -0.003339 -0.008578 -0.001740
v -0.003100 -0.009182 -0.002830
v -0.000350 -0.006615 -0.002503
v -0.002551 -0.005260 0.002821
v -0.001006 -0.004936 0.002452
v 0.000631 -0.007213 0.002433
v 0.003649 -0.007158 -0.001698
v 0.001772 -0.006926 -0.002602
v -0.002805 -0.003778 0.000151
v 0.002754 -0.006138 -0.002754
v 0.000550 -0.002861 0.002507
v 0.002907 -0.004810 0.000382
v -0.002934 -0.002601 -0.000802
v -0.003413 -0.002759 -0.001752
v -0.003452 -0.001884 -0.002668
v 0.003474 -0.002331 0.002508
v -0.002605 -0.004644 -0.002988
v -0.000503 -0.003231 -0.002376
v -0.003587 -0.002292 0.002803
v 0.003559 -0.000956 -0.002682
v 0.002640 -0.001521 0.003181
v 0.002498 -0.000619 -0.002899
v -0.002538 -0.002396 0.003115
v 0.003075 -0.002502 0.000232
v -0.002763 -0.000363 -0.003062
v 0.003061 0.001423 0.002780
v 0.003620 -0.001260 -0.001793
v 0.001519 0.000130 -0.002469
v -0.003353 0.001369 0.001854
v -0.000431 0.002040 0.002162
v 0.001347 0.000306 0.002896
v 0.002689 -0.000334 0.000128
v 0.003085 0.001830 0.001894
v -0.002680 0.001321 -0.000470
v -0.003234 0.001919 -0.001734
v -0.003155 0.002549 0.002876
v -0.001822 0.001626 0.002694
v -0.001374 0.000727 -0.002676
v 0.000321 0.004130 -0.002417
v 0.002689 0.002961 0.003116
v 0.002898 0.003086 0.000372
v -0.002926 0.002501 -0.002858
v 0.003403 0.004413 -0.001645
v 0.001673 0.003072 -0.002651
v -0.003718 0.004928 0.001644
v -0.002911 0.006895 0.002955
v 0.000326 0.005051 0.002487
v -0.003149 0.004116 -0.000468
v -0.003467 0.006740 -0.002574
v 0.002786 0.004462 -0.002854
v 0.002564 0.005610 0.003278
v -0.000837 0.006181 -0.002723
v -0.002972 0.007796 -0.000359
v 0.003351 0.006619 0.001645
v -0.002588 0.005907 -0.003270
v 0.003383 0.007560 -0.002683
v -0.001632 0.007213 0.002647
v 0.003216 0.008192 0.002745
v 0.001567 0.006112 -0.002749
v 0.002704 0.007588 -0.002947
v 0.002571 0.008402 0.003079
v 0.003585 0.009530 -0.001758
v -0.002710 0.010940 0.003023
v -0.003447 0.011300 0.002719
v 0.000461 0.010894 0.002308
v 0.003003 0.011622 0.000260
v -0.002699 0.011282 -0.003142
v -0.003579 0.010874 0.001887
v 0.000081 0.009945 -0.002359
v -0.001478 0.011178 0.002354
v 0.003350 0.013061 0.001790
v 0.002593 0.013008 0.003077
v 0.003200 0.013319 0.002781
v -0.002976 0.014519 -0.000364
v -0.003454 0.014280 -0.002538
v -0.000779 0.013831 -0.002695
v 0.001743 0.012942 -0.002765
v -0.003000 0.015572 0.002970
v -0.003590 0.015864 0.001626
v 0.000829 0.015123 0.002599
v -0.002648 0.017466 -0.003238
v 0.002996 0.016820 -0.002771
v -0.001679 0.019059 0.002666
v -0.003059 0.016819 0.000155
v 0.001649 0.016258 -0.002566
v -0.000568 0.017304 0.002406
v 0.003361 0.016702 0.001791
v 0.003077 0.017636 -0.000190
v 0.003518 0.018874 -0.001697
v 0.002861 0.017441 0.002892
v -0.000369 0.016514 -0.002486
v -0.003611 0.018977 0.002499
v 0.001664 0.018058 0.002918
v -0.003530 0.017449 -0.002650
v 0.002564 0.023149 -0.003290
v -0.003570 0.020853 0.000964
v -0.003038 0.020571 0.002864
v 0.001112 0.022565 0.002741
v 0.003213 0.020110 -0.000413
v 0.000537 0.020270 -0.002616
v -0.002502 0.023038 -0.003458
v -0.003676 0.023109 0.002780
v -0.003449 0.021112 -0.002602
v 0.003712 0.022930 -0.001801
v -0.002675 0.023783 0.003136
v 0.003498 0.022751 0.002570
v -0.000193 0.023326 -0.003227
v -0.003903 0.024083 0.001847
v -0.003660 0.023073 -0.000352
v 0.003672 0.022714 -0.002694
v -0.000364 0.023636 0.002804
v 0.003293 0.024106 -0.000086
v -0.003833 0.023924 -0.002721
v 0.003142 0.024814 0.001844
v -0.000137 0.024696 0.002213
v -0.003004 0.024674 -0.000062
v 0.002449 0.024199 0.003032
v -0.002598 0.024692 -0.002811
v 0.002580 0.024712 -0.002926
v -0.000628 0.025536 -0.000713
v 0.001153 0.025392 0.000655
v 0.001920 0.025459 0.001430
v 0.002601 0.025115 -0.001966
v -0.002540 0.025153 0.001847
v -0.002523 0.025240 -0.001891
vn -0.2271 0.1146 0.9671
vn 0.1694 0.0593 0.9838
vn -0.0117 0.0998 0.9949
vn 0.8755 -0.2876 0.3883
vn 0.8372 0.0447 0.5451
vn 0.9958 -0.0332 -0.0856
vn 0.9959 0.0147 0.0890
vn 0.8981 -0.3003 0.3212
vn 0.9636 0.0178 -0.2666
vn -0.0311 -0.0579 -0.9978
vn 0.1521 0.0951 -0.9838
vn 0.0332 0.0310 -0.9990
vn 0.4176 0.2219 -0.8811
vn -0.8992 0.1564 0.4087
vn -0.0824 0.0421 0.9957
vn -0.9904 0.1364 -0.0219
vn -0.9958 0.0773 0.0491
vn 0.2128 0.0247 0.9768
vn 0.6447 0.0277 -0.7639
vn 0.2097 0.1143 -0.9711
vn -0.9878 -0.0103 -0.1552
vn -0.9936 0.1131 0.0043
vn 0.8769 0.0768 0.4744
vn 0.9965 0.0309 0.0775
vn 0.9952 0.0908 0.0363
vn -0.9851 0.1712 0.0190
vn -0.0875 -0.0395 -0.9954
vn -0.7939 0.0087 -0.6079
vn -0.1543 0.0779 -0.9849
vn 0.1405 -0.0029 -0.9901
vn 0.9919 -0.0648 -0.1097
vn 0.9799 0.1000 -0.1729
vn 0.7852 0.0291 -0.6185
vn -0.3490 -0.0864 -0.9331
vn 0.1968 0.1983 -0.9602
vn -0.0127 -0.0006 0.9999
vn -0.7292 0.2057 0.6527
vn -0.9549 0.0101 0.2968
vn -0.1436 0.0237 0.9893
vn 0.1700 0.0391 0.9847
vn 0.9402 0.0062 0.3406
vn 0.9645 -0.0218 -0.2630
vn 0.9999 0.0171 -0.0024
vn 0.2516 -0.1263 -0.9595
vn -0.5902 0.0889 0.8024
vn 0.2289 -0.2232 0.9475
vn -0.3598 0.0528 0.9315
vn -0.9952 -0.0141 -0.0969
vn -0.9941 0.0118 0.1081
vn -0.9959 -0.0217 -0.0874
vn -0.9968 -0.0515 0.0605
vn 0.2793 -0.0591 0.9584
vn -0.1643 -0.0180 0.9862
vn 0.0197 -0.0230 0.9995
vn -0.9987 -0.0129 0.0487
vn -0.5719 0.0369 -0.8195
vn -0.9557 0.0028 -0.2942
vn 0.9978 -0.0099 -0.0653
vn 0.8079 -0.0792 -0.5840
vn 0.3590 0.0048 -0.9333
vn -0.9995 -0.0168 -0.0256
vn -0.9443 0.0179 -0.3287
vn 0.1202 -0.0081 -0.9927
vn 0.0530 0.0004 -0.9986
vn -0.1792 -0.0646 -0.9817
vn 0.0203 0.2031 0.9789
vn -0.0707 -0.1302 0.9890
vn 0.3152 0.3950 0.8629
vn 0.8951 0.4415 -0.0613
vn 0.6908 0.6848 0.2320
vn 0.8420 0.0697 0.5350
vn -0.7195 -0.6945 0.0045
vn -0.6692 -0.2201 0.7098
vn -0.9834 -0.0750 0.1649
vn -0.2068 -0.9007 0.3821
vn -0.1387 -0.2349 0.9621
vn 0.0715 -0.5091 0.8578
vn 0.2987 -0.8884 0.3486
vn 0.2549 -0.2776 0.9263
vn 0.8272 -0.5176 -0.2186
vn 0.8011 -0.5900 -0.1006
vn -0.7623 -0.2373 -0.6021
vn -0.6256 -0.7774 -0.0651
vn -0.2394 -0.8008 -0.5490
vn -0.1581 -0.2532 -0.9544
vn 0.4187 -0.8531 -0.3113
vn 0.0938 -0.4579 -0.8840
vn 0.8036 -0.2850 -0.5224
vn 0.2593 -0.7024 -0.6629
vn -0.8046 0.0761 0.5890
vn 0.1062 0.0462 0.9933
vn 0.1807 -0.1078 0.9776
vn -0.1286 0.0063 0.9917
vn 0.1664 -0.0593 0.9843
vn 0.1252 -0.0087 0.9921
vn -0.1648 -0.0434 -0.9854
vn 0.1859 0.0124 -0.9825
vn 0.9999 0.0102 0.0080
vn 0.9999 -0.0074 0.0123
vn 0.2176 -0.0168 0.9759
vn -0.1752 -0.0274 0.9841
vn -0.4065 -0.0401 0.9128
vn -0.1197 -0.0214 0.9926
vn 0.5944 -0.1163 0.7957
vn 0.9924 0.0347 0.1183
vn 0.9973 -0.0242 0.0687
vn 0.9935 -0.0434 0.1051
vn -0.9006 -0.0063 -0.4345
vn -0.9933 -0.0238 -0.1135
vn -0.1842 0.0950 -0.9783
vn -0.1143 -0.1001 -0.9884
vn -0.9143 -0.0347 0.4035
vn -0.6843 0.0454 0.7278
vn -0.8286 0.5193 0.2092
vn -0.9883 -0.0748 -0.1328
vn -0.9943 0.1015 -0.0326
vn -0.2653 0.3416 0.9016
vn -0.8140 0.4590 -0.3560
vn -0.9036 -0.0788 -0.4211
vn 0.9868 0.1607 -0.0178
vn 0.1410 0.0811 0.9867
vn 0.2269 0.0842 0.9703
vn 0.9205 0.1274 0.3694
vn 0.1511 -0.0049 0.9885
vn 0.0366 0.0248 0.9990
vn -0.9949 -0.0894 0.0474
vn -0.9905 -0.0317 -0.1339
vn -0.9927 0.0085 -0.1204
vn 0.9915 0.0052 -0.1298
vn 0.2568 0.0341 -0.9659
vn -0.1378 -0.0765 -0.9875
vn -0.0052 0.0476 0.9989
vn -0.2211 0.0351 0.9746
vn -0.1815 0.0004 0.9834
vn 0.9560 0.0846 0.2811
vn 0.2109 0.1395 0.9675
vn 0.0650 -0.0011 -0.9979
vn -0.0092 0.0521 -0.9986
vn 0.9005 0.1130 0.4200
vn -0.2390 0.0819 -0.9675
vn -0.2706 0.0078 0.9627
vn 0.9951 0.0027 -0.0990
vn 0.9964 0.0495 0.0687
vn -0.9530 0.0259 0.3017
vn -0.9791 -0.0237 0.2018
vn -0.8516 0.0593 -0.5208
vn -0.9987 0.0254 -0.0451
vn 0.9962 -0.0131 -0.0856
vn 0.9963 -0.0860 0.0017
vn -0.0000 -0.0625 -0.9980
vn -0.0989 0.0879 -0.9912
vn 0.7687 0.0578 -0.6370
vn 0.8392 0.0926 0.5359
vn 0.0359 0.0256 -0.9990
vn -0.0247 -0.0514 -0.9984
vn -0.2153 0.0991 -0.9715
vn 0.1982 0.0338 -0.9796
vn 0.9910 -0.0142 0.1331
vn 0.2922 0.0009 0.9564
vn -0.9988 -0.0473 0.0092
vn 0.9991 -0.0239 -0.0336
vn 0.0067 -0.0284 -0.9996
vn -0.0541 0.0768 -0.9956
vn 0.5625 -0.0414 -0.8257
vn 0.9890 -0.0347 -0.1435
vn 0.9999 0.0068 0.0122
vn -0.9978 -0.0372 0.0543
vn -0.5957 -0.0939 -0.7977
vn 0.0842 -0.0035 -0.9964
vn -0.0604 0.0477 -0.9970
vn 0.1083 0.0210 -0.9939
vn -0.0107 -0.0504 0.9987
vn -0.0055 -0.0718 -0.9974
vn 0.1536 -0.0095 -0.9881
vn 0.8411 0.2092 -0.4988
vn 0.1897 0.0638 -0.9798
vn -0.8313 -0.1264 0.5413
vn 0.9984 0.0267 0.0493
vn -0.1671 -0.2231 -0.9604
vn -0.1751 0.0049 0.9845
vn 0.0864 -0.0109 0.9962
vn 0.8477 -0.0164 0.5302
vn 0.0491 -0.9154 0.3996
vn -0.0343 -0.9950 -0.0939
vn 0.9998 0.0069 -0.0165
vn -0.0174 0.7641 0.6448
vn -0.6397 0.7684 -0.0193
vn -0.1832 0.7116 -0.6782
vn 0.0315 0.0502 -0.9982
vn 0.5059 0.8332 -0.2234
vn 0.4179 0.6923 -0.5883
vn 0.1864 -0.0808 -0.9791
vn -0.9959 0.0902 0.0016
vn -0.8232 0.0437 0.5660
vn -0.9879 0.0550 -0.1450
vn -0.7627 0.0761 -0.6423
vn -0.6321 -0.1084 -0.7673
vn -0.9980 0.0098 -0.0619
vn -0.2743 0.8914 0.3608
vn -0.0430 0.9948 -0.0919
vn 0.1224 0.9889 0.0840
vn 0.2805 0.9584 0.0533
vn -0.3567 0.8981 -0.2573
vt 0.526297 0.623098
vt 0.423569 0.638703
vt 0.475131 0.606667
vt 0.416675 0.942019
vt 0.400563 0.974212
vt 0.400563 0.905291
vt 0.269914 0.862305
vt 0.244690 0.939689
vt 0.234055 0.875657
vt 0.266440 0.955220
vt 0.192428 0.940842
vt 0.178197 0.905478
vt 0.099185 0.935095
vt 0.050688 0.907736
vt 0.088405 0.847975
vt 0.129285 0.899803
vt 0.545606 0.637733
vt 0.528310 0.582919
vt 0.369392 0.903706
vt 0.292352 0.899895
vt 0.339860 0.839659
vt 0.421865 0.550223
vt 0.149867 0.859785
vt 0.152649 0.897049
vt 0.133317 0.822916
vt 0.306308 0.803907
vt 0.344054 0.750368
vt 0.263610 0.808496
vt 0.218492 0.837493
vt 0.220915 0.789357
vt 0.378176 0.773216
vt 0.032101 0.839870
vt 0.014090 0.786800
vt 0.029963 0.774813
vt 0.067194 0.769843
vt 0.182989 0.831297
vt 0.175088 0.762329
vt 0.155964 0.830922
vt 0.156588 0.786268
vt 0.116243 0.780163
vt 0.135069 0.754025
vt 0.150755 0.778108
vt 0.528145 0.492256
vt 0.537804 0.439126
vt 0.547428 0.513142
vt 0.459056 0.514607
vt 0.420387 0.448967
vt 0.274925 0.797448
vt 0.265037 0.674677
vt 0.277894 0.657442
vt 0.173665 0.700323
vt 0.219376 0.677285
vt 0.156127 0.709787
vt 0.535246 0.308331
vt 0.508784 0.323761
vt 0.529942 0.245845
vt 0.302955 0.464129
vt 0.282392 0.440865
vt 0.306444 0.393234
vt 0.348617 0.409001
vt 0.349208 0.464635
vt 0.418974 0.298548
vt 0.465616 0.278125
vt 0.480910 0.325232
vt 0.374253 0.452463
vt 0.396481 0.440676
vt 0.389989 0.356343
vt 0.178593 0.412139
vt 0.157557 0.518946
vt 0.155600 0.410973
vt 0.344439 0.202030
vt 0.387764 0.206312
vt 0.066290 0.216312
vt 0.083292 0.293626
vt 0.027875 0.267012
vt 0.477380 0.011436
vt 0.448101 0.027275
vt 0.421393 0.000000
vt 0.210477 0.020330
vt 0.249034 0.006332
vt 0.262786 0.047486
vt 0.320653 0.966597
vt 0.277894 0.958464
vt 0.294156 0.951273
vt 0.551600 0.668588
vt 0.527540 0.693456
vt 0.532739 0.659704
vt 0.548799 0.704733
vt 0.477255 0.675917
vt 0.431585 0.695328
vt 0.422557 0.660561
vt 0.400563 0.666393
vt 0.247115 0.961422
vt 0.259777 0.986406
vt 0.219735 0.970822
vt 0.400563 0.952618
vt 0.367821 0.972725
vt 0.393759 0.973902
vt -0.000000 0.953615
vt 0.024302 0.955582
vt 0.023434 0.974769
vt 0.119134 0.978224
vt 0.089340 0.958488
vt 0.185255 0.986451
vt 0.156064 0.954472
vt 0.130258 0.961947
vt 0.155375 0.969924
vt 0.540065 0.187049
vt 0.525517 0.187791
vt 0.504377 0.245553
vt 0.279930 0.354398
vt 0.283750 0.266683
vt 0.462237 0.198150
vt 0.421222 0.258905
vt 0.420728 0.222290
vt 0.012476 0.357247
vt 0.029776 0.373990
vt 0.064756 0.368530
vt 0.217300 0.268711
vt 0.176267 0.310346
vt 0.504016 0.078098
vt 0.530946 0.054124
vt 0.530758 0.123192
vt 0.437663 0.088356
vt 0.413913 0.097317
vt 0.247319 0.167779
vt 0.208501 0.149039
vt 0.203958 0.099819
vt 0.389358 0.143227
vt 0.333661 0.156348
vt 0.011738 0.144158
vt 0.032294 0.033142
vt 0.029159 0.143966
vt 0.286581 0.113855
vt 0.280165 0.031689
vt 0.298546 0.012113
vt 0.316754 0.076214
vt 0.342506 0.031773
vt 0.523423 0.004928
vt 0.389468 0.014347
vt 0.387654 0.070353
vt 0.013548 0.071264
vt 0.006021 0.015302
vt 0.175743 0.043730
vt 0.569538 0.049375
vt 0.551600 0.016648
vt 0.569538 0.000000
vt 0.157991 0.867956
vt 0.500518 0.587749
vt 0.502668 0.500663
vt 0.262747 0.779386
vt 0.493189 0.419688
vt 0.524072 0.419240
vt 0.342820 0.663748
vt 0.306731 0.600493
vt 0.337872 0.566232
vt 0.176696 0.642430
vt 0.157196 0.621910
vt 0.137274 0.701749
vt 0.116058 0.629477
vt 0.135608 0.613876
vt 0.523579 0.374691
vt 0.462014 0.389467
vt 0.460865 0.451925
vt 0.260600 0.546580
vt 0.275298 0.530340
vt 0.071009 0.555785
vt 0.130750 0.504050
vt 0.266795 0.471820
vt 0.111402 0.489033
vt 0.151885 0.510772
vt 0.445906 0.339231
vt 0.249206 0.463680
vt 0.214713 0.506561
vt 0.356608 0.542602
vt 0.375553 0.545531
vt 0.393603 0.527937
vt 0.345689 0.335809
vt 0.244038 0.368419
vt 0.219352 0.438549
vt 0.022974 0.441690
vt 0.087764 0.409362
vt 0.112592 0.370046
vt 0.136747 0.402954
vt 0.158164 0.349447
vt 0.277629 0.388435
vt 0.266129 0.337160
vt 0.135231 0.340761
vt 0.148802 0.341298
vt 0.112977 0.686114
vt 0.420462 0.360898
vt 0.274114 0.441163
vt 0.026028 0.498714
vt 0.012344 0.528879
vt 0.053805 0.477038
vt 0.175087 0.525067
vt 0.500805 0.193689
vt 0.304583 0.175621
vt 0.177961 0.124410
vt 0.116425 0.234145
vt 0.114761 0.168105
vt 0.157398 0.165109
vt 0.246594 0.672919
vt 0.219231 0.595679
vt 0.376487 0.661341
vt 0.398297 0.673147
vt 0.049577 0.714393
vt 0.018942 0.674153
vt 0.028991 0.583905
vt 0.073856 0.623152
vt 0.542414 0.081792
vt 0.482037 0.106406
vt 0.092825 0.088227
vt 0.074636 0.162908
vt 0.158093 0.047964
vt 0.133144 0.031152
vt 0.141545 0.157036
vt 0.155309 0.039769
vt 0.284814 0.537161
vt 0.216075 0.549777
vt 0.544357 0.377712
vt 0.114572 0.430529
vt 0.454514 0.134348
vt 0.419766 0.157307
vt 0.407589 0.157007
vt 0.267074 0.235133
vt 0.269968 0.153047
vt 0.473857 0.722723
vt 0.482983 0.743331
vt 0.544030 0.742599
vt 0.435410 0.748545
vt 0.530587 0.761818
vt 0.072336 1.000000
vt 0.247156 0.240234
vt 0.013130 0.207201
vt 0.427360 0.905291
vt 0.406081 0.902239
vt 0.400563 0.881614
vt 0.405645 0.835819
vt 0.420242 0.829836
vt 0.336385 -0.000000
vt 0.401516 0.779311
vt 0.273684 0.018487
vt 0.030618 0.000110
vt 0.078311 0.027493
vt 0.174327 0.000000
vt 0.133632 -0.000000
vt 0.155309 0.007976
vt 0.134080 0.941315
vt 0.155309 0.946273
vt 0.368138 0.722769
vt 0.542137 0.563360
vt 0.289150 0.725652
vt 0.336491 0.711691
vt 0.155309 0.762036
vt 0.277894 0.181740
vt 0.551600 0.049375
vt 0.563139 0.058234
vt 0.551600 0.114865
vt 0.010004 0.906230
vt 0.287159 0.622320
vt 0.394695 0.722103
vt 0.028057 0.723033
vt 0.556494 0.114865
vt 0.556494 0.239545
vt 0.551600 0.179731
vt 0.396105 0.785856
vt 0.396167 0.905307
vt 0.288377 0.798015
vt 0.566402 0.239545
vt 0.566402 0.279509
vt 0.551600 0.270274
vt 0.543335 0.019546
vt 0.400563 0.026817
vt 0.153577 0.634018
vt 0.407827 0.229873
vt 0.300390 0.274972
vt 0.429838 0.876893
vt 0.466235 0.886188
vt 0.480481 0.837755
vt 0.452327 0.802932
vt 0.436914 0.787845
vt 0.426372 0.764475
vt 0.462263 0.761818
vt 0.503666 0.875451
vt 0.516789 0.902854
vt 0.520222 0.877353
vt 0.502487 0.773819
vt 0.520222 0.774460
s 1
usemtl FusedMaterial
f 27/1/1 20/2/2 39/3/3
f 20/4/2 21/5/4 44/6/5
f 44/7/5 22/8/6 35/9/7
f 21/10/4 22/8/6 44/7/5
f 35/9/7 25/11/8 33/12/9
f 24/13/10 32/14/11 36/15/12
f 34/16/13 24/13/10 36/15/12
f 28/17/14 27/1/1 37/18/15
f 37/18/15 27/1/1 39/3/3
f 29/19/16 28/20/14 40/21/17
f 39/3/3 20/2/2 41/22/18
f 38/23/19 33/24/9 34/16/13
f 38/23/19 34/16/13 42/25/20
f 50/26/21 53/27/22 40/21/17
f 51/28/23 45/29/24 54/30/25
f 52/31/26 40/21/17 53/27/22
f 31/32/27 46/33/28 55/34/29
f 61/35/30 36/15/12 31/32/27
f 55/34/29 61/35/30 31/32/27
f 54/30/25 48/36/31 56/37/32
f 45/29/24 48/36/31 54/30/25
f 48/36/31 42/38/20 57/39/33
f 47/40/34 58/41/35 42/25/20
f 57/42/33 42/25/20 58/41/35
f 68/43/36 73/44/37 66/45/38
f 62/46/39 41/22/18 74/47/40
f 41/48/18 70/49/41 74/50/40
f 75/51/42 71/52/43 56/37/32
f 75/51/42 56/37/32 76/53/44
f 114/54/45 115/55/46 124/56/47
f 107/57/48 114/58/45 123/59/49
f 123/59/49 126/60/50 112/61/51
f 118/62/52 125/63/53 108/64/54
f 113/65/55 112/61/51 126/60/50
f 120/66/56 113/65/55 127/67/57
f 121/68/58 98/69/59 128/70/60
f 152/71/61 153/72/62 127/67/57
f 154/73/63 147/74/64 145/75/65
f 189/76/66 176/77/67 195/78/68
f 190/79/69 192/80/70 184/81/71
f 10/82/72 8/83/73 9/84/74
f 8/85/73 3/86/75 11/87/76
f 10/88/72 3/86/75 8/85/73
f 3/86/75 12/89/77 11/87/76
f 12/89/77 5/90/78 13/91/79
f 13/91/79 5/90/78 21/92/4
f 23/93/80 21/10/4 5/94/78
f 5/94/78 14/95/81 23/93/80
f 15/96/82 4/97/83 10/82/72
f 15/96/82 7/98/84 4/97/83
f 15/99/82 16/100/85 7/101/84
f 6/102/86 7/101/84 17/103/87
f 17/103/87 7/101/84 16/100/85
f 14/95/81 5/94/78 6/104/86
f 14/95/81 6/104/86 19/105/88
f 17/103/87 18/106/89 6/102/86
f 18/107/89 19/105/88 6/104/86
f 142/108/90 124/56/47 141/109/91
f 141/109/91 124/56/47 135/110/92
f 123/59/49 124/111/47 142/112/90
f 135/110/92 125/63/53 143/113/93
f 143/113/93 129/114/94 139/115/95
f 127/116/57 145/75/65 133/117/96
f 130/118/97 133/117/96 145/75/65
f 144/119/98 121/68/58 140/120/99
f 161/121/100 175/122/101 156/123/102
f 176/77/67 171/124/103 168/125/104
f 165/126/105 166/127/106 184/81/71
f 166/127/106 177/128/107 184/81/71
f 172/129/108 152/71/61 162/130/109
f 172/131/108 179/132/110 159/133/111
f 170/134/112 180/135/113 186/136/114
f 174/137/115 170/134/112 186/136/114
f 186/136/114 187/138/116 174/137/115
f 183/139/117 161/121/100 189/76/66
f 161/121/100 176/77/67 189/76/66
f 184/81/71 177/128/107 190/79/69
f 191/140/118 181/141/119 187/138/116
f 179/132/110 181/142/119 191/143/118
f 182/144/120 190/79/69 177/128/107
f 44/145/5 51/146/23 41/147/18
f 35/9/7 45/29/24 51/28/23
f 48/36/31 38/148/19 42/38/20
f 37/18/15 49/149/121 59/150/122
f 39/3/3 59/150/122 49/149/121
f 41/22/18 62/46/39 39/3/3
f 41/48/18 51/28/23 60/151/123
f 54/30/25 60/151/123 51/28/23
f 83/152/124 82/153/125 59/150/122
f 78/154/126 77/155/127 87/156/128
f 85/157/129 76/53/44 88/158/130
f 76/159/44 86/160/131 88/161/130
f 82/153/125 83/152/124 101/162/132
f 89/163/133 83/152/124 84/164/134
f 94/165/135 99/166/136 74/50/40
f 86/160/131 96/167/137 100/168/138
f 88/161/130 86/160/131 100/168/138
f 99/166/136 94/165/135 104/169/139
f 100/168/138 96/167/137 106/170/140
f 98/171/59 88/161/130 100/168/138
f 101/162/132 108/64/54 115/55/46
f 89/163/133 109/172/141 108/64/54
f 104/169/139 94/165/135 111/173/142
f 110/174/143 111/173/142 94/165/135
f 87/156/128 112/61/51 91/175/144
f 92/176/145 91/175/144 112/61/51
f 112/61/51 113/65/55 92/176/145
f 93/177/146 92/176/145 113/65/55
f 123/59/49 114/58/45 124/111/47
f 108/64/54 125/63/53 135/110/92
f 123/59/49 131/178/147 126/60/50
f 104/169/139 111/173/142 132/179/148
f 111/173/142 119/180/149 132/179/148
f 120/181/56 127/116/57 133/117/96
f 117/182/150 137/183/151 128/184/60
f 121/68/58 128/70/60 134/185/152
f 129/186/94 104/169/139 136/187/153
f 132/179/148 136/187/153 104/169/139
f 113/65/55 126/60/50 131/178/147
f 131/178/147 127/67/57 113/65/55
f 137/183/151 117/182/150 130/118/97
f 138/188/154 128/184/60 137/183/151
f 134/189/152 128/184/60 138/188/154
f 59/150/122 62/46/39 84/164/134
f 84/164/134 83/152/124 59/150/122
f 74/47/40 84/164/134 62/46/39
f 71/52/43 75/51/42 85/157/129
f 85/157/129 75/51/42 76/53/44
f 76/159/44 65/190/155 86/160/131
f 101/162/132 115/55/46 114/54/45
f 107/57/48 112/61/51 87/156/128
f 108/64/54 109/172/141 118/62/52
f 109/172/141 99/191/136 118/62/52
f 99/166/136 104/169/139 118/192/52
f 111/173/142 110/174/143 119/180/149
f 93/177/146 113/65/55 120/66/56
f 103/193/156 93/194/146 120/181/56
f 116/195/157 103/193/156 120/181/56
f 119/180/149 110/174/143 121/68/58
f 105/196/158 121/68/58 110/174/143
f 141/109/91 148/197/159 161/121/100
f 161/121/100 156/123/102 141/109/91
f 157/198/160 162/130/109 152/71/61
f 144/119/98 140/120/99 167/199/161
f 155/200/162 154/73/63 163/201/163
f 160/202/164 167/199/161 140/120/99
f 84/164/134 74/47/40 89/163/133
f 67/203/165 71/52/43 90/204/166
f 78/154/126 87/156/128 91/175/144
f 79/205/167 78/154/126 91/175/144
f 91/175/144 92/176/145 79/205/167
f 80/206/168 79/205/167 92/176/145
f 92/176/145 93/177/146 80/206/168
f 64/207/169 80/208/168 95/209/170
f 81/210/171 64/207/169 95/209/170
f 71/52/43 85/157/129 90/204/166
f 65/190/155 81/210/171 86/160/131
f 170/134/112 174/137/115 157/198/160
f 156/123/102 175/122/101 170/211/112
f 162/130/109 157/198/160 174/137/115
f 164/212/172 171/124/103 176/77/67
f 159/133/111 178/213/173 169/214/174
f 167/199/161 177/128/107 166/127/106
f 163/201/163 169/214/174 178/213/173
f 167/199/161 160/202/164 188/215/175
f 173/216/176 163/201/163 178/213/173
f 160/217/164 173/216/176 188/218/175
f 56/37/32 48/36/31 57/39/33
f 97/219/177 107/57/48 77/155/127
f 108/64/54 101/162/132 83/152/124
f 89/163/133 108/64/54 83/152/124
f 87/156/128 77/155/127 107/57/48
f 89/163/133 99/191/136 109/172/141
f 94/165/135 102/220/178 110/174/143
f 103/193/156 116/195/157 96/167/137
f 102/220/178 105/196/158 110/174/143
f 101/162/132 114/54/45 97/221/177
f 107/57/48 97/219/177 114/58/45
f 96/167/137 116/195/157 117/182/150
f 106/170/140 96/167/137 117/182/150
f 128/184/60 106/170/140 122/222/179
f 100/168/138 106/170/140 128/184/60
f 98/171/59 100/168/138 128/184/60
f 112/61/51 107/57/48 123/59/49
f 117/182/150 122/222/179 106/170/140
f 105/196/158 98/69/59 121/68/58
f 158/223/180 150/224/181 168/125/104
f 150/224/181 151/225/182 168/125/104
f 151/226/182 165/126/105 168/227/104
f 159/133/111 169/214/174 154/73/63
f 160/217/164 155/200/162 163/201/163
f 3/86/75 1/228/183 12/89/77
f 2/229/184 3/86/75 10/88/72
f 2/229/184 10/88/72 4/230/83
f 1/228/183 3/86/75 2/229/184
f 5/90/78 12/89/77 1/228/183
f 5/90/78 1/228/183 2/229/184
f 2/229/184 6/231/86 5/90/78
f 4/230/83 7/232/84 2/229/184
f 7/101/84 6/102/86 2/233/184
f 141/109/91 135/110/92 148/197/159
f 135/110/92 143/113/93 148/197/159
f 136/187/153 132/179/148 149/234/185
f 132/179/148 144/119/98 149/234/185
f 145/75/65 127/116/57 153/235/62
f 145/75/65 147/74/64 130/118/97
f 138/188/154 137/183/151 147/74/64
f 186/236/114 180/237/113 183/238/117
f 183/238/117 189/239/66 193/240/186
f 186/136/114 194/241/187 187/138/116
f 189/239/66 195/242/68 193/240/186
f 192/80/70 195/243/68 184/81/71
f 191/140/118 187/138/116 194/241/187
f 196/244/188 179/132/110 191/143/118
f 185/245/189 179/132/110 196/244/188
f 190/79/69 182/144/120 201/246/190
f 173/216/176 185/245/189 196/244/188
f 197/247/191 173/216/176 196/244/188
f 201/246/190 188/215/175 197/248/191
f 182/144/120 188/215/175 201/246/190
f 188/218/175 173/216/176 197/247/191
f 11/87/76 12/89/77 20/2/2
f 22/8/6 23/93/80 14/95/81
f 15/96/82 10/82/72 9/84/74
f 17/103/87 16/100/85 24/13/10
f 25/11/8 22/8/6 14/95/81
f 25/11/8 14/95/81 19/105/88
f 24/13/10 18/106/89 17/103/87
f 26/249/192 18/106/89 24/13/10
f 26/249/192 19/250/88 18/106/89
f 59/150/122 39/3/3 62/46/39
f 52/31/26 53/27/22 63/251/193
f 61/35/30 55/34/29 64/207/169
f 61/35/30 65/190/155 36/15/12
f 47/40/34 36/15/12 65/190/155
f 68/43/36 66/45/38 37/18/15
f 66/45/38 43/252/194 37/18/15
f 37/18/15 59/150/122 68/43/36
f 53/27/22 66/253/38 69/254/195
f 41/48/18 60/151/123 70/49/41
f 67/203/165 70/49/41 60/151/123
f 67/203/165 54/30/25 71/52/43
f 63/251/193 53/27/22 69/254/195
f 56/37/32 71/52/43 54/30/25
f 47/40/34 76/159/44 58/41/35
f 76/53/44 56/37/32 58/255/35
f 73/44/37 68/43/36 82/153/125
f 59/150/122 82/153/125 68/43/36
f 74/50/40 70/49/41 94/165/135
f 67/203/165 94/165/135 70/49/41
f 93/194/146 95/209/170 80/208/168
f 86/160/131 81/210/171 96/167/137
f 170/134/112 157/198/160 156/256/102
f 164/212/172 158/223/180 171/124/103
f 158/223/180 168/125/104 171/124/103
f 27/257/1 28/258/14 11/259/76
f 28/17/14 8/85/73 11/87/76
f 20/2/2 27/1/1 11/87/76
f 9/84/74 28/20/14 29/19/16
f 31/32/27 16/100/85 30/260/196
f 32/14/11 16/100/85 31/32/27
f 24/13/10 16/100/85 32/14/11
f 22/8/6 25/11/8 35/9/7
f 34/16/13 33/24/9 19/250/88
f 34/16/13 26/249/192 24/13/10
f 19/250/88 26/249/192 34/16/13
f 73/261/37 77/155/127 66/253/38
f 69/254/195 66/253/38 77/155/127
f 77/155/127 78/154/126 69/254/195
f 78/154/126 63/251/193 69/254/195
f 78/154/126 79/205/167 63/251/193
f 72/262/197 63/251/193 79/205/167
f 79/205/167 80/206/168 72/262/197
f 64/207/169 72/263/197 80/208/168
f 61/35/30 64/207/169 81/210/171
f 65/190/155 61/35/30 81/210/171
f 76/159/44 47/40/34 65/190/155
f 37/18/15 43/252/194 28/17/14
f 41/264/18 20/265/2 44/266/5
f 29/19/16 46/267/28 30/268/196
f 31/32/27 30/260/196 46/33/28
f 36/15/12 32/14/11 31/32/27
f 35/9/7 33/12/9 48/36/31
f 48/36/31 45/29/24 35/9/7
f 42/25/20 34/16/13 47/40/34
f 33/12/9 38/148/19 48/36/31
f 43/269/194 66/253/38 50/26/21
f 53/27/22 50/26/21 66/253/38
f 60/151/123 54/30/25 67/203/165
f 72/262/197 52/31/26 63/251/193
f 46/267/28 52/31/26 72/262/197
f 55/34/29 46/33/28 72/263/197
f 64/207/169 55/34/29 72/263/197
f 56/37/32 57/39/33 58/255/35
f 8/83/73 28/20/14 9/84/74
f 12/89/77 13/91/79 20/2/2
f 20/270/2 13/271/79 21/272/4
f 22/8/6 21/10/4 23/93/80
f 15/96/82 9/84/74 29/19/16
f 30/268/196 15/96/82 29/19/16
f 16/100/85 15/99/82 30/260/196
f 25/11/8 19/105/88 33/12/9
f 43/269/194 50/26/21 28/20/14
f 37/18/15 39/3/3 49/149/121
f 40/21/17 28/20/14 50/26/21
f 35/9/7 51/28/23 44/7/5
f 40/21/17 52/31/26 29/19/16
f 46/267/28 29/19/16 52/31/26
f 34/16/13 36/15/12 47/40/34
f 124/56/47 115/55/46 135/110/92
f 108/64/54 135/110/92 115/55/46
f 125/63/53 118/62/52 129/114/94
f 118/192/52 104/169/139 129/186/94
f 116/195/157 120/181/56 133/117/96
f 117/182/150 116/195/157 130/118/97
f 133/117/96 130/118/97 116/195/157
f 117/182/150 128/184/60 122/222/179
f 180/273/113 175/122/101 183/139/117
f 175/122/101 161/121/100 183/139/117
f 176/77/67 168/125/104 195/78/68
f 195/78/68 168/125/104 184/274/71
f 174/137/115 187/138/116 162/130/109
f 181/141/119 162/130/109 187/138/116
f 179/132/110 185/245/189 178/213/173
f 185/245/189 173/216/176 178/213/173
f 73/44/37 82/153/125 97/221/177
f 77/155/127 73/261/37 97/219/177
f 90/204/166 94/165/135 67/203/165
f 96/167/137 81/210/171 95/209/170
f 85/275/129 88/161/130 98/171/59
f 129/114/94 143/113/93 125/63/53
f 136/276/153 139/115/95 129/114/94
f 132/179/148 119/180/149 144/119/98
f 119/180/149 121/68/58 144/119/98
f 134/185/152 140/120/99 121/68/58
f 97/221/177 82/153/125 101/162/132
f 89/163/133 74/47/40 99/191/136
f 94/165/135 90/204/166 102/220/178
f 95/209/170 93/194/146 103/193/156
f 96/167/137 95/209/170 103/193/156
f 90/204/166 85/157/129 105/196/158
f 105/196/158 102/220/178 90/204/166
f 98/69/59 105/196/158 85/157/129
f 141/109/91 156/123/102 142/108/90
f 157/198/160 142/112/90 156/256/102
f 146/277/198 142/112/90 157/198/160
f 148/197/159 143/113/93 158/223/180
f 152/71/61 146/277/198 157/198/160
f 143/113/93 150/224/181 158/223/180
f 153/235/62 159/133/111 145/75/65
f 154/73/63 145/75/65 159/133/111
f 140/120/99 134/185/152 160/202/164
f 152/71/61 172/129/108 153/72/62
f 160/217/164 163/201/163 173/216/176
f 186/236/114 183/238/117 202/278/199
f 183/238/117 193/240/186 202/278/199
f 186/236/114 202/278/199 194/279/187
f 194/279/187 202/278/199 198/280/200
f 199/281/201 202/278/199 193/240/186
f 198/280/200 202/278/199 199/281/201
f 200/282/202 193/240/186 195/242/68
f 192/283/70 200/282/202 195/242/68
f 200/282/202 199/281/201 193/240/186
f 200/282/202 190/284/69 199/281/201
f 200/282/202 192/283/70 190/284/69
f 198/280/200 203/285/203 194/279/187
f 194/279/187 203/285/203 191/286/118
f 191/286/118 203/285/203 196/287/188
f 203/285/203 201/288/190 196/287/188
f 198/280/200 199/281/201 201/288/190
f 199/281/201 190/284/69 201/288/190
f 196/287/188 201/288/190 197/289/191
f 142/112/90 146/277/198 123/59/49
f 131/178/147 123/59/49 146/277/198
f 137/183/151 130/118/97 147/74/64
f 155/200/162 147/74/64 154/73/63
f 138/188/154 155/200/162 160/217/164
f 134/189/152 138/188/154 160/217/164
f 161/121/100 148/197/159 164/212/172
f 158/223/180 164/212/172 148/197/159
f 151/226/182 149/234/185 165/126/105
f 166/127/106 165/126/105 149/234/185
f 149/234/185 144/119/98 166/127/106
f 159/133/111 153/235/62 172/131/108
f 167/199/161 166/127/106 144/119/98
f 163/201/163 154/73/63 169/214/174
f 175/122/101 180/273/113 170/211/112
f 176/77/67 161/121/100 164/212/172
f 168/227/104 165/126/105 184/81/71
f 162/130/109 181/141/119 172/129/108
f 179/132/110 172/131/108 181/142/119
f 178/213/173 159/133/111 179/132/110
f 182/144/120 177/128/107 167/199/161
f 188/215/175 182/144/120 167/199/161
f 131/178/147 146/277/198 152/71/61
f 143/113/93 139/115/95 150/224/181
f 150/224/181 136/276/153 151/225/182
f 139/115/95 136/276/153 150/224/181
f 149/234/185 151/226/182 136/187/153
f 127/67/57 131/178/147 152/71/61
f 138/188/154 147/74/64 155/200/162
f 201/288/190 203/285/203 198/280/200
